<?xml version="1.0" encoding="UTF-8"?>
<svg version="1.1" xmlns="http://www.w3.org/2000/svg" width="512" height="512">
<path d="M0 0 C1.9992471 3.52071061 3.99292169 7.04451004 5.98144531 10.57128906 C6.65894918 11.77104903 7.33797981 12.96994816 8.01855469 14.16796875 C8.9955328 15.88836169 9.96660532 17.61210409 10.9375 19.3359375 C11.52402344 20.37282715 12.11054688 21.4097168 12.71484375 22.47802734 C14 25 14 25 14 27 C14.66 26.67 15.32 26.34 16 26 C24.51581627 24.98343485 32.56030973 26.9028508 39.609375 31.8203125 C42.1077724 34.09826307 43.68519172 36.2423058 45.4375 39.125 C46.02789062 40.09050781 46.61828125 41.05601562 47.2265625 42.05078125 C48.10441406 43.51064453 48.10441406 43.51064453 49 45 C49.56460938 45.90105469 50.12921875 46.80210937 50.7109375 47.73046875 C56.50948052 57.07885152 58.16815533 64.92542934 57 76 C55.97269773 78.89344487 54.77950978 81.3295266 53.19140625 83.94921875 C51.98645185 86.02332059 51.2759847 87.61649574 51 90 C52.79847571 92.25099677 52.79847571 92.25099677 55.28515625 92.08984375 C56.20167969 92.03957031 57.11820312 91.98929687 58.0625 91.9375 C67.36710523 91.84057703 73.55246649 94.35246833 80.36328125 100.7890625 C89.14344233 110.68135506 95.37376515 123.61427379 95.29296875 136.81640625 C94.73481386 142.88168934 92.34696608 147.97955088 89 153 C89.32502407 157.01361142 90.8649541 159.83215864 92.94140625 163.23046875 C93.52470703 164.19791016 94.10800781 165.16535156 94.70898438 166.16210938 C95.62647461 167.65967773 95.62647461 167.65967773 96.5625 169.1875 C97.7759924 171.17864408 98.98582821 173.17202282 100.19140625 175.16796875 C100.72967041 176.04735107 101.26793457 176.9267334 101.82250977 177.83276367 C103 180 103 180 103 182 C100.48046875 183.7265625 100.48046875 183.7265625 97.1875 185.625 C96.10855469 186.25664062 95.02960938 186.88828125 93.91796875 187.5390625 C91 189 91 189 88 189 C87.60208252 188.2479126 87.20416504 187.4958252 86.79418945 186.72094727 C85.30752923 183.93094919 83.80573438 181.14983039 82.29321289 178.3737793 C81.64217475 177.17137653 80.9972481 175.96564352 80.35864258 174.7565918 C79.43889442 173.01786042 78.49511149 171.2919102 77.55078125 169.56640625 C76.99044189 168.52427979 76.43010254 167.48215332 75.8527832 166.40844727 C74.20777778 163.80183429 74.20777778 163.80183429 71.44140625 163.16308594 C70.63574219 163.10926758 69.83007812 163.05544922 69 163 C68.13761719 162.94199219 67.27523437 162.88398438 66.38671875 162.82421875 C65.49597656 162.77910156 64.60523438 162.73398437 63.6875 162.6875 C56.05248145 162.02984026 50.69091315 159.05564842 45 154 C37.29413387 143.30978109 29.11205805 130.54111481 30 117 C31.09355165 112.0066502 32.55592574 107.48416182 35.25 103.125 C37.26044147 100.23750935 37.26044147 100.23750935 36.75 97.5625 C36.5025 97.046875 36.255 96.53125 36 96 C35.01 96.33 34.02 96.66 33 97 C24.24915454 97.61409442 16.95354588 95.99597711 10 90.4375 C2.19585898 82.96676374 -6.18533019 69.50353773 -7.37109375 58.58203125 C-7.50138218 51.18624702 -7.12897018 45.54607901 -3.19140625 39.05078125 C-1.91544232 36.85444989 -1.27133557 35.52801263 -1 33 C-2.17340308 30.27451754 -2.17340308 30.27451754 -4 27.46484375 C-4.639375 26.40845703 -5.27875 25.35207031 -5.9375 24.26367188 C-6.618125 23.16603516 -7.29875 22.06839844 -8 20.9375 C-9.34253792 18.76477528 -10.6763529 16.58662833 -12 14.40234375 C-12.598125 13.43804443 -13.19625 12.47374512 -13.8125 11.48022461 C-15 9 -15 9 -14 6 C-11.6015625 4.39453125 -11.6015625 4.39453125 -8.625 2.8125 C-7.15933594 2.01779297 -7.15933594 2.01779297 -5.6640625 1.20703125 C-3 0 -3 0 0 0 Z M24 43 C24.66 45.31 25.32 47.62 26 50 C24.40089132 51.00806851 22.79551738 52.00620385 21.1875 53 C19.84751953 53.8353125 19.84751953 53.8353125 18.48046875 54.6875 C16 56 16 56 13 56 C10.8125 53.5 10.8125 53.5 9 51 C8.50774736 57.66032745 9.73123749 61.50403554 13.125 67.1875 C13.50398438 67.87263672 13.88296875 68.55777344 14.2734375 69.26367188 C16.9260556 73.85712221 19.75091137 76.82857878 24 80 C24.99 79.505 24.99 79.505 26 79 C25.34 77.02 24.68 75.04 24 73 C25.59910868 71.99193149 27.20448262 70.99379615 28.8125 70 C29.70582031 69.443125 30.59914063 68.88625 31.51953125 68.3125 C34 67 34 67 37 67 C39.1875 69.5 39.1875 69.5 41 72 C41.50181709 65.31160214 40.24692835 61.50026168 36.8125 55.8125 C36.42513672 55.12736328 36.03777344 54.44222656 35.63867188 53.73632812 C33.22722633 49.59501916 30.70367038 46.12175163 27 43 C26.01 43 25.02 43 24 43 Z M62 109 C62.66 111.31 63.32 113.62 64 116 C62.23628182 117.03307771 60.46374967 118.05112049 58.6875 119.0625 C57.70136719 119.63097656 56.71523438 120.19945312 55.69921875 120.78515625 C53 122 53 122 50 121 C48.3125 118.9375 48.3125 118.9375 47 117 C45.72029917 120.83910249 46.11194061 123.2174451 47.85546875 126.83984375 C48.23316406 127.55269531 48.61085938 128.26554687 49 129 C49.51175781 129.97066406 50.02351563 130.94132812 50.55078125 131.94140625 C53.74990676 137.72253106 56.51021631 142.25087943 62 146 C62.99 145.505 62.99 145.505 64 145 C63.01 142.69 62.02 140.38 61 138 C61.886875 137.731875 62.77375 137.46375 63.6875 137.1875 C66.99085055 136.12682201 66.99085055 136.12682201 69.6875 134.375 C72 133 72 133 75 133 C76.625 135.5 76.625 135.5 78 138 C78.33 138 78.66 138 79 138 C79.96495112 130.76286663 76.67225415 126.05097196 73 120 C72.54753906 119.21496094 72.09507812 118.42992187 71.62890625 117.62109375 C69.52278216 114.05839786 67.72655692 111.05603141 64 109 C63.34 109 62.68 109 62 109 Z " fill="#000000" transform="translate(312,148)"/>
<path d="M0 0 C3.56908256 0.50642388 6.21836105 2.18767065 9.25 4.0625 C10.14203125 4.61035156 11.0340625 5.15820312 11.953125 5.72265625 C12.62859375 6.14417969 13.3040625 6.56570312 14 7 C13.36534466 10.04038241 12.35138224 12.42077926 10.8203125 15.1171875 C10.38589844 15.88933594 9.95148438 16.66148437 9.50390625 17.45703125 C9.04886719 18.25496094 8.59382813 19.05289063 8.125 19.875 C6.80212197 22.21195744 5.48253422 24.55024861 4.17749023 26.8972168 C3.1568132 28.71996017 2.1028117 30.52396656 1.04296875 32.32421875 C-0.29193061 34.89194164 -0.29193061 34.89194164 0.73046875 37.08984375 C1.21128906 37.69957031 1.69210938 38.30929688 2.1875 38.9375 C6.57038604 45.12510382 7.93732483 51.51341836 7 59 C4.40583608 69.62293707 -2.40390486 83.96145421 -11 91 C-17.53626785 94.96547461 -23.09542649 97.15362588 -30.75 97.0625 C-31.73484375 97.05347656 -32.7196875 97.04445313 -33.734375 97.03515625 C-34.48203125 97.02355469 -35.2296875 97.01195312 -36 97 C-36.99 98.98 -36.99 98.98 -38 101 C-36.824375 102.546875 -36.824375 102.546875 -35.625 104.125 C-30.38903793 111.01442378 -30.22129578 118.66685358 -31 127 C-31.84715709 130.32040093 -33.32067324 133.02403488 -35 136 C-35.66484031 137.28668785 -36.32739073 138.57456019 -36.98828125 139.86328125 C-41.7709574 148.99163776 -46.15838828 155.69342733 -55.3125 160.875 C-61.45027425 162.7475413 -67.61143134 163 -74 163 C-74.40839111 163.7520874 -74.81678223 164.5041748 -75.23754883 165.27905273 C-76.75645002 168.06560992 -78.28365087 170.84739827 -79.81665039 173.6262207 C-80.47855012 174.83010257 -81.13710438 176.03583008 -81.79223633 177.2434082 C-82.73418892 178.9782838 -83.68918794 180.70605585 -84.64453125 182.43359375 C-85.21534424 183.47572021 -85.78615723 184.51784668 -86.37426758 185.59155273 C-88 188 -88 188 -91 189 C-93.91796875 187.56640625 -93.91796875 187.56640625 -97.1875 185.5625 C-98.27417969 184.90378906 -99.36085938 184.24507812 -100.48046875 183.56640625 C-101.72763672 182.79103516 -101.72763672 182.79103516 -103 182 C-102.33466052 178.43623961 -100.85001007 175.81139861 -98.98828125 172.71875 C-98.39595703 171.71199219 -97.80363281 170.70523438 -97.19335938 169.66796875 C-95.9363884 167.55082761 -94.67070012 165.43883852 -93.39648438 163.33203125 C-92.80802734 162.32527344 -92.21957031 161.31851563 -91.61328125 160.28125 C-90.79017456 158.90549805 -90.79017456 158.90549805 -89.95043945 157.50195312 C-88.71433901 155.05673015 -88.71433901 155.05673015 -89.77197266 152.79272461 C-90.17722168 152.20112549 -90.5824707 151.60952637 -91 151 C-95.05993602 143.29378181 -97.57388421 136.33563579 -95.38671875 127.53125 C-91.43447946 115.69194289 -84.31896287 100.58159241 -72.8125 94.5625 C-68.03720238 92.39367847 -64.00247357 91.8804079 -58.75 91.9375 C-57.67234375 91.94652344 -56.5946875 91.95554687 -55.484375 91.96484375 C-54.66453125 91.97644531 -53.8446875 91.98804688 -53 92 C-51.70539301 90.29967951 -51.70539301 90.29967951 -51 88 C-52.04237214 85.45983093 -52.04237214 85.45983093 -53.8125 83 C-57.09348237 78.07477245 -58.14786116 74.71101803 -58.25 68.8125 C-58.27578125 67.93207031 -58.3015625 67.05164063 -58.328125 66.14453125 C-57.10487013 54.42167213 -49.54996249 40.71506153 -41 32.6875 C-34.69536039 27.97162957 -28.55371505 25.76663714 -20.671875 25.90234375 C-19.60549805 25.91644287 -18.53912109 25.93054199 -17.44042969 25.94506836 C-16.63508789 25.9631958 -15.82974609 25.98132324 -15 26 C-14.58113525 25.2479126 -14.16227051 24.4958252 -13.73071289 23.72094727 C-12.17964254 20.9378088 -10.62707856 18.15551068 -9.07348633 15.3737793 C-8.40068258 14.16838663 -7.72847976 12.96265835 -7.05688477 11.7565918 C-6.09288084 10.02565339 -5.12655352 8.29600957 -4.16015625 6.56640625 C-3.28822632 5.00321655 -3.28822632 5.00321655 -2.39868164 3.40844727 C-1 1 -1 1 0 0 Z M-32 47 C-33.98763306 49.84443378 -35.65252904 52.83049031 -37.3125 55.875 C-37.76689453 56.66519531 -38.22128906 57.45539063 -38.68945312 58.26953125 C-41.12278111 62.66781733 -42.62364585 65.82789707 -42 71 C-41.34 71 -40.68 71 -40 71 C-39.34 69.35 -38.68 67.7 -38 66 C-33.38 68.31 -28.76 70.62 -24 73 C-24.99 75.31 -25.98 77.62 -27 80 C-22.7014925 79.52238806 -20.8269572 77.10080551 -18 74 C-16.47757078 71.74065025 -15.08997993 69.54534929 -13.75 67.1875 C-13.2240625 66.3202832 -13.2240625 66.3202832 -12.6875 65.43554688 C-10.10979057 60.94934103 -9.38557762 57.15426548 -9 52 C-9.66 51.67 -10.32 51.34 -11 51 C-11.66 52.98 -12.32 54.96 -13 57 C-17.62 54.69 -22.24 52.38 -27 50 C-26.34 47.69 -25.68 45.38 -25 43 C-28.32021975 43 -29.62028879 44.75421194 -32 47 Z M-63 108 C-68.61926379 111.11815663 -71.18022028 114.77960284 -74.3125 120.3125 C-74.75400391 121.04662109 -75.19550781 121.78074219 -75.65039062 122.53710938 C-78.26981703 127.05792646 -79.85994197 130.73781955 -80 136 C-79.34 136.66 -78.68 137.32 -78 138 C-77.34 136.02 -76.68 134.04 -76 132 C-71.07898758 134.0085765 -66.57456238 136.29260594 -62 139 C-62.66 141.31 -63.32 143.62 -64 146 C-57.8990045 144.01434716 -56.14418064 140.31910258 -53 135 C-52.15115234 133.61748047 -52.15115234 133.61748047 -51.28515625 132.20703125 C-48.17756513 126.90584639 -46.17586263 123.18103027 -47 117 C-48.37562854 118.28965176 -49.70766393 119.62689293 -51 121 C-51 121.66 -51 122.32 -51 123 C-52.96074484 122.04661031 -54.91852652 121.0871246 -56.875 120.125 C-57.96554688 119.59132813 -59.05609375 119.05765625 -60.1796875 118.5078125 C-63 117 -63 117 -65 115 C-64.484375 114.21625 -63.96875 113.4325 -63.4375 112.625 C-62.963125 111.75875 -62.48875 110.8925 -62 110 C-62.33 109.34 -62.66 108.68 -63 108 Z " fill="#000000" transform="translate(201,148)"/>
<path d="M0 0 C4.15787793 3.95480697 6.33973589 8.97505668 9 14 C0.33411391 19.40560359 -8.42366686 24.59199853 -17.3125 29.625 C-19.77308465 31.02307455 -22.23245222 32.42327851 -24.69140625 33.82421875 C-25.30494965 34.17366043 -25.91849304 34.52310211 -26.55062866 34.88313293 C-33.56008289 38.88088899 -40.52545902 42.9538973 -47.48168945 47.04345703 C-55.59929297 51.80395744 -63.7923729 56.38320975 -72 61 C-72 94.66 -72 128.32 -72 163 C-58.14 170.92 -58.14 170.92 -44 179 C-32 186 -32 186 -26.19921875 189.39453125 C-17.89086393 194.2411846 -9.53228988 199.0002281 -1.17382812 203.75976562 C0.51129883 204.71979492 0.51129883 204.71979492 2.23046875 205.69921875 C3.72163208 206.54746216 3.72163208 206.54746216 5.24291992 207.4128418 C7.08794587 208.47496114 8.91182417 209.57464945 10.71289062 210.7097168 C12.90560143 212.20371202 12.90560143 212.20371202 15.36328125 211.9453125 C18.90569737 210.67529072 21.99628968 208.83506789 25.1875 206.875 C26.71274102 205.95830195 28.23883949 205.0430296 29.765625 204.12890625 C30.60029297 203.62762207 31.43496094 203.12633789 32.29492188 202.60986328 C37.31160977 199.62430011 42.37712888 196.72318589 47.4375 193.8125 C49.67060911 192.5261045 51.90368148 191.23964521 54.13671875 189.953125 C55.26384277 189.30408203 56.3909668 188.65503906 57.55224609 187.98632812 C62.16488822 185.32888185 66.77500127 182.66707308 71.38476562 180.00463867 C73.60265098 178.72465623 75.82138184 177.44613753 78.04101562 176.16918945 C82.58818605 173.55302362 87.13079371 170.93280045 91.63671875 168.24609375 C92.62430176 167.66299438 92.62430176 167.66299438 93.63183594 167.06811523 C95.27830488 166.09416964 96.91878445 165.11011697 98.55859375 164.125 C101 163 101 163 104 164 C105.640625 166.3984375 105.640625 166.3984375 107.25 169.375 C108.06210937 170.84066406 108.06210937 170.84066406 108.890625 172.3359375 C110 175 110 175 109 178 C106.69702148 179.5871582 106.69702148 179.5871582 103.62109375 181.30078125 C101.91638916 182.2609314 101.91638916 182.2609314 100.17724609 183.24047852 C98.30737305 184.27648926 98.30737305 184.27648926 96.4375 185.3125 C94.50700191 186.39580309 92.57840113 187.48243567 90.64978027 188.56907654 C89.33829734 189.30759806 88.02619789 190.04502577 86.71350098 190.78138733 C80.72748576 194.14080479 74.79543573 197.58888457 68.875 201.0625 C58.27067002 207.26679259 47.6469198 213.43627939 36.98828125 219.546875 C33.29521362 221.66587695 29.62551169 223.81512376 25.98046875 226.015625 C25.243125 226.45285889 24.50578125 226.89009277 23.74609375 227.34057617 C22.42351735 228.12562063 21.10884918 228.92423179 19.8046875 229.73950195 C18.07421875 230.75390625 18.07421875 230.75390625 15 232 C11.54261858 230.90088332 8.47189372 229.23849891 5.32421875 227.453125 C4.42678955 226.94547607 3.52936035 226.43782715 2.60473633 225.91479492 C1.64204834 225.3654126 0.67936035 224.81603027 -0.3125 224.25 C-1.32868408 223.67290283 -2.34486816 223.09580566 -3.3918457 222.5012207 C-11.51704339 217.87474475 -19.5956416 213.17017856 -27.66333008 208.44433594 C-36.45640873 203.29930656 -45.29691297 198.23967824 -54.1550293 193.20776367 C-56.32549456 191.97236427 -58.47985167 190.70828176 -60.61811829 189.41795349 C-63.95174724 187.48307139 -67.35762301 185.98271433 -70.91223145 184.49655151 C-86.98361385 177.27029722 -86.98361385 177.27029722 -90.34683228 170.14768219 C-92.39052954 161.8578961 -91.75529403 153.39948962 -91.34375 144.9453125 C-91.28546109 142.23021016 -91.26360964 139.51513195 -91.24084473 136.79953003 C-91.16667889 130.41322677 -90.97046458 124.03696451 -90.72845697 117.65505683 C-90.45873223 110.38181409 -90.32789953 103.10805 -90.20776653 95.83103967 C-89.95791095 80.88179395 -89.53675434 65.94190739 -89 51 C-88.4862702 50.71527643 -87.9725404 50.43055286 -87.44324303 50.13720131 C-85.08735162 48.83110051 -82.73190542 47.52419879 -80.37646484 46.21728516 C-79.56841904 45.76946182 -78.76037323 45.32163849 -77.92784119 44.86024475 C-71.77778188 41.44680068 -65.68435357 37.9470791 -59.625 34.375 C-50.67873837 29.1286769 -41.6972413 23.94866046 -32.6875 18.8125 C-21.76590828 12.58573212 -10.86909577 6.31799655 0 0 Z " fill="#000000" transform="translate(89,275)"/>
<path d="M0 0 C4.86262912 1.4095658 8.95515046 3.57057973 13.25 6.1875 C14.76618915 7.09498405 16.28316888 8.00114806 17.80078125 8.90625 C19.04335693 9.64875 19.04335693 9.64875 20.31103516 10.40625 C25.32668009 13.37902376 30.38423498 16.27930057 35.4375 19.1875 C36.53521729 19.82018799 37.63293457 20.45287598 38.76391602 21.10473633 C44.48141701 24.39981264 50.20122969 27.69085516 55.921875 30.98046875 C57.05568604 31.63313721 58.18949707 32.28580566 59.35766602 32.95825195 C61.49027991 34.18584574 63.62352283 35.41234782 65.75756836 36.63745117 C67.71548299 37.76478357 69.65846165 38.91859204 71.58300781 40.10198975 C74.11016314 41.50572919 76.15014817 42.44925361 78.82289124 43.3719635 C83.30272647 45.1198298 87.07457304 47.08288305 90 51 C92.94884786 59.52183977 92.05997346 69.18426621 91.921875 78.06640625 C91.92690394 80.74736565 91.93656341 83.42798113 91.95098877 86.10887146 C91.96908027 91.71920572 91.92562499 97.32654095 91.84570312 102.9362793 C91.75433419 109.40646059 91.76325119 115.87069009 91.82526469 122.34108502 C91.88257902 128.58725777 91.86617223 134.83123049 91.81748199 141.07740593 C91.80380419 143.72508707 91.80880143 146.37293407 91.83296967 149.02054024 C91.96138694 169.11860935 91.96138694 169.11860935 88.73618126 173.8566227 C85.31322115 177.1020823 81.43899229 178.48770871 77 180 C74.96237072 181.13760973 72.94382053 182.3109188 70.95703125 183.53515625 C68.90995526 184.71285349 66.86174178 185.88857538 64.8125 187.0625 C63.10957218 188.04151113 61.4066462 189.02052547 59.7038269 189.99972534 C57.95604539 191.00447299 56.20779404 192.00839914 54.45947266 193.01220703 C48.96860782 196.16722619 43.48448386 199.33390597 38 202.5 C31.90656461 206.01663713 25.81284225 209.5327634 19.71557617 213.04275513 C17.94954478 214.05947198 16.18372569 215.07655658 14.41796875 216.09375 C12.21265845 217.36400873 10.00695784 218.63359018 7.80078125 219.90234375 C6.79402344 220.48242188 5.78726563 221.0625 4.75 221.66015625 C3.78320312 222.2133252 2.81640625 222.76649414 1.8203125 223.33642578 C-0.06487155 224.44841021 -1.92505332 225.60387245 -3.7578125 226.80029297 C-4.62148438 227.35990723 -5.48515625 227.91952148 -6.375 228.49609375 C-7.12523437 229.00197021 -7.87546875 229.50784668 -8.6484375 230.02905273 C-11.86617645 231.35763951 -13.66778002 230.91988119 -17 230 C-19.83886719 228.65576172 -19.83886719 228.65576172 -22.796875 226.9296875 C-24.46194092 225.96760376 -24.46194092 225.96760376 -26.16064453 224.98608398 C-27.35717703 224.28252651 -28.55362667 223.57882811 -29.75 222.875 C-31.00192667 222.14763221 -32.25437693 221.42116493 -33.50732422 220.69555664 C-36.08475987 219.20124546 -38.6592665 217.70207169 -41.23144531 216.19873047 C-45.78891076 213.53654805 -50.36343681 210.90423648 -54.93823242 208.27197266 C-58.13155365 206.43372737 -61.32193316 204.5904663 -64.51171875 202.74609375 C-68.42073902 200.48692662 -72.33280576 198.23326061 -76.24957275 195.98756409 C-78.00977017 194.97825333 -79.76936896 193.96790645 -81.52880859 192.95727539 C-83.72199396 191.69794527 -85.91624565 190.44046943 -88.11181641 189.18530273 C-94.86301823 185.30447297 -101.4660644 181.23631444 -108 177 C-102.19921875 166.04296875 -102.19921875 166.04296875 -99 163 C-85.27636744 170.82765691 -71.55791478 178.66381262 -57.875 186.5625 C-56.30274658 187.46995972 -56.30274658 187.46995972 -54.69873047 188.39575195 C-49.6709853 191.29891896 -44.64495388 194.20501724 -39.62149048 197.11558533 C-37.2386164 198.49586553 -34.85498099 199.87482771 -32.47125244 201.25363159 C-30.79631501 202.22318998 -29.12250627 203.1946974 -27.44873047 204.16625977 C-25.91949951 205.05075806 -25.91949951 205.05075806 -24.359375 205.953125 C-23.46702148 206.47036133 -22.57466797 206.98759766 -21.65527344 207.52050781 C-20.7790332 208.00874023 -19.90279297 208.49697266 -19 209 C-18.00693848 209.60481201 -17.01387695 210.20962402 -15.99072266 210.83276367 C-13.09721864 212.30672757 -13.09721864 212.30672757 -10.40478516 211.27758789 C-9.54159668 210.76446045 -8.6784082 210.25133301 -7.7890625 209.72265625 C-6.80429932 209.15361572 -5.81953613 208.5845752 -4.80493164 207.99829102 C-3.7555542 207.35947998 -2.70617676 206.72066895 -1.625 206.0625 C-0.5208374 205.41659912 0.5833252 204.77069824 1.72094727 204.10522461 C4.02753515 202.75310952 6.32759432 201.39412508 8.62060547 200.01953125 C11.75618909 198.14570177 14.90608175 196.300461 18.06640625 194.46875 C21.99968871 192.18878944 25.92659604 189.89857406 29.84765625 187.59765625 C37.57238217 183.07100944 45.33413765 178.60878545 53.09741211 174.14868164 C58.79859611 170.86796071 64.45425495 167.53517578 70.04345703 164.06640625 C72 163 72 163 74 163 C74.26366789 149.87366591 74.43493214 136.74964074 74.48965549 123.62067604 C74.51794435 117.52327831 74.57752207 111.42959653 74.7097168 105.33349609 C74.83624067 99.44497909 74.87912017 93.56113748 74.86509514 87.67133713 C74.87424875 85.42966275 74.91307708 83.18789921 74.98260689 80.9472847 C75.75854402 69.32925427 75.75854402 69.32925427 71.34482765 59.10014153 C67.30581199 55.85388808 62.87746488 53.76029132 58.08270645 51.86335087 C55.05307108 50.60746657 52.36653767 48.97320673 49.56640625 47.26953125 C47.56551817 46.11646879 45.56421172 44.96413204 43.5625 43.8125 C41.93538086 42.87482788 41.93538086 42.87482788 40.27539062 41.91821289 C35.66857904 39.26346818 31.06070605 36.61056853 26.45263672 33.95800781 C24.10089062 32.60421928 21.74941488 31.24996306 19.39819336 29.89526367 C17.20025566 28.62899006 15.00188 27.3634762 12.80297852 26.09887695 C10.81307867 24.95235729 8.82525714 23.80222059 6.83984375 22.64794922 C4.92151159 21.53474925 2.99681648 20.43245327 1.06640625 19.34033203 C0.15761719 18.81681152 -0.75117188 18.29329102 -1.6875 17.75390625 C-2.49574219 17.29443604 -3.30398438 16.83496582 -4.13671875 16.36157227 C-6 15 -6 15 -7 12 C-5.56640625 9.08203125 -5.56640625 9.08203125 -3.5625 5.8125 C-2.90378906 4.72582031 -2.24507813 3.63914062 -1.56640625 2.51953125 C-1.04949219 1.68808594 -0.53257812 0.85664063 0 0 Z " fill="#000000" transform="translate(422,276)"/>
<path d="M0 0 C1.13308594 -0.01611328 2.26617187 -0.03222656 3.43359375 -0.04882812 C14.16261709 -0.05504425 21.28351868 1.71773372 29.1953125 9.109375 C31.08799438 11.27025067 32.17287346 13.13168448 33.3125 15.75 C33.910625 16.925625 34.50875 18.10125 35.125 19.3125 C38.24633744 20.44728935 38.24633744 20.44728935 41.125 20.3125 C41.16625 19.6525 41.2075 18.9925 41.25 18.3125 C43.13805997 11.83915153 47.79541755 7.12196221 53.21875 3.3203125 C60.34402488 -0.44673857 67.52401449 -0.05464116 75.375 -0.0625 C76.64730469 -0.08699219 77.91960937 -0.11148437 79.23046875 -0.13671875 C88.8512503 -0.16650445 96.68040464 0.97810473 104 7.5625 C107.54943196 11.16544098 108.65960066 14.38170132 111.125 19.3125 C121.355 19.6425 131.585 19.9725 142.125 20.3125 C142.125 25.5925 142.125 30.8725 142.125 36.3125 C131.895 36.3125 121.665 36.3125 111.125 36.3125 C110.135 39.2825 110.135 39.2825 109.125 42.3125 C105.0966745 49.40697135 99.71367797 53.60899079 92.13671875 56.421875 C86.81337967 57.85609107 81.34973156 57.68099021 75.875 57.6875 C74.80636719 57.71199219 73.73773438 57.73648438 72.63671875 57.76171875 C64.02485564 57.79311072 56.7359411 56.07906466 49.3125 51.625 C45.3899252 47.47827806 41.93775235 42.75075704 40.125 37.3125 C38.475 36.9825 36.825 36.6525 35.125 36.3125 C34.96 37.281875 34.795 38.25125 34.625 39.25 C32.86880409 45.33484781 28.1742919 50.30349 22.9609375 53.73828125 C15.41549431 57.62404319 8.38077764 57.55798952 0 57.625 C-1.77890625 57.66850586 -1.77890625 57.66850586 -3.59375 57.71289062 C-12.44481921 57.77639167 -19.97752853 56.46799504 -27.1875 51.0625 C-30.98198194 47.1797743 -34.875 42.93124032 -34.875 37.3125 C-45.435 37.3125 -55.995 37.3125 -66.875 37.3125 C-66.875 32.0325 -66.875 26.7525 -66.875 21.3125 C-51.53 20.8175 -51.53 20.8175 -35.875 20.3125 C-34.555 17.6725 -33.235 15.0325 -31.875 12.3125 C-27.95877156 6.29829205 -21.99222228 2.545017 -15.09008789 0.69848633 C-10.10726952 -0.16978611 -5.0423848 -0.01424402 0 0 Z M-15.875 19.3125 C-16.205 19.9725 -16.535 20.6325 -16.875 21.3125 C-14.235 21.3125 -11.595 21.3125 -8.875 21.3125 C-8.875 26.5925 -8.875 31.8725 -8.875 37.3125 C-11.515 37.3125 -14.155 37.3125 -16.875 37.3125 C-14.3416711 40.08709832 -12.45325832 41.1891587 -8.61010742 41.48950195 C-5.76079896 41.55590028 -2.91245338 41.59736632 -0.0625 41.625 C1.41573242 41.66850586 1.41573242 41.66850586 2.92382812 41.71289062 C8.96765513 41.76565742 12.53863564 41.38494238 17.125 37.3125 C17.125 36.9825 17.125 36.6525 17.125 36.3125 C14.485 36.3125 11.845 36.3125 9.125 36.3125 C9.125 31.3625 9.125 26.4125 9.125 21.3125 C11.765 21.3125 14.405 21.3125 17.125 21.3125 C13.67879268 17.52252853 13.67879268 17.52252853 8.95776367 16.15136719 C6.07588233 16.10595412 3.19470958 16.07721454 0.3125 16.0625 C-0.68587891 16.041875 -1.68425781 16.02125 -2.71289062 16 C-9.81829068 15.88221193 -9.81829068 15.88221193 -15.875 19.3125 Z M59.125 19.3125 C59.125 19.6425 59.125 19.9725 59.125 20.3125 C61.435 20.3125 63.745 20.3125 66.125 20.3125 C66.11339844 20.96476562 66.10179687 21.61703125 66.08984375 22.2890625 C66.04029006 27.0886914 66.13086249 31.59034685 67.125 36.3125 C64.485 36.3125 61.845 36.3125 59.125 36.3125 C62.73534475 40.04318957 64.47782331 41.42352458 69.66796875 41.55078125 C71.54939187 41.58144938 73.43092371 41.60591708 75.3125 41.625 C76.71338867 41.66850586 76.71338867 41.66850586 78.14257812 41.71289062 C84.3774058 41.76992986 88.0013538 40.90543032 93.125 37.3125 C93.125 36.9825 93.125 36.6525 93.125 36.3125 C90.485 36.3125 87.845 36.3125 85.125 36.3125 C85.125 31.0325 85.125 25.7525 85.125 20.3125 C87.435 20.3125 89.745 20.3125 92.125 20.3125 C90.40273504 17.06400023 90.40273504 17.06400023 87.125 16.3125 C83.33769657 16.0552845 79.54511514 16.08114921 75.75 16.0625 C74.7084375 16.041875 73.666875 16.02125 72.59375 16 C65.32616959 15.84233501 65.32616959 15.84233501 59.125 19.3125 Z " fill="#000000" transform="translate(220.875,379.6875)"/>
<path d="M0 0 C2.83886719 1.34423828 2.83886719 1.34423828 5.796875 3.0703125 C7.46194092 4.03239624 7.46194092 4.03239624 9.16064453 5.01391602 C10.35717703 5.71747349 11.55362667 6.42117189 12.75 7.125 C14.00192667 7.85236779 15.25437693 8.57883507 16.50732422 9.30444336 C19.08475987 10.79875454 21.6592665 12.29792831 24.23144531 13.80126953 C28.78818729 16.46302934 33.36199252 19.09491428 37.93603516 21.72680664 C41.1417172 23.57212307 44.34461092 25.42219701 47.546875 27.2734375 C51.92872108 29.80573382 56.31441795 32.33117618 60.703125 34.8515625 C62.37930908 35.81533813 62.37930908 35.81533813 64.08935547 36.79858398 C66.16566964 37.99225636 68.24272225 39.18464602 70.32080078 40.37524414 C72.28767586 41.50700234 74.2402857 42.66392462 76.1776123 43.84555054 C79.02543544 45.52626884 81.92953097 46.86240954 84.96322632 48.17506409 C98.32217378 54.38084711 98.32217378 54.38084711 101.12072372 60.41745567 C102.82216859 67.42306458 102.29637008 74.56260567 101.953125 81.703125 C101.91576881 83.99513343 101.88732477 86.28730283 101.86737061 88.57952881 C101.79139694 94.58121437 101.59538427 100.57304348 101.37329102 106.57086182 C101.16778328 112.70343633 101.07716528 118.8376229 100.9765625 124.97265625 C100.76277726 136.98607644 100.42199392 148.9922155 100 161 C94.72 161 89.44 161 84 161 C84 129.98 84 98.96 84 67 C81.03 66.01 81.03 66.01 78 65 C76.33236954 64.14032365 74.69093121 63.22811924 73.078125 62.26953125 C72.14887207 61.72176025 71.21961914 61.17398926 70.26220703 60.60961914 C69.26817871 60.01656982 68.27415039 59.42352051 67.25 58.8125 C65.08632451 57.53580222 62.92224834 56.25978329 60.7578125 54.984375 C59.64180664 54.32501953 58.52580078 53.66566406 57.37597656 52.98632812 C51.97873641 49.81074627 46.5523448 46.68626134 41.125 43.5625 C38.96743742 42.31902863 36.80988542 41.07553889 34.65234375 39.83203125 C32.43489986 38.55468051 30.21745183 37.27733696 28 36 C23.8036869 33.58216338 19.60779716 31.16359338 15.41229248 28.74435425 C13.72901778 27.77393527 12.04542113 26.80407481 10.36181641 25.83422852 C9.33878418 25.24440186 8.31575195 24.6545752 7.26171875 24.046875 C6.36412842 23.52963867 5.46653809 23.01240234 4.54174805 22.47949219 C2 21 2 21 -0.51635742 19.18457031 C-2.94077454 17.70373784 -2.94077454 17.70373784 -5.48364258 18.62817383 C-6.31404053 19.08087646 -7.14443848 19.5335791 -8 20 C-8.83877686 20.45076904 -9.67755371 20.90153809 -10.54174805 21.3659668 C-11.43933838 21.88843994 -12.33692871 22.41091309 -13.26171875 22.94921875 C-14.28458984 23.5421875 -15.30746094 24.13515625 -16.36132812 24.74609375 C-17.45896484 25.38675781 -18.55660156 26.02742188 -19.6875 26.6875 C-20.84940348 27.3623338 -22.01151671 28.03680656 -23.17382812 28.7109375 C-25.5872404 30.11107089 -27.9997446 31.51275019 -30.41162109 32.91552734 C-35.93267084 36.12491276 -41.46703466 39.31121804 -47 42.5 C-49.13937708 43.73428113 -51.27869965 44.96865673 -53.41796875 46.203125 C-57.41590908 48.50969856 -61.41433196 50.81543126 -65.4133606 53.12011719 C-67.80426597 54.49806938 -70.19498672 55.87634172 -72.58569336 57.25463867 C-74.26983963 58.22540982 -75.95425231 59.19571874 -77.63867188 60.16601562 C-78.66154297 60.75576172 -79.68441406 61.34550781 -80.73828125 61.953125 C-81.63587158 62.47036133 -82.53346191 62.98759766 -83.45825195 63.52050781 C-84.29702881 64.00874023 -85.13580566 64.49697266 -86 65 C-86.86382294 65.34241226 -87.72764587 65.68482452 -88.61764526 66.03761292 C-91.42392617 67.91026547 -91.42392617 67.91026547 -91.63923645 71.8914032 C-91.67153156 73.55319716 -91.67611627 75.21566163 -91.65942383 76.87768555 C-91.67514938 78.23896576 -91.67514938 78.23896576 -91.69119263 79.62774658 C-91.72002224 82.63108173 -91.71364183 85.63326958 -91.70703125 88.63671875 C-91.72014148 90.7175288 -91.73544362 92.7983261 -91.75285339 94.87910461 C-91.79279507 100.35855792 -91.80289976 105.83767902 -91.80688477 111.31726074 C-91.81619892 116.90757382 -91.85360165 122.49769029 -91.88867188 128.08789062 C-91.95334112 139.05858449 -91.98650464 150.02913222 -92 161 C-97.28 161 -102.56 161 -108 161 C-108 127.01 -108 93.02 -108 58 C-95 50.5 -82 43 -69 35.5 C-65.78636719 33.64568359 -65.78636719 33.64568359 -62.5078125 31.75390625 C-58.14934612 29.23930564 -53.78987809 26.72645339 -49.4296875 24.21484375 C-48.34526367 23.58964844 -47.26083984 22.96445312 -46.14355469 22.3203125 C-43.98131792 21.07478143 -41.81792288 19.83125874 -39.65332031 18.58984375 C-34.14440551 15.42368511 -28.67221281 12.21003736 -23.2421875 8.91015625 C-22.15180176 8.254104 -21.06141602 7.59805176 -19.93798828 6.92211914 C-17.86278516 5.67092645 -15.79553372 4.40641759 -13.73779297 3.12670898 C-12.80854004 2.56927002 -11.87928711 2.01183105 -10.921875 1.4375 C-9.70902832 0.69306641 -9.70902832 0.69306641 -8.47167969 -0.06640625 C-5.18971008 -1.30605973 -3.36365197 -0.92962824 0 0 Z " fill="#000000" transform="translate(260,6)"/>
<path d="M0 0 C4.86258172 1.40955206 8.95526058 3.57041773 13.25 6.1875 C14.76094249 7.09244319 16.27271744 7.99599736 17.78515625 8.8984375 C18.61289551 9.39311523 19.44063477 9.88779297 20.29345703 10.39746094 C26.49846208 14.0714329 32.76616726 17.63898237 39.02319336 21.22338867 C44.51794556 24.3801533 49.97905214 27.57622392 55.3828125 30.88671875 C56.38352783 31.49539795 57.38424316 32.10407715 58.4152832 32.73120117 C60.30420222 33.88441751 62.18598442 35.0494311 64.05932617 36.2277832 C64.90213135 36.74042725 65.74493652 37.25307129 66.61328125 37.78125 C67.34329346 38.23564453 68.07330566 38.69003906 68.82543945 39.15820312 C71.67588339 40.26164207 73.10654345 39.91957806 76 39 C78.41150347 37.85251119 78.41150347 37.85251119 80.82421875 36.3671875 C81.75741943 35.81579102 82.69062012 35.26439453 83.65209961 34.69628906 C84.65378174 34.09526367 85.65546387 33.49423828 86.6875 32.875 C88.84851375 31.59560293 91.00998839 30.31698409 93.171875 29.0390625 C94.29271484 28.37422852 95.41355469 27.70939453 96.56835938 27.02441406 C103.25456822 23.08004555 109.99200899 19.22392863 116.7277832 15.36499023 C121.61704863 12.55727487 126.48217053 9.7277958 131.27734375 6.76171875 C132.06375244 6.27993164 132.85016113 5.79814453 133.66040039 5.30175781 C135.09129882 4.42028273 136.51436633 3.5259084 137.92749023 2.61621094 C139.8046875 1.46484375 139.8046875 1.46484375 143 0 C146.20820209 0.84461471 146.97495106 1.95851987 148.703125 4.8203125 C149.21359375 5.91085937 149.7240625 7.00140625 150.25 8.125 C151.03117187 9.76855469 151.03117187 9.76855469 151.828125 11.4453125 C152.40820312 12.70988281 152.40820312 12.70988281 153 14 C140.62177377 21.23891632 128.23258898 28.45811802 115.8125 35.625 C114.84328613 36.18453369 113.87407227 36.74406738 112.87548828 37.32055664 C111.89177246 37.88766357 110.90805664 38.45477051 109.89453125 39.0390625 C108.86561768 39.68488281 107.8367041 40.33070313 106.77661133 40.99609375 C103.80844485 42.73528908 100.88648754 43.66864832 97.58862305 44.62890625 C91.13971558 46.83498397 85.88695243 49.19675519 82 55 C77.86435504 67.2769271 79.64042264 82.03904737 80.09448242 94.76318359 C80.24978736 99.75006175 80.28462491 104.73768779 80.33007812 109.7265625 C80.43655719 119.48971507 80.68668482 129.24129339 81 139 C75.72 139 70.44 139 65 139 C65 111.28 65 83.56 65 55 C63.35 54.34 61.7 53.68 60 53 C58.28065956 52.10624743 56.57690958 51.18209867 54.88671875 50.234375 C53.89800781 49.68104492 52.90929687 49.12771484 51.890625 48.55761719 C50.30507813 47.66284668 50.30507813 47.66284668 48.6875 46.75 C47.58535156 46.1302832 46.48320312 45.51056641 45.34765625 44.87207031 C35.70643192 39.4337829 26.12908865 33.88860204 16.58984375 28.2734375 C12.99704129 26.15944218 9.38804073 24.08114606 5.75390625 22.0390625 C4.95597656 21.58563477 4.15804688 21.13220703 3.3359375 20.66503906 C1.86645907 19.83119842 0.3914943 19.0069211 -1.08984375 18.19433594 C-5.80238074 15.49840374 -5.80238074 15.49840374 -6.77539062 13.04443359 C-7.13740796 9.74928884 -5.37654671 7.923332 -3.5625 5.25 C-2.90378906 4.26515625 -2.24507813 3.2803125 -1.56640625 2.265625 C-1.04949219 1.51796875 -0.53257812 0.7703125 0 0 Z " fill="#000000" transform="translate(336,337)"/>
<path d="M0 0 C18.32224176 9.95359763 36.47215701 20.19522055 54.45703125 30.74609375 C55.3591333 31.26679443 56.26123535 31.78749512 57.19067383 32.32397461 C59.19623456 33.52047886 61.16716666 34.77582201 63.11206055 36.06860352 C69.01776305 40.17278336 69.01776305 40.17278336 75.85546875 40.28515625 C77.55379495 39.29459117 77.55379495 39.29459117 79.1875 38.0625 C79.81293701 37.67006104 80.43837402 37.27762207 81.08276367 36.87329102 C82.41142796 36.03746791 83.72728641 35.18097764 85.03027344 34.30566406 C87.55740467 32.63051559 90.16348481 31.12102004 92.7890625 29.60668945 C94.89294903 28.39101467 96.98212233 27.15258279 99.0703125 25.91015625 C105.08071357 22.34894959 111.13466252 18.8634263 117.1875 15.375 C118.86525513 14.40796143 118.86525513 14.40796143 120.5769043 13.42138672 C128.37464882 8.93011649 136.1790844 4.45081197 144 0 C152 9.78151261 152 9.78151261 152 15 C149.35880669 16.52376537 146.71761273 18.0475296 144.07641602 19.57128906 C141.74616432 20.91567138 139.41592188 22.26006971 137.08569336 23.60449219 C131.10817017 27.0531854 125.13048203 30.50159185 119.15234375 33.94921875 C118.04616699 34.58722412 116.93999023 35.22522949 115.80029297 35.88256836 C113.73298158 37.07491226 111.66560535 38.26714375 109.59814453 39.45922852 C107.56827109 40.63005257 105.56258578 41.84356554 103.57983398 43.0925293 C100.81181497 44.72458522 98.14065727 45.56798744 95.04711914 46.41723633 C89.07393874 48.38163981 84.42866068 50.53551022 81 56 C77.18579478 68.21689045 78.83565945 82.62840178 79.23181152 95.23095703 C79.36645162 100.16436564 79.3923265 105.09826122 79.42773438 110.03320312 C79.51289153 119.69308686 79.72797451 129.34357013 80 139 C74.72 139 69.44 139 64 139 C64 111.28 64 83.56 64 55 C62.02 54.34 60.04 53.68 58 53 C55.53656544 51.65192233 53.14495625 50.27191277 50.75 48.8125 C49.23905751 47.90755681 47.72728256 47.00400264 46.21484375 46.1015625 C45.38710449 45.60688477 44.55936523 45.11220703 43.70654297 44.60253906 C38.60394041 41.58129757 33.45420506 38.64151116 28.3125 35.6875 C19.67489428 30.70916615 11.04159408 25.72357425 2.4375 20.6875 C1.49753174 20.14246826 0.55756348 19.59743652 -0.41088867 19.03588867 C-1.26658447 18.5329126 -2.12228027 18.02993652 -3.00390625 17.51171875 C-3.75486572 17.07303467 -4.5058252 16.63435059 -5.27954102 16.18237305 C-7 15 -7 15 -8 13 C-6.75506252 10.71025684 -5.47358472 8.55809966 -4.0625 6.375 C-3.67642578 5.76398438 -3.29035156 5.15296875 -2.89257812 4.5234375 C-1.93553674 3.0110758 -0.96867189 1.50493883 0 0 Z " fill="#000000" transform="translate(31,336)"/>
<path d="M0 0 C4.16585446 0.59566537 7.14019502 2.00269505 10.76953125 4.10546875 C11.89391602 4.75249756 13.01830078 5.39952637 14.17675781 6.06616211 C15.38876065 6.77312257 16.60067256 7.48023892 17.8125 8.1875 C19.06704301 8.91277884 20.32193034 9.63746241 21.57714844 10.36157227 C25.39048799 12.56459759 29.19596907 14.78095039 33 17 C34.1226123 17.65419922 35.24522461 18.30839844 36.40185547 18.98242188 C38.51270693 20.21313824 40.62291892 21.44495219 42.73242188 22.67797852 C44.72945254 23.84242835 46.72942191 25.0018542 48.73242188 26.15600586 C53.12322771 28.69170365 57.44665215 31.25994215 61.66015625 34.08203125 C62.37010742 34.53715088 63.08005859 34.99227051 63.81152344 35.46118164 C65.0883855 36.2836017 66.34389916 37.14086079 67.56738281 38.04077148 C69.48509877 39.37146398 69.48509877 39.37146398 73 40 C76.99344297 38.53389242 80.41857445 36.26931257 84 34 C85.97503058 32.88897378 87.95693369 31.79008165 89.9453125 30.703125 C99.34052759 25.46047453 108.73331444 20.21757667 118 14.75 C118.99060425 14.16690063 118.99060425 14.16690063 120.0012207 13.57202148 C123.58012038 11.4569964 127.13463207 9.30656384 130.67578125 7.12890625 C131.45115234 6.65807617 132.22652344 6.18724609 133.02539062 5.70214844 C134.51358401 4.79792163 135.99575743 3.8836864 137.47070312 2.95800781 C142.47040448 -0.06456092 142.47040448 -0.06456092 145.11083984 0.25732422 C147.9510354 1.37387564 148.78532945 3.22426803 150.3125 5.8125 C150.84488281 6.68519531 151.37726563 7.55789062 151.92578125 8.45703125 C153 11 153 11 152.86230469 12.97387695 C151.63592027 15.85546368 150.0176999 16.4928275 147.27734375 17.9609375 C146.27606445 18.50766113 145.27478516 19.05438477 144.24316406 19.61767578 C143.15229492 20.19759277 142.06142578 20.77750977 140.9375 21.375 C138.6382352 22.62821477 136.34008483 23.88347602 134.04296875 25.140625 C133.4552066 25.46044342 132.86744446 25.78026184 132.26187134 26.10977173 C125.45901736 29.81824566 118.78931902 33.74725809 112.11303711 37.67724609 C110.78091187 38.45962646 110.78091187 38.45962646 109.421875 39.2578125 C108.48174561 39.86173828 107.54161621 40.46566406 106.57299805 41.08789062 C103.70393855 42.79378597 100.85276191 43.67769735 97.65551758 44.61523438 C91.20781498 46.83678899 85.92294287 49.22101227 82 55 C77.86256032 67.10926762 79.64062233 81.73663837 80.09448242 94.29962158 C80.24980322 99.22616493 80.28462676 104.15346647 80.33007812 109.08203125 C80.4365498 118.72676097 80.68666406 128.35977163 81 138 C75.72 138 70.44 138 65 138 C65.10586426 135.56423584 65.21172852 133.12847168 65.32080078 130.61889648 C65.65344121 122.51800957 65.83950842 114.41834201 65.95596504 106.31161404 C66.03093021 101.40004569 66.15310517 96.49971482 66.38867188 91.59301758 C68.43442125 70.62239222 68.43442125 70.62239222 61.55917358 51.82098389 C55.45202756 46.6705334 48.58533584 43.74400112 41.09875488 41.12356567 C37.1791242 39.70236178 33.97068628 37.84865112 30.44140625 35.640625 C28.95133057 34.78126343 28.95133057 34.78126343 27.43115234 33.90454102 C15.94746007 27.28113825 4.47000565 20.64707556 -7 14 C-5.6926925 10.56068166 -4.18963666 7.38699095 -2.375 4.1875 C-1.92898437 3.39730469 -1.48296875 2.60710937 -1.0234375 1.79296875 C-0.68570313 1.20128906 -0.34796875 0.60960938 0 0 Z " fill="#000000" transform="translate(183,74)"/>
<path d="M0 0 C5.89203458 2.73045505 11.53347525 5.66525085 17.0390625 9.10546875 C18.35825684 9.9257959 18.35825684 9.9257959 19.70410156 10.76269531 C21.46782649 11.8686508 23.22268269 12.98889285 24.96777344 14.12402344 C25.79051758 14.63868164 26.61326172 15.15333984 27.4609375 15.68359375 C28.19103027 16.15337646 28.92112305 16.62315918 29.67333984 17.10717773 C32.86359869 18.33139354 34.72391352 17.89177288 38 17 C40.85857299 15.67432644 40.85857299 15.67432644 43.66015625 13.9453125 C44.70107422 13.33042969 45.74199219 12.71554688 46.81445312 12.08203125 C48.42223633 11.11330078 48.42223633 11.11330078 50.0625 10.125 C51.67608398 9.16787109 51.67608398 9.16787109 53.32226562 8.19140625 C57.14155785 5.92303554 60.95796067 3.65404497 64.72045898 1.29248047 C67 0 67 0 69 0 C70.7265625 2.51953125 70.7265625 2.51953125 72.625 5.8125 C73.25664062 6.89144531 73.88828125 7.97039062 74.5390625 9.08203125 C76 12 76 12 76 15 C75.32122803 15.37697021 74.64245605 15.75394043 73.94311523 16.14233398 C70.77313265 17.90480674 67.60520197 19.67093164 64.4375 21.4375 C62.72868652 22.38798218 62.72868652 22.38798218 60.98535156 23.35766602 C55.99526571 26.14609768 51.0230454 28.93723627 46.17578125 31.96875 C45.49781494 32.3922876 44.81984863 32.8158252 44.12133789 33.25219727 C42.90773577 34.02089111 41.70186213 34.80197908 40.50561523 35.59741211 C38.09643613 37.12450024 36.56821202 38.05385952 33.67675781 37.77978516 C30.55426906 36.87015098 28.0907549 35.54237607 25.28125 33.90234375 C24.18925293 33.2688501 23.09725586 32.63535645 21.97216797 31.98266602 C20.81462093 31.30121184 19.65723409 30.61948548 18.5 29.9375 C17.32334073 29.25077278 16.14641973 28.56449383 14.96923828 27.87866211 C7.24276759 23.36654993 -0.44153125 18.78907028 -8 14 C-7.04661031 12.03925516 -6.0871246 10.08147348 -5.125 8.125 C-4.59132812 7.03445312 -4.05765625 5.94390625 -3.5078125 4.8203125 C-2 2 -2 2 0 0 Z " fill="#000000" transform="translate(222,206)"/>
<path d="M0 0 C4.19887599 0.59366894 7.17730954 2.03332886 10.82421875 4.16796875 C11.93603516 4.81443359 13.04785156 5.46089844 14.19335938 6.12695312 C15.3581425 6.81368407 16.52285572 7.50053361 17.6875 8.1875 C18.82123047 8.84814453 19.95496094 9.50878906 21.12304688 10.18945312 C40.50700095 21.50700095 40.50700095 21.50700095 42 23 C42.0927833 24.38160115 42.11747043 25.76788038 42.11352539 27.15258789 C42.11344986 28.03342545 42.11337433 28.914263 42.11329651 29.8217926 C42.10813522 30.77907761 42.10297394 31.73636261 42.09765625 32.72265625 C42.0962413 33.69786728 42.09482635 34.67307831 42.09336853 35.67784119 C42.08775133 38.80609143 42.07519593 41.93427123 42.0625 45.0625 C42.05748722 47.17773334 42.05292393 49.29296781 42.04882812 51.40820312 C42.03777631 56.60549607 42.02050016 61.80273608 42 67 C36.72 67 31.44 67 26 67 C26 55.45 26 43.9 26 32 C24.35 31.34 22.7 30.68 21 30 C19.20314453 29.05111586 17.42254761 28.0710273 15.65625 27.06640625 C14.65722656 26.49986328 13.65820312 25.93332031 12.62890625 25.34960938 C11.59636719 24.75986328 10.56382812 24.17011719 9.5 23.5625 C8.46746094 22.97662109 7.43492187 22.39074219 6.37109375 21.78710938 C1.88489254 19.23721049 -2.58282738 16.6681276 -7 14 C-5.23570801 9.02790438 -2.6060834 4.56561939 0 0 Z " fill="#000000" transform="translate(165,304)"/>
<path d="M0 0 C1.640625 2.3984375 1.640625 2.3984375 3.25 5.375 C3.79140625 6.35210937 4.3328125 7.32921875 4.890625 8.3359375 C6 11 6 11 5 14 C2.57910156 15.66992188 2.57910156 15.66992188 -0.609375 17.46875 C-1.17319885 17.79033081 -1.73702271 18.11191162 -2.31793213 18.4432373 C-4.12387573 19.47080531 -5.93664476 20.48557926 -7.75 21.5 C-8.95621124 22.18274276 -10.16194639 22.86632738 -11.3671875 23.55078125 C-13.59572588 24.81591987 -15.82727644 26.07497505 -18.06152344 27.33007812 C-19.0312207 27.88115234 -20.00091797 28.43222656 -21 29 C-22.40560181 29.62418823 -22.40560181 29.62418823 -23.83959961 30.26098633 C-26.3429646 31.89629715 -26.3429646 31.89629715 -26.65942383 35.27807617 C-26.70045484 36.61583869 -26.71472082 37.95459923 -26.70703125 39.29296875 C-26.72215256 39.99899734 -26.73727386 40.70502594 -26.75285339 41.43244934 C-26.79579489 43.68445609 -26.80457333 45.93512434 -26.8125 48.1875 C-26.83563972 49.71553054 -26.86100398 51.24352912 -26.88867188 52.77148438 C-26.95577552 56.51505464 -26.9766593 60.25487858 -27 64 C-32.28 64 -37.56 64 -43 64 C-43 50.14 -43 36.28 -43 22 C-29.75 14.4375 -29.75 14.4375 -25.65136719 12.09936523 C-24.54438477 11.46716064 -23.43740234 10.83495605 -22.296875 10.18359375 C-21.69260681 9.84017441 -21.08833862 9.49675507 -20.46575928 9.14292908 C-17.45373157 7.42622334 -14.46327781 5.68488151 -11.50585938 3.87548828 C-10.43658203 3.22692871 -9.36730469 2.57836914 -8.265625 1.91015625 C-7.31977539 1.32500244 -6.37392578 0.73984863 -5.39941406 0.13696289 C-3 -1 -3 -1 0 0 Z " fill="#000000" transform="translate(348,305)"/>
<path d="M0 0 C5.28 0 10.56 0 16 0 C16 2.64 16 5.28 16 8 C16.99580078 8.36351562 16.99580078 8.36351562 18.01171875 8.734375 C21.76694352 10.32482314 25.25855468 12.25620734 28.8125 14.25 C29.57353027 14.67458496 30.33456055 15.09916992 31.11865234 15.53662109 C41.82947157 21.54481776 52.41155111 27.77958961 63 34 C61.6571579 37.42699295 60.19179964 40.60919538 58.375 43.8125 C57.92898437 44.60269531 57.48296875 45.39289063 57.0234375 46.20703125 C56.68570313 46.79871094 56.34796875 47.39039063 56 48 C52.19439766 47.41933397 49.473423 46.33578266 46.17578125 44.3671875 C45.2412915 43.81506592 44.30680176 43.26294434 43.34399414 42.6940918 C42.34360107 42.0937915 41.34320801 41.49349121 40.3125 40.875 C38.1723596 39.60725448 36.03171551 38.34035897 33.890625 37.07421875 C32.77236328 36.41083496 31.65410156 35.74745117 30.50195312 35.06396484 C26.90731899 32.93893149 23.29233899 30.85018227 19.671875 28.76953125 C19.07461105 28.42623779 18.47734711 28.08294434 17.86198425 27.72924805 C14.94774909 26.05532079 12.03226041 24.38359364 9.11645508 22.71240234 C8.06868896 22.10992676 7.02092285 21.50745117 5.94140625 20.88671875 C5.01013916 20.35264404 4.07887207 19.81856934 3.11938477 19.26831055 C1 18 1 18 0 17 C-0.07325168 14.13732433 -0.09238205 11.299281 -0.0625 8.4375 C-0.05798828 7.63119141 -0.05347656 6.82488281 -0.04882812 5.99414062 C-0.03700518 3.99606244 -0.01906914 1.99802217 0 0 Z " fill="#000000" transform="translate(25,416)"/>
<path d="M0 0 C1.29212402 0.78358887 1.29212402 0.78358887 2.61035156 1.58300781 C3.57263672 2.15011475 4.53492188 2.71722168 5.52636719 3.30151367 C6.50798828 3.89456299 7.48960937 4.4876123 8.50097656 5.09863281 C10.35691902 6.14251961 12.21626797 7.18037488 14.07910156 8.21191406 C19.89800529 11.48713426 25.70362643 14.78542588 31.50097656 18.09863281 C32.32500977 18.56865723 33.14904297 19.03868164 33.99804688 19.52294922 C36.13065344 20.74554067 38.25494534 21.98109627 40.37597656 23.22363281 C40.99375977 23.57723877 41.61154297 23.93084473 42.24804688 24.29516602 C46.38504302 26.75083218 46.38504302 26.75083218 47.50097656 30.09863281 C46.06738281 33.01660156 46.06738281 33.01660156 44.06347656 36.28613281 C43.40476562 37.3728125 42.74605469 38.45949219 42.06738281 39.57910156 C41.55046875 40.41054687 41.03355469 41.24199219 40.50097656 42.09863281 C36.61984727 40.64315352 33.07808985 38.84849024 29.45800781 36.83300781 C28.88950607 36.51712708 28.32100433 36.20124634 27.73527527 35.87579346 C26.53521112 35.20816349 25.33594954 34.53908907 24.13745117 33.86865234 C22.33803523 32.86236673 20.53596418 31.86098165 18.73339844 30.86035156 C17.55813307 30.20564621 16.38300159 29.55070045 15.20800781 28.89550781 C14.06928223 28.26064453 12.93055664 27.62578125 11.75732422 26.97167969 C7.97701605 24.79725142 4.31593841 22.46510681 0.69116211 20.04101562 C-1.88999386 18.68480834 -1.88999386 18.68480834 -6.49902344 20.09863281 C-9.13902344 15.80863281 -11.77902344 11.51863281 -14.49902344 7.09863281 C-5.43871327 -1.96167735 -5.43871327 -1.96167735 0 0 Z " fill="#000000" transform="translate(258.4990234375,33.9013671875)"/>
<path d="M0 0 C5.28 0 10.56 0 16 0 C16 4.95 16 9.9 16 15 C14.37835938 15.93199219 12.75671875 16.86398437 11.0859375 17.82421875 C9.43794745 18.77286061 7.78996442 19.72151471 6.14212036 20.67041016 C4.96634232 21.34714499 3.79029745 22.02341646 2.61398315 22.69921875 C-3.79943133 26.38425996 -10.1915029 30.09512139 -16.51953125 33.92578125 C-17.51968262 34.5288208 -18.51983398 35.13186035 -19.55029297 35.75317383 C-21.44906919 36.90197679 -23.34280937 38.05915236 -25.23095703 39.2253418 C-26.50688721 39.99551636 -26.50688721 39.99551636 -27.80859375 40.78125 C-28.54907959 41.23564453 -29.28956543 41.69003906 -30.05249023 42.15820312 C-32 43 -32 43 -35 42 C-36.60546875 39.85546875 -36.60546875 39.85546875 -38.1875 37.1875 C-38.71730469 36.31480469 -39.24710937 35.44210937 -39.79296875 34.54296875 C-41 32 -41 32 -41 28 C-40.32122803 27.62302979 -39.64245605 27.24605957 -38.94311523 26.85766602 C-32.33713632 23.18482002 -25.7431264 19.49138708 -19.15966797 15.77832031 C-17.22925651 14.69184859 -15.29654381 13.60943675 -13.35986328 12.53417969 C-11.23059856 11.35080761 -9.11374509 10.14830163 -7 8.9375 C-6.3908374 8.60500244 -5.7816748 8.27250488 -5.15405273 7.92993164 C-3.29320608 6.89499382 -3.29320608 6.89499382 -1 5 C-0.67 3.35 -0.34 1.7 0 0 Z " fill="#000000" transform="translate(471,419)"/>
<path d="M0 0 C1.921875 2.5546875 1.921875 2.5546875 3.75 5.875 C4.36359375 6.96554688 4.9771875 8.05609375 5.609375 9.1796875 C7 12 7 12 7 14 C4.87767021 15.17176518 2.75242209 16.33754785 0.625 17.5 C0.02171875 17.83386719 -0.5815625 18.16773437 -1.203125 18.51171875 C-5.7734375 21 -5.7734375 21 -8 21 C-9.76171875 18.48046875 -9.76171875 18.48046875 -11.6875 15.1875 C-12.33074219 14.10855469 -12.97398437 13.02960938 -13.63671875 11.91796875 C-15 9 -15 9 -14 6 C-11.85546875 4.39453125 -11.85546875 4.39453125 -9.1875 2.8125 C-8.31480469 2.28269531 -7.44210938 1.75289062 -6.54296875 1.20703125 C-4 0 -4 0 0 0 Z " fill="#000000" transform="translate(216,58)"/>
<path d="M0 0 C1.67578125 2.36328125 1.67578125 2.36328125 3.3125 5.3125 C3.86550781 6.27800781 4.41851562 7.24351563 4.98828125 8.23828125 C6 11 6 11 5.44140625 13.1796875 C3.70856579 15.36804429 2.06891628 16.46875201 -0.375 17.8125 C-1.14585937 18.25207031 -1.91671875 18.69164063 -2.7109375 19.14453125 C-5 20 -5 20 -7.0859375 19.94140625 C-9.8444657 18.58466075 -10.73358322 16.76724136 -12.25 14.125 C-12.77078125 13.24070312 -13.2915625 12.35640625 -13.828125 11.4453125 C-15 9 -15 9 -15 6 C-12.48046875 4.140625 -12.48046875 4.140625 -9.1875 2.25 C-8.10855469 1.61578125 -7.02960938 0.9815625 -5.91796875 0.328125 C-3 -1 -3 -1 0 0 Z " fill="#000000" transform="translate(238,46)"/>
<path d="M0 0 C5.28 0 10.56 0 16 0 C16 5.28 16 10.56 16 16 C10.72 16 5.44 16 0 16 C0 10.72 0 5.44 0 0 Z " fill="#000000" transform="translate(471,394)"/>
<path d="M0 0 C5.28 0 10.56 0 16 0 C16 5.28 16 10.56 16 16 C10.72 16 5.44 16 0 16 C0 10.72 0 5.44 0 0 Z " fill="#000000" transform="translate(25,391)"/>
<path d="M0 0 C5.28 0 10.56 0 16 0 C16 5.28 16 10.56 16 16 C10.72 16 5.44 16 0 16 C0 10.72 0 5.44 0 0 Z " fill="#000000" transform="translate(471,369)"/>
<path d="M0 0 C5.28 0 10.56 0 16 0 C16 5.28 16 10.56 16 16 C10.72 16 5.44 16 0 16 C0 10.72 0 5.44 0 0 Z " fill="#000000" transform="translate(25,366)"/>
</svg>
