<?xml version="1.0" encoding="UTF-8"?>
<svg version="1.1" xmlns="http://www.w3.org/2000/svg" width="512" height="512">
<path d="M0 0 C1.01790619 0.00215515 2.03581238 0.0043103 3.08456421 0.00653076 C17.69363523 0.05620146 32.02575853 0.30709809 46.375 3.3125 C47.34985352 3.51117676 48.32470703 3.70985352 49.32910156 3.91455078 C97.7109774 14.03517194 141.69928269 35.9516877 177.375 70.3125 C178.3640332 71.26068604 178.3640332 71.26068604 179.37304688 72.22802734 C188.86130305 81.37247479 197.6012044 90.66984009 205.375 101.3125 C206.23306152 102.46355017 207.09113451 103.61459177 207.94921875 104.765625 C213.98736829 112.95680614 219.34595521 121.47054105 224.375 130.3125 C224.73948242 130.94430176 225.10396484 131.57610352 225.47949219 132.22705078 C247.08534998 169.97532572 256.85198095 212.74189997 256.6875 255.9375 C256.68534485 256.95540619 256.6831897 257.97331238 256.68096924 259.02206421 C256.63129854 273.63113523 256.38040191 287.96325853 253.375 302.3125 C253.07698486 303.77478027 253.07698486 303.77478027 252.77294922 305.26660156 C242.65232806 353.6484774 220.7358123 397.63678269 186.375 433.3125 C185.74287598 433.97185547 185.11075195 434.63121094 184.45947266 435.31054688 C175.31502521 444.79880305 166.01765991 453.5387044 155.375 461.3125 C154.22394983 462.17056152 153.07290823 463.02863451 151.921875 463.88671875 C143.73224019 469.92427396 135.22961724 475.30707302 126.375 480.3125 C125.66778809 480.7146875 124.96057617 481.116875 124.23193359 481.53125 C101.09654164 494.5566741 75.92537591 503.30551461 49.9375 508.625 C49.21860596 508.77235596 48.49971191 508.91971191 47.7590332 509.0715332 C33.08339502 511.86090125 18.55831162 512.66142619 3.64770508 512.62817383 C0.70811513 512.6250221 -2.2304558 512.64854926 -5.16992188 512.67382812 C-18.54306192 512.71848737 -31.43916711 511.51301542 -44.625 509.3125 C-46.33055054 509.03031616 -46.33055054 509.03031616 -48.07055664 508.74243164 C-91.33802759 500.97044532 -132.38793216 480.98345309 -165.625 452.3125 C-166.37007813 451.67828125 -167.11515625 451.0440625 -167.8828125 450.390625 C-181.38779833 438.57948485 -194.05918743 425.82889772 -204.625 411.3125 C-205.48149066 410.16255169 -206.33826433 409.01281411 -207.1953125 407.86328125 C-213.23534209 399.67315742 -218.61867614 391.16870382 -223.625 382.3125 C-224.0271875 381.60528809 -224.429375 380.89807617 -224.84375 380.16943359 C-237.8691741 357.03404164 -246.61801461 331.86287591 -251.9375 305.875 C-252.08485596 305.15610596 -252.23221191 304.43721191 -252.3840332 303.6965332 C-255.35789088 288.05024391 -255.99800362 272.57681954 -255.9375 256.6875 C-255.93534485 255.66959381 -255.9331897 254.65168762 -255.93096924 253.60293579 C-255.88129854 238.99386477 -255.63040191 224.66174147 -252.625 210.3125 C-252.42632324 209.33764648 -252.22764648 208.36279297 -252.02294922 207.35839844 C-241.90232806 158.9765226 -219.9858123 114.98821731 -185.625 79.3125 C-184.99287598 78.65314453 -184.36075195 77.99378906 -183.70947266 77.31445312 C-174.56502521 67.82619695 -165.26765991 59.0862956 -154.625 51.3125 C-153.47394983 50.45443848 -152.32290823 49.59636549 -151.171875 48.73828125 C-142.98224019 42.70072604 -134.47961724 37.31792698 -125.625 32.3125 C-124.91778809 31.9103125 -124.21057617 31.508125 -123.48193359 31.09375 C-100.34654164 18.0683259 -75.17537591 9.31948539 -49.1875 4 C-48.46860596 3.85264404 -47.74971191 3.70528809 -47.0090332 3.5534668 C-31.36274391 0.57960912 -15.88931954 -0.06050362 0 0 Z M-155.11328125 84.0234375 C-156.8049032 85.56510229 -158.51105651 87.09095444 -160.23046875 88.6015625 C-165.46879324 93.213824 -170.16728161 97.94990287 -174.625 103.3125 C-175.37265625 104.17230469 -176.1203125 105.03210938 -176.890625 105.91796875 C-206.43353102 140.33824133 -225.10799671 183.35145392 -230.625 228.3125 C-230.7192627 229.02494873 -230.81352539 229.73739746 -230.91064453 230.47143555 C-231.89310418 238.78543439 -231.86862819 247.13996453 -231.875 255.5 C-231.87567474 256.29762756 -231.87634949 257.09525513 -231.87704468 257.91705322 C-231.85919985 271.24530444 -231.12492368 284.19094936 -228.625 297.3125 C-228.36759033 298.6747168 -228.36759033 298.6747168 -228.10498047 300.06445312 C-219.91919774 341.93703608 -200.68529018 380.31062311 -171.9140625 411.80078125 C-170.37239771 413.4924032 -168.84654556 415.19855651 -167.3359375 416.91796875 C-162.723676 422.15629324 -157.98759713 426.85478161 -152.625 431.3125 C-151.76519531 432.06015625 -150.90539062 432.8078125 -150.01953125 433.578125 C-102.14594809 474.66800205 -40.50171845 492.12448469 21.88183594 488.08544922 C28.44511287 487.50705661 34.90455991 486.54525113 41.375 485.3125 C42.28314453 485.14089355 43.19128906 484.96928711 44.12695312 484.79248047 C85.99953608 476.60669774 124.37312311 457.37279018 155.86328125 428.6015625 C157.5549032 427.05989771 159.26105651 425.53404556 160.98046875 424.0234375 C166.21879324 419.411176 170.91728161 414.67509713 175.375 409.3125 C176.12265625 408.45269531 176.8703125 407.59289062 177.640625 406.70703125 C207.18353102 372.28675867 225.85799671 329.27354608 231.375 284.3125 C231.4692627 283.60005127 231.56352539 282.88760254 231.66064453 282.15356445 C232.64310418 273.83956561 232.61862819 265.48503547 232.625 257.125 C232.62567474 256.32737244 232.62634949 255.52974487 232.62704468 254.70794678 C232.60919985 241.37969556 231.87492368 228.43405064 229.375 215.3125 C229.20339355 214.40435547 229.03178711 213.49621094 228.85498047 212.56054688 C220.66919774 170.68796392 201.43529018 132.31437689 172.6640625 100.82421875 C171.12239771 99.1325968 169.59654556 97.42644349 168.0859375 95.70703125 C163.473676 90.46870676 158.73759713 85.77021839 153.375 81.3125 C152.51519531 80.56484375 151.65539062 79.8171875 150.76953125 79.046875 C116.34925867 49.50396898 73.33604608 30.82950329 28.375 25.3125 C27.3063269 25.17110596 27.3063269 25.17110596 26.21606445 25.02685547 C-39.40079994 17.27295478 -106.54223527 39.6461239 -155.11328125 84.0234375 Z " fill="#000000" transform="translate(255.625,-0.3125)"/>
<path d="M0 0 C6.44792457 5.7548655 10.46860927 12.5112046 11.30859375 21.1875 C11.67731309 40.27414822 6.57466467 57.29789879 1.0625 75.375 C-4.78658257 94.07096697 -4.78658257 94.07096697 -9.06640625 113.1640625 C-9.18708969 113.84109222 -9.30777313 114.51812195 -9.43211365 115.21566772 C-10.3799568 121.49420846 -10.45538066 128.46605388 -7 134 C-1.72799921 136.95338954 2.71669 137.4824669 8.6875 137.375 C9.47044434 137.36919922 10.25338867 137.36339844 11.06005859 137.35742188 C17.6474288 137.21154614 23.73212957 136.06471026 30 134 C29.71515154 135.73030291 29.42180062 137.45920714 29.125 139.1875 C28.96257812 140.15042969 28.80015625 141.11335937 28.6328125 142.10546875 C28.42398438 143.06066406 28.21515625 144.01585937 28 145 C27.72929687 146.30710937 27.72929687 146.30710937 27.453125 147.640625 C25.14231138 151.39259119 21.66715588 152.15843876 17.625 153.5625 C16.8107959 153.85987061 15.9965918 154.15724121 15.15771484 154.46362305 C12.77766833 155.32667806 10.38966338 156.16403269 8 157 C6.865625 157.41765625 5.73125 157.8353125 4.5625 158.265625 C-10.78842687 163.73643404 -29.43935222 166.01410094 -45 160 C-48.51886269 158.23562643 -51.7651506 156.23813381 -55 154 C-56.3921875 153.071875 -56.3921875 153.071875 -57.8125 152.125 C-63.35980678 146.7361877 -66.93854513 139.78418798 -67.30078125 132.00390625 C-67.3152563 130.52350311 -67.31894238 129.04295989 -67.3125 127.5625 C-67.33666992 126.50385742 -67.33666992 126.50385742 -67.36132812 125.42382812 C-67.3758451 108.83092119 -61.07208327 92.35575074 -56.4375 76.625 C-55.40596724 73.10991505 -54.37631191 69.59430291 -53.34986877 66.07772827 C-52.71535383 63.90525278 -52.07779481 61.73366315 -51.43663025 59.56314087 C-45.86275256 41.63141826 -45.86275256 41.63141826 -47 23.3125 C-48.91526459 20.14034303 -50.10640337 18.5495427 -53.66796875 17.40234375 C-63.12640853 15.77048563 -71.46768439 16.96913793 -80.453125 20.125 C-83 21 -83 21 -85 21 C-85.20033161 14.8326482 -84.89112059 9.03869491 -81 4 C-72.74568321 -1.38686852 -62.46818735 -3.65284998 -53 -6 C-52.0920166 -6.22880859 -51.1840332 -6.45761719 -50.24853516 -6.69335938 C-33.06244427 -10.81661393 -14.5928697 -11.15330249 0 0 Z " fill="#000000" transform="translate(282,222)"/>
<path d="M0 0 C8.31291353 4.98774812 13.78038851 10.38958521 16.69140625 19.76953125 C18.68804332 28.54719986 16.84589453 35.88560282 12.5625 43.6875 C7.14582447 50.45834441 -0.00625993 55.87130717 -8.6875 57.5 C-20.4776191 58.34611443 -30.2006312 57.08949504 -39.6875 49.5 C-46.62337951 42.93782089 -49.69476068 36.60843498 -50.125 27.0625 C-49.86714995 18.69409397 -46.76102869 11.30946223 -40.6875 5.5 C-28.58657065 -2.8069086 -13.97161206 -6.57487627 0 0 Z " fill="#000000" transform="translate(297.6875,130.5)"/>
</svg>
