<?xml version="1.0" encoding="UTF-8"?>
<svg version="1.1" xmlns="http://www.w3.org/2000/svg" width="512" height="512">
<path d="M0 0 C1.33285034 -0.01051392 1.33285034 -0.01051392 2.69262695 -0.02124023 C5.6183229 -0.03878886 8.54304489 -0.02720857 11.46875 -0.01367188 C13.50846542 -0.01636769 15.54817959 -0.02025085 17.58789062 -0.02526855 C21.85819765 -0.03115936 26.1281695 -0.02261394 30.3984375 -0.00390625 C35.86619751 0.01888287 41.33317211 0.00575757 46.80090332 -0.01819611 C51.01145319 -0.03266525 55.22181752 -0.02804293 59.43237305 -0.01768494 C61.44816176 -0.01502075 63.46396743 -0.01827656 65.47973633 -0.02760315 C68.29944337 -0.03778699 71.11788682 -0.02224194 73.9375 0 C74.76677002 -0.00809692 75.59604004 -0.01619385 76.45043945 -0.02453613 C81.75718816 0.05282978 84.74149025 1.03229433 88.96875 4.51757812 C93.71742708 9.73875548 93.50108704 14.47188443 93.359375 21.16601562 C93.35371521 22.17854401 93.34805542 23.19107239 93.34222412 24.23428345 C93.31991254 27.45420489 93.26972472 30.67299552 93.21875 33.89257812 C93.19867831 36.08136409 93.18042871 38.27016757 93.1640625 40.45898438 C93.12006505 45.8122319 93.05320518 51.1648242 92.96875 56.51757812 C93.79845306 56.49981323 94.62815613 56.48204834 95.48300171 56.46374512 C103.33807144 56.30282489 111.19258039 56.18133789 119.0489254 56.10308075 C123.08721128 56.06149249 127.12412491 56.0051755 131.16162109 55.9140625 C135.06508288 55.82653494 138.96723307 55.77918121 142.8716011 55.75856018 C144.35398617 55.74388407 145.83630692 55.71522429 147.31812668 55.67173767 C156.25978206 55.4199901 162.25001251 56.15213084 169.0032196 62.5146637 C169.65184464 63.17562546 170.30046967 63.83658722 170.96875 64.51757812 C172.10262879 65.48720665 173.24610516 66.44581827 174.40234375 67.38867188 C175.39363281 68.23558594 176.38492188 69.0825 177.40625 69.95507812 C182.28683306 74.10951687 187.20944869 78.20425331 192.1953125 82.23242188 C194.22448536 83.90434599 196.2089855 85.59592651 198.1796875 87.33398438 C198.71779053 87.8018335 199.25589355 88.26968262 199.81030273 88.75170898 C201.32759226 90.07402785 202.83403478 91.40876276 204.33984375 92.74414062 C206.71974113 94.7322836 206.71974113 94.7322836 208.984375 94.41601562 C209.63921875 94.11953125 210.2940625 93.82304687 210.96875 93.51757812 C211.81050781 93.20820313 212.65226563 92.89882812 213.51953125 92.58007812 C214.43089844 92.22945313 215.34226563 91.87882812 216.28125 91.51757812 C220.57014244 89.93080291 224.4235187 88.92159868 228.96875 88.51757812 C229.21464769 83.72911398 229.41925797 79.2616909 226.23764038 75.43606567 C223.77920972 73.52037747 221.26362642 71.86767518 218.60546875 70.24023438 C217.66194046 69.62160019 216.71841217 69.002966 215.74629211 68.36558533 C212.7371434 66.40235261 209.69902139 64.49068911 206.65625 62.58007812 C203.63201687 60.6340896 200.6144401 58.67815836 197.5983429 56.71958923 C195.72257538 55.50672617 193.84075837 54.3031554 191.95231628 53.11012268 C191.09495377 52.56532761 190.23759125 52.02053253 189.35424805 51.45922852 C188.60225632 50.98610733 187.85026459 50.51298615 187.07548523 50.02552795 C184.75568116 48.36506863 182.84791675 46.66548915 180.96875 44.51757812 C180.51464844 41.49316406 180.51464844 41.49316406 180.578125 38.00195312 C180.59101563 36.7515625 180.60390625 35.50117188 180.6171875 34.21289062 C180.66746094 32.25996094 180.66746094 32.25996094 180.71875 30.26757812 C180.73679688 28.95015625 180.75484375 27.63273437 180.7734375 26.27539062 C180.82058118 23.02247656 180.89232384 19.76993596 180.96875 16.51757812 C186.24875 16.51757812 191.52875 16.51757812 196.96875 16.51757812 C196.7936792 17.7100415 196.6186084 18.90250488 196.43823242 20.13110352 C195.90261289 26.40343354 195.60037054 32.61075805 199.75836182 37.71405029 C205.64946492 42.99508697 212.50586434 46.92802094 219.28125 50.95507812 C221.31828291 52.22565128 223.35153873 53.50230125 225.38085938 54.78515625 C228.23648178 56.58943827 231.094258 58.38301389 233.98518372 60.13023376 C234.84254623 60.64920731 235.69990875 61.16818085 236.58325195 61.70288086 C237.33524368 62.15187241 238.08723541 62.60086395 238.86201477 63.0634613 C244.6840799 67.08198377 244.6840799 67.08198377 245.42285156 70.80761719 C245.39143066 72.03303223 245.39143066 72.03303223 245.359375 73.28320312 C245.34003906 74.61738281 245.34003906 74.61738281 245.3203125 75.97851562 C245.27003906 77.35910156 245.27003906 77.35910156 245.21875 78.76757812 C245.20070313 79.7034375 245.18265625 80.63929688 245.1640625 81.60351562 C245.11700673 83.90924828 245.05128713 86.21288757 244.96875 88.51757812 C245.64373535 88.62972656 246.3187207 88.741875 247.01416016 88.85742188 C257.09812522 90.58645446 264.66539971 94.68189017 272.96875 100.51757812 C273.95875 101.17757812 274.94875 101.83757812 275.96875 102.51757812 C276.1092981 101.54123413 276.1092981 101.54123413 276.25268555 100.54516602 C277.20623134 96.51348467 278.78914621 92.87368999 280.42578125 89.07617188 C280.94213387 87.86913353 280.94213387 87.86913353 281.46891785 86.63771057 C282.19683874 84.94136782 282.92739037 83.24615184 283.66040039 81.55200195 C284.77703333 78.96484782 285.87807989 76.3714212 286.97851562 73.77734375 C287.68915887 72.12654587 288.40071707 70.4761415 289.11328125 68.82617188 C289.60257866 67.66667274 289.60257866 67.66667274 290.10176086 66.48374939 C293.4398586 58.8516212 293.4398586 58.8516212 296.96875 56.51757812 C299.8584012 56.16847763 302.3546771 56.04942192 305.234375 56.12695312 C306.02777283 56.13261292 306.82117065 56.13827271 307.63861084 56.144104 C310.16594473 56.16644666 312.69184665 56.21663637 315.21875 56.26757812 C316.93487532 56.28764598 318.65102292 56.30589626 320.3671875 56.32226562 C324.5682578 56.36630417 328.76826135 56.43531486 332.96875 56.51757812 C332.94780273 55.88255371 332.92685547 55.2475293 332.90527344 54.59326172 C332.82170419 51.69319736 332.76996226 48.79338697 332.71875 45.89257812 C332.68523437 44.89355469 332.65171875 43.89453125 332.6171875 42.86523438 C332.53826154 36.90632449 332.72323969 33.086422 336.96875 28.51757812 C342.33129836 23.94044024 346.74250277 23.94436314 353.46875 24 C354.51337402 23.99299072 355.55799805 23.98598145 356.63427734 23.97875977 C360.07937381 23.9611879 363.52364551 23.97280031 366.96875 23.98632812 C369.3671891 23.983633 371.76562714 23.9797504 374.1640625 23.97473145 C379.18760595 23.96883746 384.21086467 23.97739654 389.234375 23.99609375 C395.67064072 24.01888275 402.10623922 24.00575921 408.54248047 23.98180389 C413.49419168 23.96734351 418.44574495 23.97195312 423.39746094 23.98231506 C425.77050862 23.98498166 428.14357068 23.98171498 430.51660156 23.97239685 C433.83437028 23.96222781 437.15106145 23.97773879 440.46875 24 C441.93707275 23.98785461 441.93707275 23.98785461 443.43505859 23.97546387 C449.09810479 24.04578731 452.5933214 24.56573088 456.96875 28.51757812 C460.78490622 33.04184399 461.47219092 36.22190832 461.48632812 42.08007812 C461.49684204 43.17884277 461.49684204 43.17884277 461.50756836 44.29980469 C461.52508397 46.70612195 461.51354954 49.11125021 461.5 51.51757812 C461.50269679 53.19856999 461.50658077 54.87956033 461.51159668 56.56054688 C461.51748298 60.07762556 461.50895709 63.59429692 461.49023438 67.11132812 C461.46744501 71.61060002 461.4805728 76.10891739 461.50452423 80.6081543 C461.51900591 84.07754659 461.51436544 87.54671407 461.50401306 91.01611328 C461.50135231 92.67464309 461.50459257 94.33319357 461.51393127 95.99169922 C461.52413646 98.31337233 461.50854279 100.63351823 461.48632812 102.95507812 C461.48314575 104.27378906 461.47996338 105.5925 461.47668457 106.95117188 C460.72794381 112.20837209 458.28340188 115.232708 454.5546875 118.87695312 C448.99847789 121.41900981 443.61981953 120.93732656 437.59375 120.76757812 C436.38074219 120.74953125 435.16773438 120.73148437 433.91796875 120.71289062 C430.9340821 120.66590028 427.95182721 120.60021184 424.96875 120.51757812 C425.39317383 121.6227478 425.39317383 121.6227478 425.82617188 122.75024414 C426.19291016 123.72662842 426.55964844 124.7030127 426.9375 125.70898438 C427.30294922 126.67263916 427.66839844 127.63629395 428.04492188 128.62915039 C429.28833777 132.51679665 430.04574861 136.51842887 428.96875 140.51757812 C426.88395586 143.10079852 425.68966882 144.37565235 422.38867188 145.0255127 C420.9278418 145.03028625 420.9278418 145.03028625 419.4375 145.03515625 C418.32955078 145.04776489 417.22160156 145.06037354 416.08007812 145.07336426 C414.2924707 145.06121887 414.2924707 145.06121887 412.46875 145.04882812 C410.62700195 145.05456848 410.62700195 145.05456848 408.74804688 145.0604248 C406.15233541 145.06314654 403.55659664 145.05576724 400.9609375 145.0390625 C396.98375401 145.01765887 393.00837718 145.03885775 389.03125 145.06445312 C386.51041267 145.0618099 383.98957647 145.05668503 381.46875 145.04882812 C380.27701172 145.05692505 379.08527344 145.06502197 377.85742188 145.07336426 C376.19549805 145.05445129 376.19549805 145.05445129 374.5 145.03515625 C373.52611328 145.03197388 372.55222656 145.0287915 371.54882812 145.0255127 C368.24783118 144.37565235 367.05354414 143.10079852 364.96875 140.51757812 C363.5948467 135.41595189 365.18309048 130.50000173 367 125.70898438 C367.36673828 124.7326001 367.73347656 123.75621582 368.11132812 122.75024414 C368.53575195 121.64507446 368.53575195 121.64507446 368.96875 120.51757812 C368.21255371 120.53852539 367.45635742 120.55947266 366.67724609 120.58105469 C363.232884 120.66448397 359.78873493 120.71632436 356.34375 120.76757812 C355.15394531 120.80109375 353.96414063 120.83460938 352.73828125 120.86914062 C341.54909318 120.99415949 341.54909318 120.99415949 336.96875 116.51757812 C332.81470318 111.45545953 332.41652591 107.88295784 332.578125 101.61914062 C332.58378479 100.7841806 332.58944458 99.94922058 332.59527588 99.08895874 C332.61754777 96.43956547 332.66772477 93.79155797 332.71875 91.14257812 C332.73882698 89.33921233 332.75707565 87.5358252 332.7734375 85.73242188 C332.81397018 81.32651927 332.89227154 76.92358737 332.96875 72.51757812 C324.38875 72.84757812 315.80875 73.17757812 306.96875 73.51757812 C304.12100098 79.47499717 301.31282741 85.43090689 298.57641602 91.4375 C297.63892372 93.47074785 296.68347833 95.49582542 295.70922852 97.51171875 C288.95369553 110.53656788 288.95369553 110.53656788 289.13264465 124.66479492 C290.23655501 127.71155302 291.57922509 130.59054857 292.96875 133.51757812 C292.96875 134.50757813 292.96875 135.49757812 292.96875 136.51757812 C293.62359375 136.59234375 294.2784375 136.66710937 294.953125 136.74414062 C308.79797004 138.73873694 320.42793724 145.85780828 329.48046875 156.45898438 C340.17037968 170.8594429 342.91885953 185.93669286 340.96875 203.51757812 C339.29762666 213.07501614 335.04159772 221.01499236 328.96875 228.51757812 C327.8240625 230.09539062 327.8240625 230.09539062 326.65625 231.70507812 C320.90466639 237.72417725 313.64017375 242.31249586 305.96875 245.51757812 C305.29199219 245.81664062 304.61523438 246.11570312 303.91796875 246.42382812 C297.98019889 248.63895471 292.36292241 248.67194329 286.11328125 248.59570312 C285.23273071 248.59006348 284.35218018 248.58442383 283.44494629 248.57861328 C281.28616797 248.56397253 279.1274448 248.54155622 276.96875 248.51757812 C276.97243717 249.17595704 276.97612434 249.83433596 276.97992325 250.51266575 C277.06833212 266.54622008 277.13448762 282.5796894 277.17599869 298.61342716 C277.19660768 306.36729255 277.22469626 314.12099504 277.27050781 321.87475586 C277.31042677 328.63440752 277.33619491 335.39394118 277.34510398 342.15370744 C277.35031025 345.73168482 277.36251155 349.30932468 277.39167023 352.88719368 C277.42398835 356.88531472 277.42470619 360.88285221 277.42285156 364.88110352 C277.43723267 366.06218185 277.45161377 367.24326019 277.46643066 368.46012878 C277.42796438 376.12062678 276.50193774 380.69770629 271.1875 386.44335938 C270.6203125 386.90097656 270.053125 387.35859375 269.46875 387.83007812 C268.61796875 388.53583984 268.61796875 388.53583984 267.75 389.25585938 C263.251803 392.44208225 259.54619179 392.81476565 254.09838867 392.80810547 C253.30925583 392.81482269 252.52012299 392.82153992 251.70707703 392.82846069 C249.10022673 392.8474463 246.49363388 392.85136534 243.88671875 392.85351562 C242.07074376 392.85994385 240.25476981 392.86667223 238.438797 392.87368774 C234.63161825 392.8856624 230.82453024 392.88936844 227.01733398 392.88818359 C222.14826101 392.88798055 217.27977267 392.91526658 212.41083813 392.94972801 C208.65921884 392.97201121 204.90773985 392.97602068 201.15606117 392.97496414 C199.36157532 392.97731858 197.56708551 392.98613324 195.77266502 393.00162888 C193.2571306 393.02131521 190.74285133 393.01544077 188.22729492 393.00341797 C187.49198547 393.01465698 186.75667603 393.025896 185.99908447 393.03747559 C179.75196629 392.9619398 175.61236834 390.96279103 171.04296875 386.73632812 C170.58535156 386.16914063 170.12773437 385.60195313 169.65625 385.01757812 C169.18574219 384.45039063 168.71523437 383.88320313 168.23046875 383.29882812 C165.5546225 379.52116283 164.7191861 376.79342206 164.72824097 372.13922119 C164.72411697 370.5028344 164.72411697 370.5028344 164.71990967 368.83338928 C164.7306955 367.04559303 164.7306955 367.04559303 164.74169922 365.22167969 C164.74140717 363.96288498 164.74111511 362.70409027 164.74081421 361.40715027 C164.74024053 357.9590928 164.75199724 354.51117457 164.76596212 351.06314945 C164.77846696 347.45834624 164.77963979 343.85353982 164.78201294 340.24871826 C164.78822843 333.4241638 164.80464018 326.59967344 164.82471192 319.7751472 C164.84706876 312.00495737 164.85806381 304.23476448 164.86810279 296.4645505 C164.88900636 280.48218925 164.92418368 264.49989196 164.96875 248.51757812 C163.02452148 248.54585693 163.02452148 248.54585693 161.04101562 248.57470703 C159.31901424 248.58995636 157.59700872 248.60474309 155.875 248.61914062 C155.02325195 248.63275635 154.17150391 248.64637207 153.29394531 248.66040039 C139.72590927 248.74536401 126.75214991 242.70591137 116.8203125 233.50976562 C112.05597174 228.3835762 108.56324864 223.00382472 105.96875 216.51757812 C100.35875 216.51757812 94.74875 216.51757812 88.96875 216.51757812 C88.30875 217.83757812 87.64875 219.15757812 86.96875 220.51757812 C86.07040381 221.80085822 85.14001373 223.0621319 84.18359375 224.30273438 C83.65314453 224.99818359 83.12269531 225.69363281 82.57617188 226.41015625 C81.45954959 227.86111223 80.34235854 229.31163069 79.22460938 230.76171875 C78.69544922 231.45587891 78.16628906 232.15003906 77.62109375 232.86523438 C76.89394165 233.80894897 76.89394165 233.80894897 76.15209961 234.77172852 C74.78420046 236.62037283 74.78420046 236.62037283 73.96875 239.51757812 C74.67451172 239.78401123 75.38027344 240.05044434 76.10742188 240.32495117 C81.44898695 242.55136289 86.41897107 245.51662986 91.46875 248.33007812 C92.59667969 248.94689453 93.72460938 249.56371094 94.88671875 250.19921875 C95.97597656 250.80572266 97.06523437 251.41222656 98.1875 252.03710938 C99.17685547 252.58471924 100.16621094 253.1323291 101.18554688 253.6965332 C104.68394632 255.98552983 108.35721186 258.47785154 109.59765625 262.61523438 C109.48180927 266.04294222 109.20042336 268.18661619 107.21875 271.01757812 C104.96875 272.51757812 104.96875 272.51757812 100.96875 272.51757812 C100.97763245 273.36060486 100.98651489 274.20363159 100.9956665 275.07220459 C101.0758205 283.01762006 101.13671841 290.96289971 101.17599869 298.90862656 C101.19687211 302.99362182 101.22518463 307.07828297 101.27050781 311.16308594 C101.3139753 315.10532158 101.33788895 319.0472359 101.34825897 322.98969269 C101.35564882 324.49362497 101.37007967 325.99753969 101.39167023 327.50133514 C101.42071812 329.60837272 101.42470571 331.71408341 101.42285156 333.82128906 C101.43173401 335.02041931 101.44061646 336.21954956 101.44976807 337.45501709 C100.96875 340.51757812 100.96875 340.51757812 99.5614624 342.90374756 C95.52861906 345.41398581 91.69194276 345.07480409 87.03125 345.03515625 C85.51845459 345.04567017 85.51845459 345.04567017 83.97509766 345.05639648 C80.63936886 345.07401031 77.30448752 345.06234122 73.96875 345.04882812 C71.65234209 345.05152205 69.33593528 345.05540364 67.01953125 345.0604248 C62.16395302 345.06632447 57.30866904 345.05774151 52.453125 345.0390625 C46.22510354 345.01627309 39.99777155 345.0293936 33.76977539 345.05335236 C28.98627515 345.06779745 24.20293873 345.06321018 19.41943359 345.05284119 C17.12288329 345.05017035 14.82631817 345.05345613 12.52978516 345.0627594 C9.3215386 345.07290339 6.11441294 345.05745296 2.90625 345.03515625 C1.95443848 345.04325317 1.00262695 345.0513501 0.02197266 345.05969238 C-6.29108386 344.97829361 -6.29108386 344.97829361 -9.6239624 342.90374756 C-11.50436458 339.71537425 -11.51273977 337.51869752 -11.48535156 333.82128906 C-11.48593567 333.15746216 -11.48651978 332.49363525 -11.48712158 331.80969238 C-11.48434265 329.62324074 -11.45326328 327.4381655 -11.421875 325.25195312 C-11.41441184 323.73310084 -11.40871926 322.2142389 -11.40472412 320.69537354 C-11.38947341 316.70354487 -11.35019723 312.71230115 -11.3059082 308.72070312 C-11.26494289 304.64526278 -11.24671046 300.56972764 -11.2265625 296.49414062 C-11.18370175 288.50168511 -11.11545804 280.50970444 -11.03125 272.51757812 C-11.98 272.41445313 -12.92875 272.31132812 -13.90625 272.20507812 C-17.03125 271.51757812 -17.03125 271.51757812 -19.03125 268.51757812 C-19.81715363 261.55671737 -19.81715363 261.55671737 -17.2734375 258.19335938 C-12.78333633 254.04621354 -7.06018945 251.44910659 -1.71875 248.58007812 C0.70832333 247.2592848 3.13165067 245.93169655 5.5546875 244.60351562 C6.47643013 244.0995652 6.47643013 244.0995652 7.41679382 243.58543396 C14.84888944 239.50957231 22.1496081 235.21293856 29.45239258 230.91040039 C30.85074341 230.0875354 30.85074341 230.0875354 32.27734375 229.24804688 C33.09001709 228.76746826 33.90269043 228.28688965 34.73999023 227.79174805 C39.5614253 225.03535966 43.2983479 223.6077748 48.96875 224.51757812 C51.46476916 225.65663449 53.63479585 227.0531363 55.96875 228.51757812 C56.95875 228.51757812 57.94875 228.51757812 58.96875 228.51757812 C60.60141082 226.86632563 60.60141082 226.86632563 62.11328125 224.64257812 C62.70818359 223.82144531 63.30308594 223.0003125 63.91601562 222.15429688 C64.83930664 220.84912109 64.83930664 220.84912109 65.78125 219.51757812 C66.99582101 217.82988181 68.21066231 216.14237998 69.42578125 214.45507812 C70.01697754 213.63007813 70.60817383 212.80507813 71.21728516 211.95507812 C72.8993142 209.61421139 74.58576875 207.27765815 76.29296875 204.95507812 C76.76178467 204.31441406 77.23060059 203.67375 77.71362305 203.01367188 C78.96875 201.51757812 78.96875 201.51757812 80.96875 200.51757812 C82.49023326 200.43385153 84.01530778 200.41027786 85.5390625 200.41992188 C86.43496094 200.42314453 87.33085938 200.42636719 88.25390625 200.4296875 C89.19105469 200.43806641 90.12820312 200.44644531 91.09375 200.45507812 C92.03863281 200.45958984 92.98351562 200.46410156 93.95703125 200.46875 C96.29433387 200.48055456 98.63151061 200.49702054 100.96875 200.51757812 C100.92234375 199.29683594 100.8759375 198.07609375 100.828125 196.81835938 C100.41792805 181.50849923 102.7720665 170.13249797 111.96875 157.51757812 C112.40703125 156.88335937 112.8453125 156.24914062 113.296875 155.59570312 C119.19626467 147.84831187 128.34421623 142.27379613 137.40625 139.08007812 C143.06761067 136.93113232 144.80144429 134.35939135 147.49609375 129.08007812 C152.08780236 121.09026155 161.12086761 115.54844741 169.82592773 112.96679688 C172.11987257 112.48589697 174.17333829 112.40409561 176.515625 112.41992188 C177.35996094 112.42314453 178.20429688 112.42636719 179.07421875 112.4296875 C179.94691406 112.43806641 180.81960937 112.44644531 181.71875 112.45507812 C182.60691406 112.45958984 183.49507812 112.46410156 184.41015625 112.46875 C186.59642329 112.48050412 188.78255179 112.49693564 190.96875 112.51757812 C191.62875 110.53757812 192.28875 108.55757813 192.96875 106.51757812 C181.57874843 96.4867166 181.57874843 96.4867166 169.79638672 86.92724609 C166.96875 84.51757812 166.96875 84.51757812 164.70092773 81.72583008 C158.33503699 74.6373408 152.87050596 72.85002071 143.36700439 72.31921387 C137.1756729 72.13877027 130.99082624 72.18748745 124.79882812 72.29870605 C121.20511179 72.35132599 117.6115952 72.34074246 114.01757812 72.3359375 C107.00027314 72.33564034 99.98521471 72.40404434 92.96875 72.51757812 C92.97763245 73.36060486 92.98651489 74.20363159 92.9956665 75.07220459 C93.0758205 83.01762006 93.13671841 90.96289971 93.17599869 98.90862656 C93.19687211 102.99362182 93.22518463 107.07828297 93.27050781 111.16308594 C93.3139753 115.10532158 93.33788895 119.0472359 93.34825897 122.98969269 C93.35564882 124.49362497 93.37007967 125.99753969 93.39167023 127.50133514 C93.42071812 129.60837272 93.42470571 131.71408341 93.42285156 133.82128906 C93.43173401 135.02041931 93.44061646 136.21954956 93.44976807 137.45501709 C92.96875 140.51757812 92.96875 140.51757812 91.5614624 142.90374756 C87.52861906 145.41398581 83.69194276 145.07480409 79.03125 145.03515625 C78.02271973 145.04216553 77.01418945 145.0491748 75.97509766 145.05639648 C72.63936886 145.07401031 69.30448752 145.06234122 65.96875 145.04882812 C63.65234209 145.05152205 61.33593528 145.05540364 59.01953125 145.0604248 C54.16395302 145.06632447 49.30866904 145.05774151 44.453125 145.0390625 C38.22510354 145.01627309 31.99777155 145.0293936 25.76977539 145.05335236 C20.98627515 145.06779745 16.20293873 145.06321018 11.41943359 145.05284119 C9.12288329 145.05017035 6.82631817 145.05345613 4.52978516 145.0627594 C1.3215386 145.07290339 -1.88558706 145.05745296 -5.09375 145.03515625 C-6.04556152 145.04325317 -6.99737305 145.0513501 -7.97802734 145.05969238 C-8.85281738 145.04841309 -9.72760742 145.03713379 -10.62890625 145.0255127 C-11.38695557 145.02400459 -12.14500488 145.02249649 -12.92602539 145.02094269 C-15.96732586 144.29376001 -17.15315444 142.98120357 -19.03125 140.51757812 C-19.53461456 138.0118885 -19.53461456 138.0118885 -19.53918457 135.14163208 C-19.55046387 134.05096436 -19.56174316 132.96029663 -19.57336426 131.83657837 C-19.56526733 130.64478973 -19.55717041 129.4530011 -19.54882812 128.22509766 C-19.5558374 126.96618713 -19.56284668 125.70727661 -19.57006836 124.41021729 C-19.5882994 120.95959137 -19.58123455 117.50944401 -19.56855202 114.05880976 C-19.5584186 110.44478226 -19.56781904 106.83079549 -19.57409668 103.21676636 C-19.58137399 97.1455755 -19.57178528 91.07457927 -19.55273438 85.00341797 C-19.53098486 77.99144332 -19.53800234 70.97993425 -19.56004 63.96797097 C-19.57821517 57.94317752 -19.58074145 51.91852394 -19.57028532 45.89371192 C-19.56405942 42.29745286 -19.56318922 38.70141229 -19.57643127 35.10516739 C-19.59017329 31.09278236 -19.57110578 27.08119431 -19.54882812 23.06884766 C-19.55692505 21.88110748 -19.56502197 20.69336731 -19.57336426 19.46963501 C-19.51062357 13.37146396 -19.43567833 9.1530605 -15.03125 4.51757812 C-10.11615274 0.23004942 -6.22349956 -0.06076573 0 0 Z M-3.03125 16.51757812 C-3.03125 42.91757813 -3.03125 69.31757813 -3.03125 96.51757812 C23.36875 96.51757812 49.76875 96.51757812 76.96875 96.51757812 C76.96875 70.11757812 76.96875 43.71757812 76.96875 16.51757812 C50.56875 16.51757812 24.16875 16.51757812 -3.03125 16.51757812 Z M348.96875 40.51757812 C348.96875 53.71757812 348.96875 66.91757813 348.96875 80.51757812 C380.64875 80.51757812 412.32875 80.51757812 444.96875 80.51757812 C444.96875 67.31757813 444.96875 54.11757812 444.96875 40.51757812 C413.28875 40.51757812 381.60875 40.51757812 348.96875 40.51757812 Z M348.96875 96.51757812 C348.96875 99.15757812 348.96875 101.79757813 348.96875 104.51757812 C380.64875 104.51757812 412.32875 104.51757812 444.96875 104.51757812 C444.96875 101.87757813 444.96875 99.23757812 444.96875 96.51757812 C413.28875 96.51757812 381.60875 96.51757812 348.96875 96.51757812 Z M208.59375 116.33007812 C205.33316712 119.85613644 202.65310094 123.67295524 200.09765625 127.73242188 C198.96875 129.51757812 198.96875 129.51757812 197.96875 130.51757812 C190.67463235 130.75287224 190.67463235 130.75287224 186.96875 129.51757812 C177.59738351 128.67068426 171.48166799 129.82519068 164.21875 135.76757812 C161.93624375 138.55730799 160.4466546 141.19438926 158.9609375 144.45507812 C158.63351563 145.13570312 158.30609375 145.81632812 157.96875 146.51757812 C157.58203125 147.37480469 157.1953125 148.23203125 156.796875 149.11523438 C154.34102048 152.34247909 151.60299388 152.95803915 147.84375 153.95507812 C136.18846139 157.47355061 127.77339359 163.61090736 121.359375 174.16601562 C116.48246588 184.16641916 116.12209973 196.0332925 119.59375 206.58007812 C124.04286886 216.86283186 131.99216221 225.51955143 142.48046875 229.74023438 C149.91193505 232.06183845 157.24063486 232.61740308 164.96875 232.51757812 C164.99453125 231.37160156 165.0203125 230.225625 165.046875 229.04492188 C165.10319343 227.51493782 165.1605399 225.98499137 165.21875 224.45507812 C165.23292969 223.70291016 165.24710938 222.95074219 165.26171875 222.17578125 C165.54288423 215.68085855 167.28399992 211.41595347 171.78515625 206.55664062 C172.64947266 205.85667969 172.64947266 205.85667969 173.53125 205.14257812 C174.11003906 204.66046875 174.68882812 204.17835938 175.28515625 203.68164062 C179.14377961 201.01372935 183.23685048 201.35677771 187.72558594 201.34057617 C188.51457275 201.33400497 189.30355957 201.32743378 190.11645508 201.32066345 C192.72867937 201.3009464 195.34084619 201.28927089 197.953125 201.27929688 C198.84630684 201.27522135 199.73948868 201.27114582 200.65973663 201.26694679 C205.38806425 201.24609199 210.11636291 201.2317882 214.84472656 201.22241211 C219.72164044 201.21135404 224.59809726 201.17695948 229.4748497 201.13724041 C233.2307417 201.11105894 236.98652508 201.10271888 240.74250031 201.09913063 C242.53978815 201.09426796 244.33707124 201.08266307 246.13426971 201.06409264 C248.65465708 201.03967008 251.17386576 201.04067166 253.69433594 201.04760742 C254.43121643 201.03479736 255.16809692 201.0219873 255.92730713 201.00878906 C262.2089524 201.07152726 266.34034131 203.08289677 270.9296875 207.33398438 C271.39632812 207.91019531 271.86296875 208.48640625 272.34375 209.08007812 C273.06691406 209.94826172 273.06691406 209.94826172 273.8046875 210.83398438 C275.73172901 213.62108133 276.11190881 216.23759544 276.28515625 219.52929688 C276.34799805 220.6652832 276.34799805 220.6652832 276.41210938 221.82421875 C276.45142578 222.60990234 276.49074219 223.39558594 276.53125 224.20507812 C276.57443359 225.00236328 276.61761719 225.79964844 276.66210938 226.62109375 C276.76802368 228.58639259 276.86887551 230.55196309 276.96875 232.51757812 C292.22397768 232.13476187 303.95577168 229.95889601 314.94140625 218.45117188 C322.51473329 209.46287078 324.86702154 199.97770063 324.34765625 188.38867188 C323.20887841 176.75435399 317.54696408 168.14351968 308.71875 160.70507812 C301.09302759 155.13094601 292.7562807 153.19138106 283.5 152.10742188 C280.54372684 151.41853723 279.6192891 151.06086165 277.96875 148.51757812 C277.39659878 145.97179417 276.95872618 143.52890202 276.59375 140.95507812 C274.63024849 129.28126424 270.04165011 120.42241025 260.96875 112.51757812 C255.78066287 109.24569403 251.17708378 106.51757812 244.96875 106.51757812 C244.7703566 110.84064667 244.62555379 115.16128159 244.52929688 119.48754883 C244.48916389 120.9574194 244.43463842 122.42697245 244.36523438 123.89575195 C243.6035576 132.23656711 243.6035576 132.23656711 246.68408203 139.51611328 C248.7620932 140.86123994 248.7620932 140.86123994 250.95556641 141.68676758 C254.97263421 143.34455096 257.2043028 146.95907486 259.078125 150.77929688 C261.19338666 157.28279872 261.24442406 165.71999878 258.40625 172.01757812 C255.03955376 177.58098397 250.15431206 181.55106995 243.96875 183.51757812 C236.1248671 184.32352069 228.37690533 184.61429702 221.96875 179.51757812 C217.26427086 175.06625481 214.30877929 170.82693296 213.6328125 164.24804688 C213.54179901 155.99312372 213.75808305 149.87478801 219.65234375 143.77539062 C222.65984441 141.0718739 225.30639777 139.34875424 228.96875 137.51757812 C228.96875 127.28757812 228.96875 117.05757812 228.96875 106.51757812 C221.26750616 106.51757812 214.05850213 111.06577057 208.59375 116.33007812 Z M-3.03125 112.51757812 C-3.03125 117.79757813 -3.03125 123.07757813 -3.03125 128.51757812 C23.36875 128.51757812 49.76875 128.51757812 76.96875 128.51757812 C76.96875 123.23757812 76.96875 117.95757812 76.96875 112.51757812 C50.56875 112.51757812 24.16875 112.51757812 -3.03125 112.51757812 Z M386.96875 120.51757812 C386.30875 123.15757812 385.64875 125.79757813 384.96875 128.51757812 C392.88875 128.51757812 400.80875 128.51757812 408.96875 128.51757812 C408.30875 125.87757813 407.64875 123.23757812 406.96875 120.51757812 C400.36875 120.51757812 393.76875 120.51757812 386.96875 120.51757812 Z M231.59375 155.14257812 C229.48168494 158.22944244 229.35679855 159.84586943 229.96875 163.51757812 C231.46875 166.01757812 231.46875 166.01757812 233.96875 167.51757812 C237.6404587 168.12952957 239.25688568 168.00464318 242.34375 165.89257812 C244.45581506 162.80571381 244.58070145 161.18928682 243.96875 157.51757812 C242.46875 155.01757812 242.46875 155.01757812 239.96875 153.51757812 C236.2970413 152.90562668 234.68061432 153.03051307 231.59375 155.14257812 Z M181.96875 219.51757812 C180.44170372 223.57167068 180.44170372 223.57167068 180.96875 232.51757812 C207.36875 232.51757812 233.76875 232.51757812 260.96875 232.51757812 C261.6179975 223.79944035 261.6179975 223.79944035 257.96875 217.51757812 C254.59740184 216.39379541 252.01955523 216.37690292 248.46533203 216.35644531 C247.80968262 216.35148041 247.1540332 216.3465155 246.47851562 216.34140015 C244.31118721 216.3268046 242.14393197 216.31998106 239.9765625 216.31445312 C238.46825153 216.3086997 236.95994058 216.30294199 235.45162964 216.29718018 C232.28920145 216.28667774 229.12679864 216.28083006 225.96435547 216.27734375 C221.91684551 216.27185932 217.86967199 216.24782949 213.82226753 216.2193718 C210.70640083 216.20072665 207.59061489 216.19553883 204.47469711 216.19400787 C202.98278844 216.19098525 201.49088106 216.18296984 199.99902725 216.16982269 C197.90941171 216.15272155 195.82061462 216.15465172 193.73095703 216.16113281 C192.54309601 216.15748718 191.35523499 216.15384155 190.13137817 216.15008545 C186.62324197 216.55772564 184.74399256 217.35790834 181.96875 219.51757812 Z M38.7421875 245.36132812 C37.7109375 245.94785156 36.6796875 246.534375 35.6171875 247.13867188 C34.53695312 247.75871094 33.45671875 248.37875 32.34375 249.01757812 C31.25578125 249.63761719 30.1678125 250.25765625 29.046875 250.89648438 C26.35196902 252.43305358 23.65939718 253.97356739 20.96875 255.51757812 C20.96875 255.84757813 20.96875 256.17757812 20.96875 256.51757812 C36.80875 256.51757812 52.64875 256.51757812 68.96875 256.51757812 C64.59617213 253.23814472 60.06723372 250.56194371 55.34375 247.83007812 C54.03664063 247.0634082 54.03664063 247.0634082 52.703125 246.28125 C51.87039062 245.79849609 51.03765625 245.31574219 50.1796875 244.81835938 C49.41962402 244.37661377 48.65956055 243.93486816 47.87646484 243.47973633 C44.11409107 241.58217874 42.18298842 243.39515617 38.7421875 245.36132812 Z M180.96875 248.51757812 C180.96875 280.19757813 180.96875 311.87757813 180.96875 344.51757812 C207.36875 344.51757812 233.76875 344.51757812 260.96875 344.51757812 C260.96875 312.83757812 260.96875 281.15757812 260.96875 248.51757812 C234.56875 248.51757812 208.16875 248.51757812 180.96875 248.51757812 Z M4.96875 272.51757812 C4.96875 290.99757813 4.96875 309.47757812 4.96875 328.51757812 C10.24875 328.51757812 15.52875 328.51757812 20.96875 328.51757812 C21.00613281 325.95363281 21.04351562 323.3896875 21.08203125 320.74804688 C21.12823836 318.26578217 21.17947485 315.78366876 21.23120117 313.30151367 C21.26446172 311.5760212 21.29249019 309.85041963 21.31518555 308.12475586 C21.34871153 305.64454647 21.40102406 303.16533782 21.45703125 300.68554688 C21.46342117 299.91357468 21.4698111 299.14160248 21.47639465 298.34623718 C21.62390348 292.97681817 21.62390348 292.97681817 23.24797058 290.81401062 C26.31839714 288.5007561 30.20673079 289.09271173 33.90625 289.11914062 C34.78273193 289.11627045 35.65921387 289.11340027 36.56225586 289.11044312 C38.41488288 289.10840214 40.26753142 289.11393435 42.12011719 289.12646484 C44.95817179 289.14251829 47.79480227 289.12661757 50.6328125 289.10742188 C52.43229481 289.1094043 54.23177624 289.11324796 56.03125 289.11914062 C56.88130615 289.11306793 57.7313623 289.10699524 58.60717773 289.10073853 C64.50913391 289.17130409 64.50913391 289.17130409 66.68952942 290.81401062 C68.86939559 293.71698859 68.4515305 297.18949123 68.48046875 300.68554688 C68.49841995 301.48035965 68.51637115 302.27517242 68.53486633 303.09407043 C68.5890197 305.63101913 68.62288028 308.16777919 68.65625 310.70507812 C68.68941874 312.42580753 68.72390799 314.14651203 68.75976562 315.8671875 C68.84723473 320.08401225 68.90725653 324.29997425 68.96875 328.51757812 C74.24875 328.51757812 79.52875 328.51757812 84.96875 328.51757812 C84.96875 310.03757812 84.96875 291.55757813 84.96875 272.51757812 C58.56875 272.51757812 32.16875 272.51757812 4.96875 272.51757812 Z M36.96875 304.51757812 C36.96875 312.43757813 36.96875 320.35757812 36.96875 328.51757812 C42.24875 328.51757812 47.52875 328.51757812 52.96875 328.51757812 C52.96875 320.59757812 52.96875 312.67757813 52.96875 304.51757812 C47.68875 304.51757812 42.40875 304.51757812 36.96875 304.51757812 Z M180.96875 360.51757812 C180.3195025 369.2357159 180.3195025 369.2357159 183.96875 375.51757812 C187.34009816 376.64136084 189.91794477 376.65825333 193.47216797 376.67871094 C194.12781738 376.68367584 194.7834668 376.68864075 195.45898438 376.6937561 C197.62631279 376.70835165 199.79356803 376.71517519 201.9609375 376.72070312 C203.46924847 376.72645655 204.97755942 376.73221426 206.48587036 376.73797607 C209.64829855 376.74847851 212.81070136 376.75432619 215.97314453 376.7578125 C220.02065449 376.76329693 224.06782801 376.78732676 228.11523247 376.81578445 C231.23109917 376.8344296 234.34688511 376.83961742 237.46280289 376.84114838 C238.95471156 376.844171 240.44661894 376.85218641 241.93847275 376.86533356 C244.02808829 376.8824347 246.11688538 376.88050453 248.20654297 376.87402344 C249.39440399 376.87766907 250.58226501 376.8813147 251.80612183 376.8850708 C255.31425803 376.47743061 257.19350744 375.67724791 259.96875 373.51757812 C261.49579628 369.46348557 261.49579628 369.46348557 260.96875 360.51757812 C234.56875 360.51757812 208.16875 360.51757812 180.96875 360.51757812 Z " fill="#000000" transform="translate(35.03125,95.482421875)"/>
<path d="M0 0 C1.89755791 -0.02409439 1.89755791 -0.02409439 3.83345032 -0.04867554 C5.22123544 -0.06016247 6.60902808 -0.0707711 7.99682617 -0.08056641 C8.69483526 -0.08589008 9.39284435 -0.09121376 10.11200523 -0.09669876 C13.80708086 -0.12342455 17.50212278 -0.14280059 21.19726562 -0.15722656 C24.25388526 -0.17056466 27.30983707 -0.19841358 30.36621094 -0.23925781 C34.05794974 -0.28859275 37.74908293 -0.31334837 41.44113731 -0.32045364 C42.84657081 -0.32716353 44.25199093 -0.34237921 45.6572361 -0.36634445 C47.6267215 -0.398014 49.59667116 -0.39502974 51.56640625 -0.390625 C53.24613274 -0.40275528 53.24613274 -0.40275528 54.95979309 -0.41513062 C59.67110652 0.53416015 61.82938376 3.57594636 64.51953125 7.36523438 C64.94516357 8.07405762 65.3707959 8.78288086 65.80932617 9.51318359 C66.29852539 10.29564453 66.78772461 11.07810547 67.29174805 11.88427734 C68.29074052 13.50715168 69.27776574 15.13745358 70.25268555 16.77490234 C73.80639836 22.39580758 76.52766049 24.68127012 82.97729492 26.19287109 C84.32754761 26.54478516 84.32754761 26.54478516 85.70507812 26.90380859 C89.73892265 27.93677251 93.7850107 28.91105651 97.84057617 29.85498047 C98.82928711 30.09925781 99.81799805 30.34353516 100.83666992 30.59521484 C101.72837891 30.80654053 102.62008789 31.01786621 103.53881836 31.2355957 C106.67581567 32.46709014 108.03825088 33.40349043 109.97729492 36.19287109 C110.56107021 39.19481273 110.53788843 42.14231379 110.50854492 45.19287109 C110.51237183 46.06556641 110.51619873 46.93826172 110.5201416 47.83740234 C110.52285982 49.67986202 110.51550487 51.52236033 110.4987793 53.36474609 C110.4773674 56.18333043 110.49858293 58.99936594 110.52416992 61.81787109 C110.52152663 63.60954338 110.51640162 65.40121408 110.50854492 67.19287109 C110.51664185 68.03462891 110.52473877 68.87638672 110.53308105 69.74365234 C110.47183592 73.56941883 110.43086581 75.56416137 108.14624023 78.73095703 C105.09564677 80.78712021 102.86420036 80.58834731 99.22729492 80.44287109 C98.05682617 80.40677734 96.88635742 80.37068359 95.68041992 80.33349609 C94.78838867 80.28708984 93.89635742 80.24068359 92.97729492 80.19287109 C92.71303711 81.10681641 92.4487793 82.02076172 92.17651367 82.96240234 C90.06269725 88.65662444 85.96128861 91.93769141 80.91479492 95.13037109 C74.20421515 97.55954024 65.08409894 97.56878595 58.53979492 94.69287109 C52.95249269 91.3212232 48.55791309 86.51534376 46.97729492 80.19287109 C43.67729492 80.19287109 40.37729492 80.19287109 36.97729492 80.19287109 C36.69885742 81.46130859 36.69885742 81.46130859 36.41479492 82.75537109 C34.03330285 88.45024344 30.07370184 91.86657284 24.91479492 95.13037109 C18.20421515 97.55954024 9.08409894 97.56878595 2.53979492 94.69287109 C-2.1737196 91.84850888 -7.07050902 87.29154301 -8.71411133 81.94287109 C-8.81594727 81.36537109 -8.9177832 80.78787109 -9.02270508 80.19287109 C-9.91473633 80.23927734 -10.80676758 80.28568359 -11.72583008 80.33349609 C-12.89629883 80.36958984 -14.06676758 80.40568359 -15.27270508 80.44287109 C-16.43286133 80.48927734 -17.59301758 80.53568359 -18.78833008 80.58349609 C-22.02270508 80.19287109 -22.02270508 80.19287109 -24.16088867 78.78979492 C-26.99406853 74.83798085 -26.86154972 71.01685903 -27.04614258 66.25146484 C-27.08978943 65.26340851 -27.13343628 64.27535217 -27.17840576 63.25735474 C-27.29202284 60.04790787 -27.35429721 56.84150859 -27.39770508 53.63037109 C-27.41605408 52.54706512 -27.43440308 51.46375916 -27.45330811 50.34762573 C-27.61015312 30.47979087 -23.20074227 17.69492447 -9.90209961 3.02319336 C-6.66570326 -0.12869848 -4.42087896 0.0508795 0 0 Z M1.13354492 17.71630859 C-1.13009365 20.68635546 -1.13009365 20.68635546 -2.02270508 24.19287109 C3.25729492 24.19287109 8.53729492 24.19287109 13.97729492 24.19287109 C13.97729492 21.55287109 13.97729492 18.91287109 13.97729492 16.19287109 C7.15072395 15.20822591 7.15072395 15.20822591 1.13354492 17.71630859 Z M29.97729492 16.19287109 C29.97729492 18.83287109 29.97729492 21.47287109 29.97729492 24.19287109 C37.89729492 24.19287109 45.81729492 24.19287109 53.97729492 24.19287109 C51.80900603 19.93951153 51.80900603 19.93951153 48.97729492 16.19287109 C47.56159369 16.10635498 46.14169992 16.08582205 44.72338867 16.09521484 C43.44238281 16.10004883 43.44238281 16.10004883 42.13549805 16.10498047 C41.23766602 16.11335938 40.33983398 16.12173828 39.41479492 16.13037109 C38.5130957 16.13488281 37.61139648 16.13939453 36.68237305 16.14404297 C34.44728178 16.15586885 32.21232056 16.17234889 29.97729492 16.19287109 Z M-10.02270508 40.19287109 C-10.02270508 48.11287109 -10.02270508 56.03287109 -10.02270508 64.19287109 C-9.03270508 62.87287109 -8.04270508 61.55287109 -7.02270508 60.19287109 C0.60830324 50.35189255 0.60830324 50.35189255 6.97729492 49.19287109 C14.87087488 48.44872692 22.52097342 48.0428286 28.97729492 53.19287109 C32.41176705 56.51183407 34.94700686 59.8666498 36.97729492 64.19287109 C40.42381805 64.6747151 43.55079392 64.88450689 46.97729492 64.19287109 C48.75825349 62.36749959 49.69423679 60.57113816 50.83666992 58.29833984 C53.4330307 53.50574237 57.88384289 50.84951455 62.97729492 49.19287109 C70.80619278 48.38846821 78.58760209 48.0840957 84.97729492 53.19287109 C87.1979519 55.38303851 89.11827606 57.69224395 90.97729492 60.19287109 C91.96729492 61.51287109 92.95729492 62.83287109 93.97729492 64.19287109 C93.97729492 58.58287109 93.97729492 52.97287109 93.97729492 47.19287109 C79.07239436 41.86969232 65.85992277 39.60083083 50.13354492 39.80224609 C48.38521989 39.80973048 46.63688632 39.81541297 44.8885498 39.81939697 C40.34454111 39.8344808 35.80106513 39.8736077 31.25726318 39.91821289 C26.59760743 39.95954384 21.93786341 39.97748774 17.27807617 39.99755859 C8.17754714 40.04012386 -0.92245081 40.11032623 -10.02270508 40.19287109 Z M8.60229492 66.81787109 C6.49022986 69.90473541 6.36534347 71.5211624 6.97729492 75.19287109 C8.47729492 77.69287109 8.47729492 77.69287109 10.97729492 79.19287109 C14.64900362 79.80482254 16.26543061 79.67993615 19.35229492 77.56787109 C21.46435998 74.48100678 21.58924637 72.86457979 20.97729492 69.19287109 C19.47729492 66.69287109 19.47729492 66.69287109 16.97729492 65.19287109 C13.30558622 64.58091964 11.68915924 64.70580604 8.60229492 66.81787109 Z M64.60229492 66.81787109 C62.49022986 69.90473541 62.36534347 71.5211624 62.97729492 75.19287109 C64.47729492 77.69287109 64.47729492 77.69287109 66.97729492 79.19287109 C70.64900362 79.80482254 72.26543061 79.67993615 75.35229492 77.56787109 C77.46435998 74.48100678 77.58924637 72.86457979 76.97729492 69.19287109 C75.47729492 66.69287109 75.47729492 66.69287109 72.97729492 65.19287109 C69.30558622 64.58091964 67.68915924 64.70580604 64.60229492 66.81787109 Z " fill="#000000" transform="translate(386.022705078125,351.80712890625)"/>
<path d="M0 0 C1.19874756 -0.00571014 2.39749512 -0.01142029 3.63256836 -0.01730347 C4.96803273 -0.01854888 6.30349722 -0.01967397 7.63896179 -0.02069092 C9.03999462 -0.02531829 10.44102619 -0.03034284 11.84205627 -0.03573608 C15.65413497 -0.04887075 19.46619605 -0.05530722 23.27829385 -0.05974674 C25.65932913 -0.06267602 28.04035958 -0.06678058 30.42139244 -0.07125092 C37.86926861 -0.08492926 45.31713376 -0.09459401 52.76502162 -0.09845281 C61.36574786 -0.10293319 69.96631515 -0.12047866 78.56699306 -0.1494534 C85.21249509 -0.17106495 91.85795239 -0.18115682 98.5034892 -0.18249393 C102.47364386 -0.18354243 106.44364916 -0.18945956 110.41376686 -0.20731354 C114.14923921 -0.22378499 117.88444981 -0.22595436 121.61994553 -0.21717453 C123.64313406 -0.21603623 125.66631387 -0.22976115 127.68945312 -0.243927 C129.50026367 -0.23557327 129.50026367 -0.23557327 131.34765625 -0.22705078 C132.91864311 -0.22925062 132.91864311 -0.22925062 134.52136707 -0.2314949 C139.03418698 0.35891004 142.46939385 2.66655021 145.36430359 6.14044189 C146.41133041 9.28152236 146.50976401 11.53528139 146.54130554 14.83355713 C146.5605584 16.58568764 146.5605584 16.58568764 146.5802002 18.37321472 C146.58758713 19.63573563 146.59497406 20.89825653 146.60258484 22.19903564 C146.61065659 23.49487076 146.61872833 24.79070587 146.62704468 26.12580872 C146.64205399 28.86872221 146.65190152 31.61160996 146.6594696 34.35455322 C146.67054849 37.86645987 146.70497241 41.37773541 146.7446413 44.8894186 C146.77707336 48.24259934 146.78158222 51.59571015 146.79008484 54.94903564 C146.80759293 56.20953232 146.82510101 57.47002899 146.84313965 58.76872253 C146.8387513 60.52558128 146.8387513 60.52558128 146.83427429 62.31793213 C146.84014053 63.34812973 146.84600677 64.37832733 146.85205078 65.43974304 C146.21832888 68.94871663 145.14413437 69.94473545 142.36430359 72.14044189 C139.50944519 72.64380646 139.50944519 72.64380646 136.13969421 72.64837646 C134.86102478 72.65965576 133.58235535 72.67093506 132.26493835 72.68255615 C130.85014117 72.67477913 129.43534622 72.66658646 128.02055359 72.65802002 C126.5289288 72.66344081 125.03730936 72.67056323 123.54570007 72.67926025 C119.49607731 72.69750193 115.44686198 72.69042279 111.39723206 72.67774391 C107.16033323 72.66762054 102.9234694 72.67700774 98.68656921 72.68328857 C91.57127109 72.69056693 84.45613901 72.68097241 77.34086609 72.66192627 C69.11327559 72.64015709 60.88608156 72.64720833 52.65850067 72.66923189 C45.59596105 72.6873806 38.53354082 72.68994683 31.47098541 72.67947721 C27.25217184 72.67323934 23.03354466 72.67241463 18.81474304 72.68562317 C14.84849986 72.69717345 10.8827681 72.68917151 6.9165802 72.66604614 C5.46051381 72.66075457 4.00440442 72.66228055 2.5483551 72.6710968 C0.56188996 72.68201624 -1.42466917 72.6658989 -3.41108704 72.64837646 C-5.07911377 72.64611431 -5.07911377 72.64611431 -6.78083801 72.64380646 C-10.30076934 72.02317718 -11.48154252 70.9423159 -13.63569641 68.14044189 C-14.15708923 65.42869568 -14.15708923 65.42869568 -14.18501282 62.28961182 C-14.20407684 61.11126266 -14.22314087 59.93291351 -14.24278259 58.71885681 C-14.24004837 56.81412346 -14.24004837 56.81412346 -14.23725891 54.87091064 C-14.24582916 53.56140945 -14.25439941 52.25190826 -14.26322937 50.90272522 C-14.27813986 48.13113208 -14.27758407 45.36004843 -14.26704407 42.58843994 C-14.255478 39.05054296 -14.28925644 35.51474825 -14.33573341 31.9771986 C-14.37244125 28.58751801 -14.3648342 25.19828852 -14.36225891 21.80841064 C-14.38067841 20.5446611 -14.3990979 19.28091156 -14.41807556 17.97886658 C-14.31513466 8.16365559 -14.31513466 8.16365559 -10.71528625 3.84869385 C-7.19336953 0.40937304 -4.89697214 0.01392366 0 0 Z M2.36430359 16.14044189 C2.36430359 29.34044189 2.36430359 42.54044189 2.36430359 56.14044189 C7.64430359 56.14044189 12.92430359 56.14044189 18.36430359 56.14044189 C18.4016864 54.73149658 18.43906921 53.32255127 18.47758484 51.87091064 C18.54323855 50.0232275 18.6096861 48.17557244 18.67680359 46.32794189 C18.69936218 45.39917236 18.72192078 44.47040283 18.74516296 43.51348877 C18.78061218 42.62081299 18.8160614 41.72813721 18.85258484 40.80841064 C18.87876892 39.98623047 18.904953 39.16405029 18.93193054 38.31695557 C19.4960428 35.47728262 19.97256952 34.80376486 22.36430359 33.14044189 C25.22687507 32.84422298 27.87191523 32.7307203 30.73539734 32.7522583 C32.01629745 32.74437286 32.01629745 32.74437286 33.32307434 32.73632812 C36.14950276 32.72311 38.9753693 32.73187257 41.80180359 32.74200439 C43.76331185 32.73998418 45.72481939 32.73707318 47.68632507 32.73330688 C51.79878383 32.72888108 55.91104721 32.73532288 60.02348328 32.74932861 C65.29982046 32.7664206 70.57569988 32.7565808 75.85202026 32.73861122 C79.90287232 32.72778034 83.95361552 32.73121653 88.00447083 32.7389946 C89.95017043 32.74099853 91.89587986 32.73853058 93.84156799 32.73155594 C96.55904899 32.72395293 99.27578449 32.73552937 101.99320984 32.7522583 C102.80057587 32.74618561 103.60794189 32.74011292 104.43977356 32.7338562 C109.86887895 32.79590059 109.86887895 32.79590059 112.36047363 34.52867126 C113.70412973 36.68607394 113.79532115 38.27439345 113.87602234 40.80841064 C113.91147156 41.70108643 113.94692078 42.59376221 113.98344421 43.51348877 C114.00600281 44.4422583 114.0285614 45.37102783 114.05180359 46.32794189 C114.08596375 47.26831299 114.1201239 48.20868408 114.15531921 49.17755127 C114.2377751 51.4980955 114.30271661 53.81925006 114.36430359 56.14044189 C119.64430359 56.14044189 124.92430359 56.14044189 130.36430359 56.14044189 C130.36430359 42.94044189 130.36430359 29.74044189 130.36430359 16.14044189 C88.12430359 16.14044189 45.88430359 16.14044189 2.36430359 16.14044189 Z M34.36430359 48.14044189 C34.36430359 50.78044189 34.36430359 53.42044189 34.36430359 56.14044189 C55.48430359 56.14044189 76.60430359 56.14044189 98.36430359 56.14044189 C98.36430359 53.50044189 98.36430359 50.86044189 98.36430359 48.14044189 C77.24430359 48.14044189 56.12430359 48.14044189 34.36430359 48.14044189 Z " fill="#000000" transform="translate(189.6356964111328,23.85955810546875)"/>
<path d="M0 0 C8.34468007 4.97590182 13.53387008 11.86345977 16.109375 21.2578125 C17.10789012 32.35758522 16.45884702 41.9922991 9.359375 51.0703125 C3.70168013 57.1280464 -3.34488592 60.84888618 -11.625 61.59375 C-22.35447774 61.83515993 -31.19802606 60.58332943 -39.359375 52.9609375 C-46.75303791 44.73737365 -48.47252567 36.02335615 -48.203125 25.24609375 C-47.72879865 16.86039919 -44.11592977 9.8548755 -37.890625 4.2578125 C-27.15195714 -3.81766573 -12.32399863 -5.91386512 0 0 Z M-29.265625 20.8828125 C-31.46970393 25.46051489 -31.6877889 29.26333661 -30.890625 34.2578125 C-28.56093569 39.09639798 -25.72921048 41.92812319 -20.890625 44.2578125 C-15.89614911 45.0549764 -12.09332739 44.83689143 -7.515625 42.6328125 C-3.93154787 39.39007605 -1.29527259 36.79305354 -0.5078125 31.859375 C-0.25178581 26.17558256 -0.95435568 22.60842595 -4.890625 18.2578125 C-9.24123845 14.32154318 -12.80839506 13.61897331 -18.4921875 13.875 C-23.42586604 14.66246009 -26.02288855 17.29873537 -29.265625 20.8828125 Z " fill="#000000" transform="translate(87.890625,122.7421875)"/>
<path d="M0 0 C2.20769365 1.43018603 4.32034525 2.91800139 6.41796875 4.50390625 C7.16046875 5.05949219 7.90296875 5.61507813 8.66796875 6.1875 C9.24546875 6.62191406 9.82296875 7.05632812 10.41796875 7.50390625 C8.88153023 11.18460512 6.6364593 13.49165829 3.79296875 16.25390625 C2.97570312 17.053125 2.1584375 17.85234375 1.31640625 18.67578125 C0.68992187 19.2790625 0.0634375 19.88234375 -0.58203125 20.50390625 C-2.85086246 19.38569658 -5.08905501 18.23083774 -7.31640625 17.03125 C-16.99284178 11.92981314 -23.91345734 10.31520689 -34.58203125 13.50390625 C-39.19485412 15.40377745 -43.30316072 17.93658393 -47.58203125 20.50390625 C-51.21203125 16.87390625 -54.84203125 13.24390625 -58.58203125 9.50390625 C-54.80055041 1.94094456 -46.28862247 -1.62269932 -38.58203125 -4.49609375 C-26.23152153 -8.04059095 -11.00715872 -6.37782419 0 0 Z " fill="#000000" transform="translate(444.58203125,301.49609375)"/>
<path d="M0 0 C3.45721752 2.46144937 4.39500958 3.54001915 6.375 7.5 C2.745 11.13 -0.885 14.76 -4.625 18.5 C-7.65234375 16.70963542 -10.6796875 14.91927083 -13.70703125 13.12890625 C-20.29563967 9.45092806 -28.24694936 9.4645754 -35.625 10.5 C-41.13237041 12.43293238 -45.79195708 15.27797138 -50.625 18.5 C-54.255 14.87 -57.885 11.24 -61.625 7.5 C-58.15085041 0.55170082 -51.34388701 -3.10599112 -44.25 -5.9375 C-29.3275124 -10.39111064 -12.95396333 -8.55623998 0 0 Z " fill="#000000" transform="translate(283.625,367.5)"/>
<path d="M0 0 C1.39154757 0.8053973 2.77395835 1.62836022 4.125 2.5 C4.125 6.5 4.125 6.5 1.9375 9.078125 C1.009375 9.95984375 0.08125 10.8415625 -0.875 11.75 C-1.803125 12.64203125 -2.73125 13.5340625 -3.6875 14.453125 C-4.7703125 15.46632813 -4.7703125 15.46632813 -5.875 16.5 C-6.865 16.17 -7.855 15.84 -8.875 15.5 C-12.55882769 15.36843473 -15.36553585 15.33017862 -18.875 16.5 C-22.505 12.87 -26.135 9.24 -29.875 5.5 C-27.83472041 1.41944081 -26.55986767 0.13300324 -22.4765625 -1.73046875 C-14.85050751 -3.98622376 -7.10142487 -3.54062519 0 0 Z " fill="#000000" transform="translate(432.875,322.5)"/>
<path d="M0 0 C3.14092016 2.17448319 3.83212957 2.94163567 5.25 6.25 C-3.87787659 16.91340723 -3.87787659 16.91340723 -8.37890625 17.72265625 C-10.75 17.375 -10.75 17.375 -12.875 16.7578125 C-14.95157492 16.0098406 -14.95157492 16.0098406 -17.75 17.25 C-21.38 13.62 -25.01 9.99 -28.75 6.25 C-26.71038766 2.17077531 -25.43448082 0.88957877 -21.359375 -0.984375 C-14.51829465 -2.9916381 -6.53476607 -3.00503841 0 0 Z " fill="#000000" transform="translate(267.75,385.75)"/>
<path d="M0 0 C2.69990662 1.79993774 4.5418865 3.083773 6 6 C6.43023798 9.87214182 6.31669086 11.52496371 4.125 14.8125 C1.61855093 17.39266816 0.74538327 17.91717964 -2.8125 18.3125 C-6.7307645 17.92835642 -8.21293267 16.70743683 -11 14 C-12.42662219 11.14675563 -12.31033868 9.16545451 -12 6 C-8.54235344 0.81353016 -6.24330406 -0.61208863 0 0 Z " fill="#000000" transform="translate(259,407)"/>
<path d="M0 0 C5.28 0 10.56 0 16 0 C16 5.28 16 10.56 16 16 C10.72 16 5.44 16 0 16 C0 10.72 0 5.44 0 0 Z " fill="#000000" transform="translate(312,264)"/>
<path d="M0 0 C5.28 0 10.56 0 16 0 C16 5.28 16 10.56 16 16 C10.72 16 5.44 16 0 16 C0 10.72 0 5.44 0 0 Z " fill="#000000" transform="translate(216,264)"/>
<path d="M0 0 C5.28 0 10.56 0 16 0 C16 5.28 16 10.56 16 16 C10.72 16 5.44 16 0 16 C0 10.72 0 5.44 0 0 Z " fill="#000000" transform="translate(184,264)"/>
</svg>
