<?xml version="1.0" encoding="UTF-8"?>
<svg version="1.1" xmlns="http://www.w3.org/2000/svg" width="512" height="512">
<path d="M0 0 C2.75 2.375 2.75 2.375 5 5 C5.49113281 5.56203125 5.98226562 6.1240625 6.48828125 6.703125 C12.15414178 13.62025498 14.60441303 21.03278861 15.88354492 29.81860352 C16.71933904 36.01491242 16.71933904 36.01491242 20.01171875 41.11328125 C22.28462147 42.56718762 24.59989203 43.7726243 27 45 C28.83198126 46.56665983 30.37317396 48.21573918 32 50 C35.1727756 48.58358232 37.45136875 46.84951943 40 44.5 C43.6288805 41.15462579 43.6288805 41.15462579 46.05908203 40.14208984 C48.13453105 39.18500731 48.13453105 39.18500731 48.72607422 37.21923828 C48.8345166 36.51009277 48.94295898 35.80094727 49.0546875 35.0703125 C49.19132813 34.28027832 49.32796875 33.49024414 49.46875 32.67626953 C49.6028125 31.83435059 49.736875 30.99243164 49.875 30.125 C52.08328345 18.10388321 56.09136061 6.8554385 66.5 -0.5 C80.90008845 -10.24873245 97.67577533 -13.47369572 114.703125 -10.3125 C133.32152717 -4.91586169 148.33836976 6.68356158 162 20 C162.53995605 20.52480957 163.07991211 21.04961914 163.63623047 21.59033203 C165.28490574 23.19953537 166.92598762 24.81593294 168.5625 26.4375 C169.06346191 26.93362793 169.56442383 27.42975586 170.08056641 27.94091797 C177.42910618 35.3247509 177.42910618 35.3247509 177.5 40.5 C177.357252 43.82712653 177.12330329 44.82737539 175.125 47.625 C171.24243457 49.33332879 168.87057761 48.96111422 164.74609375 48.37890625 C152.48890064 46.6876577 145.48636985 49.65243312 135.375 56.3125 C118.85218619 67.18595292 99.63879707 75.32402456 79.51953125 71.3046875 C70.05642989 68.664338 61.55437817 64.42829526 55 57 C50.23218888 58.12183791 48.00475965 60.81249403 45.2890625 64.65625 C43.12422218 68.59232331 42.5362759 72.58442962 42 77 C41.89042969 77.79664062 41.78085937 78.59328125 41.66796875 79.4140625 C41.4216355 81.27305743 41.20708612 83.13622492 41 85 C42.29550781 84.97679688 43.59101563 84.95359375 44.92578125 84.9296875 C86.37374308 84.97821194 126.52406735 106.12244329 156 134 C157.28970703 135.19302734 157.28970703 135.19302734 158.60546875 136.41015625 C182.21838853 159.00087171 206.10663271 197.15714493 207 231 C205.90375151 234.81208017 205.38570284 235.74286477 202 238 C195 238.66666667 195 238.66666667 191.92578125 236.6171875 C189.03414571 232.68737855 188.25624803 228.44600858 187.125 223.75 C182.95233968 207.59891549 177.11462401 193.57025822 169 179 C168.34 179 167.68 179 167 179 C160.31204716 187.2795938 155.97672322 197.05416432 151.5 206.625 C139.32637696 232.43911678 139.32637696 232.43911678 126 238 C115.75115952 240.71885826 105.19109273 240.13626256 94.69702148 239.88354492 C81.9886446 239.60113655 70.75845255 239.92964346 61 249 C60.41734375 249.52980469 59.8346875 250.05960937 59.234375 250.60546875 C50.34879382 259.67116306 45.68486011 272.42114651 42.63427734 284.50366211 C40.92314105 291.12779775 40.92314105 291.12779775 38 293 C34.92630244 293.67927018 32.09051778 293.55685005 29 293 C26.375 291.25 26.375 291.25 25 288 C23.48578081 271.3435889 33.53854975 253.90869953 43.19140625 241.08984375 C52.53328531 230.00994068 64.72041138 223.97138064 79 222 C81.58019295 221.9423334 84.129283 221.92959233 86.70703125 221.97265625 C88.19596119 221.98530647 89.6848936 221.99766714 91.17382812 222.00976562 C93.4907226 222.03448896 95.80748309 222.06242741 98.12426758 222.09594727 C111.47063572 223.02345913 111.47063572 223.02345913 123.609375 218.84057617 C129.63656447 212.71601533 132.71339501 203.56340104 136.24194336 195.84082031 C140.69240664 186.15072978 145.66318774 177.59337949 152 169 C153.02288051 167.56395599 154.0441491 166.12675967 155.0625 164.6875 C155.701875 163.800625 156.34125 162.91375 157 162 C147.47478807 150.46335588 137.92898395 139.85316062 125 132 C124.74992187 132.58007812 124.49984375 133.16015625 124.2421875 133.7578125 C119.28378684 142.70788162 108.32461397 147.89179534 99 151 C90.6804182 151.49105364 83.28617662 151.42864111 75.3515625 148.6953125 C69.75018923 147.0390925 64.53112504 146.76634242 59.2109375 149.359375 C56.39932494 151.149303 53.70147138 153.04850106 51 155 C35.42733537 165.08899766 18.19052722 170.10875906 -0.359375 166.3125 C-20.23761579 159.57411329 -33.30222188 141.70439058 -43 124 C-43 123.34 -43 122.68 -43 122 C-58.84993895 129.95617014 -71.69495233 141.38560755 -84 154 C-80.53928325 157.6136766 -76.9886693 160.59565854 -72.9375 163.5625 C-62.41076549 171.50507054 -53.27505564 180.25720581 -47 192 C-46.64164062 192.639375 -46.28328125 193.27875 -45.9140625 193.9375 C-41.15749045 204.06157996 -43.49507709 218.08294436 -46.96630859 228.31103516 C-49.32417074 234.4445953 -52.12093324 240.37968537 -54.9375 246.3125 C-55.39712128 247.29322479 -55.39712128 247.29322479 -55.86602783 248.29376221 C-56.75684367 250.1799692 -57.66903774 252.05406101 -58.58984375 253.92578125 C-59.12472412 255.02317627 -59.65960449 256.12057129 -60.21069336 257.2512207 C-62.19709875 260.30278821 -63.68978721 261.5347606 -67 263 C-70.42199954 262.88200002 -72.91693888 262.64983667 -75.875 260.875 C-77.66588946 257.89018423 -77.82042751 255.47749035 -78 252 C-77.12479447 248.89667008 -75.78355462 246.08155096 -74.375 243.1875 C-74.00544189 242.39142334 -73.63588379 241.59534668 -73.25512695 240.77514648 C-71.32796129 236.65283776 -69.29489356 232.59572706 -67.1875 228.5625 C-63.27470697 220.85588399 -60.33804578 211.68062036 -62 203 C-63.55644975 199.30556984 -65.61329922 196.20987957 -68 193 C-68.52207031 192.28328125 -69.04414063 191.5665625 -69.58203125 190.828125 C-73.96248243 185.4094179 -79.26428565 181.23646364 -84.75 177 C-85.49548096 176.42338623 -86.24096191 175.84677246 -87.0090332 175.25268555 C-87.722771 174.71554932 -88.43650879 174.17841309 -89.171875 173.625 C-89.8122168 173.14289063 -90.45255859 172.66078125 -91.11230469 172.1640625 C-93.07936528 170.95105876 -94.74163675 170.43088018 -97 170 C-114.85534306 196.83881254 -124.82883994 225.79238533 -125.4296875 258.13085938 C-125.72569489 267.12825059 -125.72569489 267.12825059 -129 271 C-132.51824511 273.34549674 -133.85775694 273.57991403 -138 273 C-140.6640625 271.23046875 -140.6640625 271.23046875 -143 268 C-143.71491422 263.94972701 -143.6125382 259.97632699 -143.5 255.875 C-143.47015015 254.12437256 -143.47015015 254.12437256 -143.43969727 252.33837891 C-142.28515506 207.71853838 -122.4069177 167.88908651 -92 136 C-91.26136719 135.20851562 -90.52273437 134.41703125 -89.76171875 133.6015625 C-63.21880271 105.94258235 -21.08955841 86.23046819 17.23046875 84.88671875 C19.82474318 84.87685459 22.40763995 84.90648801 25 85 C23.85399043 70.50105091 23.85399043 70.50105091 15.75 59 C14.8425 58.34 13.935 57.68 13 57 C10.17593366 58.28699352 8.15830367 59.65985399 5.9375 61.8125 C-3.60171867 70.18490437 -15.70482195 72.53175803 -28.01953125 72.30078125 C-45.52876485 70.97770864 -62.41098167 62.31505126 -76.23828125 51.84765625 C-80.74920024 48.82974298 -84.85816452 47.72371229 -90.25 47.8125 C-91.19617188 47.82410156 -92.14234375 47.83570313 -93.1171875 47.84765625 C-95.91082673 47.99528759 -98.60803228 48.34940915 -101.375 48.75 C-104.78038462 49.10789074 -105.87780049 49.05376778 -109.125 47.625 C-111.40284732 44.43601375 -112.0894827 42.51872034 -111.859375 38.61328125 C-110.08418991 33.21510477 -105.57151161 29.42078345 -101.57763672 25.54833984 C-100.063706 24.06252297 -98.60752589 22.53870967 -97.16015625 20.98828125 C-72.11708496 -5.53988227 -33.254419 -24.62802516 0 0 Z M-76 25 C-77.20808776 26.00029666 -78.41637974 27.0003468 -79.625 28 C-80.800625 28.99 -80.800625 28.99 -82 30 C-79.4047999 31.7301334 -77.56854926 32.56018539 -74.6875 33.5625 C-70.13799744 35.33064728 -66.17515909 37.68378318 -62.125 40.375 C-55.97190114 44.45040748 -49.74377918 47.9648381 -43 51 C-42.10925781 51.41378906 -41.21851563 51.82757813 -40.30078125 52.25390625 C-31.2062436 56.06431838 -21.56459175 56.66871106 -12.25 53.1875 C-8.89356522 51.73712007 -8.10866452 51.16299677 -6 48 C-6.62044189 47.75354736 -7.24088379 47.50709473 -7.88012695 47.25317383 C-10.69793395 46.1229386 -13.50500415 44.96809679 -16.3125 43.8125 C-17.28896484 43.42513672 -18.26542969 43.03777344 -19.27148438 42.63867188 C-20.20927734 42.24873047 -21.14707031 41.85878906 -22.11328125 41.45703125 C-22.97735596 41.10616455 -23.84143066 40.75529785 -24.73168945 40.39379883 C-27.57369356 38.64748504 -28.61329118 37.0110495 -30 34 C-29.875 30.3125 -29.875 30.3125 -29 27 C-25.16676966 24.44451311 -22.42350392 24.19390968 -18 25 C-14.88167697 26.21766375 -11.85126998 27.50249039 -8.83666992 28.953125 C-5.06282566 30.83621891 -5.06282566 30.83621891 -1 30 C-2.94771094 21.9865607 -6.3329091 15.95157916 -13.43359375 11.4609375 C-36.96910057 -0.79042221 -57.35534618 9.19832531 -76 25 Z M72.47265625 17.66015625 C69.18494265 21.84365269 68.00205417 25.80753747 67 31 C70.95327432 30.37123425 74.18412808 29.10664619 77.8125 27.4375 C82.93617534 25.25425903 86.47512558 24.29683417 92 25 C95 27 95 27 95.875 30.3125 C96.01721099 34.50772421 95.46742654 35.70267828 93 39 C90.73168945 40.39379883 90.73168945 40.39379883 88.11328125 41.45703125 C87.17548828 41.84697266 86.23769531 42.23691406 85.27148438 42.63867188 C84.29501953 43.02603516 83.31855469 43.41339844 82.3125 43.8125 C81.32443359 44.21919922 80.33636719 44.62589844 79.31835938 45.04492188 C76.88436714 46.04438729 74.44532371 47.02866573 72 48 C77.3380311 53.64106344 82.64799756 55.17771866 90.25 55.6875 C104.92500402 55.3261241 118.52346634 47.27763321 130.421875 39.296875 C135.91826481 35.65199735 141.67827263 32.89651821 148 31 C146.35621888 29.30485072 144.69409317 27.6442669 143 26 C142.4534375 25.46890625 141.906875 24.9378125 141.34375 24.390625 C129.00152923 12.98976005 114.83119882 5.39420938 97.96484375 5.72265625 C87.8931551 6.42717831 79.3186656 10.21884174 72.47265625 17.66015625 Z M30.87597656 100.98779297 C11.49714413 101.06373583 -9.30388378 104.97556432 -27 113 C-27.33 113.66 -27.66 114.32 -28 115 C-24.21561895 123.10755533 -18.86012777 130.28939643 -13 137 C-12.42378906 137.66 -11.84757812 138.32 -11.25390625 139 C-5.97423121 144.65766563 0.99871116 149.58884283 8.8984375 150.23828125 C22.74440631 150.53386935 32.76532202 146.90525214 44 139 C45.62174112 137.89105241 47.24654871 136.78657026 48.875 135.6875 C49.55304688 135.21699219 50.23109375 134.74648437 50.9296875 134.26171875 C55.93677876 131.21022729 60.32637307 130.64630651 66.125 130.6875 C66.87982666 130.68878906 67.63465332 130.69007813 68.41235352 130.69140625 C73.77346464 130.78298069 78.39700045 131.70056898 83.51953125 133.3125 C89.67469003 135.01849676 95.02737652 134.83709016 100.75 131.9375 C105.00784817 129.30565069 108.05232954 126.01114373 111 122 C86.86975788 107.45998231 58.85804324 101.14860944 30.87597656 100.98779297 Z " fill="#000000" transform="translate(263,11)"/>
<path d="M0 0 C7.19723192 5.1873026 13.83624892 12.05067126 16.26953125 20.7890625 C18.06494701 32.05410476 17.73522437 42.62531315 11.7109375 52.55859375 C2.4225077 63.9369465 -8.61288497 74.06426714 -18.97265625 84.4453125 C-19.91692161 85.39232207 -20.86113048 86.33938798 -21.8052845 87.28650856 C-26.23894511 91.73376942 -30.67454783 96.17907926 -35.11306614 100.62149209 C-40.19261765 105.70552921 -45.26554341 110.79605796 -50.33286136 115.89228791 C-54.28371474 119.86488124 -58.24043437 123.83157085 -62.20150715 127.79397422 C-64.55282092 130.14632572 -66.90094737 132.50163685 -69.24447441 134.86176109 C-87.05118757 152.78564674 -106.68689656 171.59258588 -133.76507568 171.70335388 C-134.85278259 171.71025238 -135.9404895 171.71715088 -137.06115723 171.72425842 C-138.83637756 171.72817848 -138.83637756 171.72817848 -140.64746094 171.73217773 C-141.90169861 171.73886475 -143.15593628 171.74555176 -144.44818115 171.75244141 C-147.17149897 171.76648674 -149.89476406 171.77881564 -152.6180954 171.78838921 C-156.93084172 171.8038909 -161.24351576 171.8278412 -165.55621338 171.85328674 C-177.81835349 171.92435471 -190.08053487 171.98418436 -202.34277344 172.03540039 C-209.11900944 172.06377751 -215.89517332 172.09919816 -222.67133355 172.14205414 C-226.95147445 172.16870412 -231.23153388 172.18668424 -235.51174116 172.19809139 C-238.81224549 172.20942716 -242.11263651 172.23353107 -245.41308594 172.25561523 C-247.17616089 172.25649895 -247.17616089 172.25649895 -248.97485352 172.25740051 C-261.19082878 172.36542625 -268.79458732 174.01678473 -277.6640625 182.80859375 C-278.87739767 184.05373921 -280.08747321 185.30210952 -281.2890625 186.55859375 C-279.89273143 189.74419327 -278.24348757 191.7980322 -275.7265625 194.18359375 C-272.48264951 197.2723924 -271.42107666 198.60149107 -270.7890625 203.18359375 C-271.00980283 212.52826751 -283.94939542 221.3710255 -290.24291992 227.64282227 C-292.11820813 229.51269128 -293.98801715 231.38792274 -295.85742188 233.26367188 C-297.04915815 234.45474836 -298.24120405 235.64551515 -299.43359375 236.8359375 C-299.99190384 237.39627182 -300.55021393 237.95660614 -301.1254425 238.53392029 C-304.53048565 241.9182355 -306.10280333 243.3949718 -310.9140625 244.05859375 C-314.52406201 243.98435176 -316.15851109 243.2111879 -318.80104065 240.78071594 C-319.49798601 240.14016581 -320.19493137 239.49961567 -320.91299629 238.83965492 C-325.82761654 234.12154169 -330.6598501 229.32631616 -335.47241211 224.50463867 C-336.68357059 223.29483741 -337.89494122 222.08524851 -339.10650635 220.87585449 C-342.37485693 217.61203719 -345.64006754 214.34509583 -348.9045608 211.07742095 C-352.32586864 207.6535717 -355.74962652 204.2321738 -359.17298889 200.81037903 C-364.91343011 195.07175283 -370.65176876 189.33103051 -376.38891602 183.58911133 C-383.02638805 176.94618239 -389.66747585 170.30688454 -396.31042284 163.66943091 C-402.01854921 157.96583615 -407.72473262 152.26030304 -413.4292832 146.55313188 C-416.83473909 143.14611548 -420.24087069 139.73978202 -423.64875603 136.33519554 C-426.8464048 133.14042668 -430.04161412 129.94323826 -433.23492432 126.744133 C-434.40919158 125.56853945 -435.5843181 124.3938035 -436.76034737 123.21997261 C-438.36024293 121.62279329 -439.95705233 120.02259231 -441.55308533 118.42155457 C-442.44881728 117.52544559 -443.34454924 116.62933661 -444.26742458 115.70607281 C-447.2474577 112.5405412 -447.84080621 110.1240775 -447.73706055 105.73217773 C-446.06101652 97.60039572 -434.12717114 89.24633513 -428.33520508 83.47436523 C-426.45991687 81.60449622 -424.59010785 79.72926476 -422.72070312 77.85351562 C-421.52896685 76.66243914 -420.33692095 75.47167235 -419.14453125 74.28125 C-418.58622116 73.72091568 -418.02791107 73.16058136 -417.4526825 72.58326721 C-414.04763935 69.198952 -412.47532167 67.7222157 -407.6640625 67.05859375 C-402.81028254 67.08511714 -400.41789081 69.47654283 -397.05078125 72.734375 C-396.17873047 73.63736328 -396.17873047 73.63736328 -395.2890625 74.55859375 C-394.71800781 75.12964844 -394.14695312 75.70070313 -393.55859375 76.2890625 C-393.13964844 76.70800781 -392.72070312 77.12695312 -392.2890625 77.55859375 C-389.2700973 76.20872933 -387.20978903 74.714407 -384.90429688 72.35327148 C-383.94179016 71.37601357 -383.94179016 71.37601357 -382.95983887 70.37901306 C-382.27442017 69.67386063 -381.58900146 68.96870819 -380.8828125 68.2421875 C-379.40117615 66.74010171 -377.91940066 65.23815315 -376.4375 63.73632812 C-374.12257633 61.37823742 -371.81019814 59.01772779 -369.50097656 56.65405273 C-348.07035515 34.75483846 -348.07035515 34.75483846 -334.3515625 28.24609375 C-333.68334473 27.9205249 -333.01512695 27.59495605 -332.32666016 27.25952148 C-312.10775602 17.68277731 -287.01187305 15.92547245 -265.65625 22.8828125 C-254.2350373 27.06411182 -238.74090051 33.90292376 -232.05615234 44.51603699 C-229.6479007 47.82099963 -227.31887528 50.11555713 -223.20756721 51.01291084 C-216.62521366 51.7435653 -209.99713186 51.52058237 -203.38671875 51.41796875 C-201.22253025 51.415328 -199.0583332 51.41679663 -196.89414978 51.42218018 C-191.20735304 51.42794873 -185.52180408 51.38956234 -179.83526611 51.33831787 C-170.73867428 51.26070272 -161.64217357 51.23686365 -152.54528618 51.23841095 C-149.37813228 51.23060168 -146.21210242 51.19579378 -143.04518127 51.15814209 C-141.09010117 51.1510607 -139.13501765 51.1448506 -137.17993164 51.13964844 C-136.30848511 51.12204971 -135.43703857 51.10445099 -134.53918457 51.08631897 C-125.56148616 51.11189615 -118.06994822 54.77003277 -111.2890625 60.55859375 C-108.2890625 63.94569052 -108.2890625 63.94569052 -108.2890625 66.55859375 C-101.58364177 60.98559631 -95.48704628 54.83657389 -89.37790298 48.63090324 C-87.57183813 46.7978395 -85.76112705 44.96948591 -83.94894409 43.14247131 C-78.80189449 37.95302609 -73.6576527 32.76089935 -68.52978516 27.55249023 C-65.37814787 24.35203345 -62.21657464 21.16168197 -59.04851913 17.97747993 C-57.85287473 16.77201654 -56.66087346 15.56292713 -55.47281265 14.34998894 C-40.88018683 -0.54148084 -20.29186101 -12.77763944 0 0 Z M-40.55957031 24.36157227 C-41.23706329 25.02577682 -41.91455627 25.68998138 -42.61257935 26.37431335 C-44.83062004 28.55393254 -47.03719908 30.74468224 -49.2421875 32.9375 C-50.79051935 34.47109325 -52.33892139 36.00461565 -53.88739014 37.53807068 C-57.12393532 40.74769846 -60.35376692 43.96392519 -63.58007812 47.18383789 C-67.69944444 51.29233222 -71.84363824 55.37477365 -75.99443436 59.451478 C-79.19946504 62.60796429 -82.38621336 65.78244051 -85.56832123 68.96201897 C-87.08787515 70.47437773 -88.61400018 71.98016571 -90.14694977 73.47894478 C-100.9425408 83.70872205 -100.9425408 83.70872205 -106.74261475 97.12852478 C-108.283265 103.97984105 -113.29200734 107.62849512 -118.91015625 111.296875 C-125.66232782 114.87807601 -131.82264893 114.84961079 -139.30541992 114.83325195 C-140.51091995 114.83836288 -141.71641998 114.84347382 -142.95845032 114.84873962 C-146.25162715 114.86023144 -149.54464734 114.86271392 -152.83783889 114.86017632 C-155.5891249 114.85910437 -158.34038785 114.86399524 -161.0916689 114.86878175 C-167.57960359 114.87985903 -174.06748036 114.8803231 -180.55541992 114.87426758 C-187.24931794 114.86821612 -193.94300639 114.88057237 -200.63686866 114.90183765 C-206.38817026 114.91943685 -212.13940503 114.92545804 -217.89073259 114.9221999 C-221.32420295 114.92038562 -224.75752349 114.92303827 -228.19096947 114.93691444 C-232.01436023 114.95179061 -235.83748206 114.9425375 -239.66088867 114.9309082 C-240.80016815 114.93855194 -241.93944763 114.94619568 -243.11325073 114.95407104 C-244.15205887 114.94705673 -245.190867 114.94004242 -246.26115417 114.93281555 C-247.16501452 114.93298329 -248.06887487 114.93315104 -249.00012493 114.93332386 C-251.74513386 114.48392869 -252.62840298 113.75016534 -254.2890625 111.55859375 C-254.6875 109.62109375 -254.6875 109.62109375 -254.6640625 107.55859375 C-254.67566406 106.53765625 -254.67566406 106.53765625 -254.6875 105.49609375 C-254.1634739 102.94788839 -253.31715702 102.16649447 -251.2890625 100.55859375 C-249.13344383 100.18221283 -249.13344383 100.18221283 -246.58505249 100.18005371 C-245.61789307 100.17185104 -244.65073364 100.16364838 -243.65426636 100.15519714 C-242.0646257 100.16441948 -242.0646257 100.16441948 -240.44287109 100.17382812 C-238.76677765 100.16576897 -238.76677765 100.16576897 -237.05682373 100.157547 C-234.62597765 100.14775049 -232.19509652 100.14483047 -229.76423264 100.14790344 C-225.91358462 100.1523715 -222.06339866 100.13840726 -218.21279907 100.11950684 C-210.02989262 100.08265718 -201.84703939 100.06886424 -193.6640625 100.05859375 C-184.20234261 100.04669636 -174.74088099 100.02489827 -165.27925491 99.97859192 C-161.49201897 99.96503885 -157.70506678 99.96919087 -153.91781616 99.97399902 C-151.58241417 99.96465392 -149.24701529 99.95448397 -146.91162109 99.94335938 C-145.34019852 99.95258171 -145.34019852 99.95258171 -143.73703003 99.96199036 C-137.19929201 99.90749583 -129.79049868 99.69166198 -124.66649437 95.1067276 C-120.60869061 90.36192952 -119.93307383 87.16205334 -120.01171875 81.09765625 C-120.42282694 77.33398973 -121.7719261 75.34069188 -124.2890625 72.55859375 C-130.93174313 67.32924942 -136.68202819 67.42474196 -144.77001953 67.54370117 C-146.7358456 67.56312998 -148.7016764 67.5820847 -150.66751099 67.60063171 C-152.22595922 67.61737222 -152.22595922 67.61737222 -153.81589127 67.63445091 C-160.49499282 67.6956641 -167.17443857 67.69573198 -173.85377693 67.707057 C-179.71540484 67.72048526 -185.57540985 67.7553232 -191.43652344 67.83618164 C-197.11638553 67.91333545 -202.79377189 67.93147125 -208.47408676 67.91036415 C-210.63100919 67.91281088 -212.78802068 67.93635671 -214.94446182 67.98198509 C-232.71646953 68.33931508 -232.71646953 68.33931508 -237.93817139 63.94985962 C-240.76385996 61.08806355 -242.95605932 57.82757065 -245.2890625 54.55859375 C-260.09793283 41.67292527 -279.35739019 34.47310245 -299.015625 35.8125 C-327.86555002 39.0735404 -344.12817047 56.21560427 -363.5390625 75.74609375 C-364.97762786 77.18968906 -366.41642851 78.63304994 -367.85546875 80.07617188 C-371.3360443 83.56762327 -374.81344635 87.06220571 -378.2890625 90.55859375 C-376.92321533 93.61634554 -375.37817885 95.71740566 -373.01144409 98.07672119 C-372.33556244 98.75535217 -371.65968079 99.43398315 -370.96331787 100.13317871 C-370.22244934 100.86685669 -369.48158081 101.60053467 -368.71826172 102.35644531 C-367.93768402 103.13731506 -367.15710632 103.91818481 -366.35287476 104.72271729 C-363.77121205 107.30298648 -361.18253692 109.87609897 -358.59375 112.44921875 C-356.80255331 114.2366854 -355.01179762 116.02459407 -353.22146606 117.81292725 C-348.98945678 122.03808006 -344.75302492 126.25874835 -340.51441681 130.47727752 C-335.68826535 135.28106261 -330.86780187 140.09053817 -326.04780555 144.90049791 C-316.13453642 154.79287042 -306.21415284 164.67808262 -296.2890625 174.55859375 C-293.28015462 173.12471245 -291.35267428 171.77647926 -289.1015625 169.30859375 C-281.39620985 161.42251854 -272.63096769 156.55858167 -261.48629761 156.17332458 C-259.27334025 156.1531694 -257.06019901 156.14900772 -254.84716797 156.15795898 C-253.023283 156.14749039 -253.023283 156.14749039 -251.16255188 156.1368103 C-248.53350828 156.12372347 -245.90510084 156.11591522 -243.27608871 156.11733818 C-239.10412287 156.11938856 -234.93242385 156.09969076 -230.76052856 156.0771637 C-222.6464808 156.03631222 -214.5324546 156.01763033 -206.41832733 156.00099182 C-196.11267759 155.97859968 -185.80709102 155.94468102 -175.50154221 155.89379269 C-172.04094449 155.87728456 -168.58044732 155.86518694 -165.1198082 155.863554 C-137.5791646 155.8439161 -114.48258807 155.03887622 -93.73455811 134.53509521 C-92.8624469 133.65331604 -91.99033569 132.77153687 -91.09179688 131.86303711 C-90.13036648 130.9054012 -89.16808008 129.94862405 -88.20501709 128.99263 C-85.62191599 126.42334508 -83.05135699 123.84185712 -80.48347282 121.25737453 C-77.78198266 118.54191548 -75.07022116 115.83674511 -72.35998535 113.13002014 C-67.81759435 108.5903199 -63.2833019 104.04265416 -58.75390625 99.48999023 C-53.52526467 94.23467387 -48.28422376 88.99197805 -43.03637457 83.75584692 C-37.97031686 78.70057927 -32.91279618 73.63685422 -27.85920715 68.56912422 C-25.71525538 66.41943058 -23.5684368 64.27266236 -21.41923523 62.1282177 C-18.89072449 59.6044908 -16.3698134 57.07340578 -13.85449982 54.53652763 C-12.49440995 53.1682541 -11.12698722 51.80728175 -9.75933838 50.44656372 C-4.1389428 44.75768024 0.10582788 40.09305306 0.2734375 31.74609375 C0.08968042 25.31459611 -1.7767326 21.12889791 -6.2890625 16.55859375 C-11.17816071 12.62814225 -16.25812814 12.08649418 -22.3828125 11.9296875 C-29.76726744 13.52766767 -35.36445104 19.18140115 -40.55957031 24.36157227 Z M-410.16845703 90.2109375 C-410.91208496 90.96503906 -411.65571289 91.71914063 -412.421875 92.49609375 C-413.22753906 93.30820312 -414.03320312 94.1203125 -414.86328125 94.95703125 C-415.70503906 95.81554687 -416.54679687 96.6740625 -417.4140625 97.55859375 C-418.26355469 98.41710937 -419.11304688 99.275625 -419.98828125 100.16015625 C-422.09306201 102.28858624 -424.19305083 104.42153334 -426.2890625 106.55859375 C-424.75365769 110.1967245 -422.57904649 112.5153435 -419.79660034 115.29156494 C-419.33753363 115.75234051 -418.87846691 116.21311607 -418.40548909 116.68785453 C-416.86862447 118.22800897 -415.32472921 119.76091389 -413.78076172 121.29394531 C-412.67660288 122.39753992 -411.57288442 123.50157528 -410.46957397 124.60601807 C-407.47425 127.60191612 -404.47279732 130.59160547 -401.47021627 133.58022785 C-398.33294643 136.70499959 -395.20133522 139.83543177 -392.06912231 142.965271 C-386.13747172 148.89070413 -380.20074105 154.81102034 -374.26217377 160.72952056 C-367.50136215 167.46798151 -360.74622515 174.21211884 -353.99156165 180.95674181 C-340.09703883 194.83035659 -326.19539602 208.69681821 -312.2890625 222.55859375 C-309.06591563 221.02571789 -306.91170652 219.41708687 -304.3984375 216.86328125 C-303.68945312 216.14785156 -302.98046875 215.43242187 -302.25 214.6953125 C-301.52039063 213.94894531 -300.79078125 213.20257813 -300.0390625 212.43359375 C-299.29398437 211.67949219 -298.54890625 210.92539062 -297.78125 210.1484375 C-295.9459283 208.28958603 -294.1154434 206.4262237 -292.2890625 204.55859375 C-293.82390791 200.92603683 -295.99355987 198.60267585 -298.76806641 195.82562256 C-299.22572199 195.36484699 -299.68337757 194.90407143 -300.1549015 194.42933297 C-301.68708664 192.88918108 -303.22630865 191.35626428 -304.765625 189.82324219 C-305.86652463 188.71963218 -306.96699841 187.61559722 -308.06707764 186.51116943 C-311.05405924 183.51506921 -314.04733376 180.52533086 -317.04204559 177.53695965 C-320.17246227 174.41160311 -323.29800022 171.28137377 -326.42431641 168.1519165 C-331.67316376 162.89943063 -336.92621437 157.65117614 -342.18164062 152.40527344 C-348.26457293 146.33323677 -354.3402513 140.25401321 -360.41223335 134.1710279 C-365.62132603 128.9528726 -370.83428945 123.73860827 -376.0505352 118.52760339 C-379.16803303 115.41322946 -382.28414983 112.29750608 -385.39678955 109.17827606 C-388.32085592 106.24845137 -391.24973494 103.32352623 -394.18247223 100.4023819 C-395.26056939 99.32693897 -396.33695025 98.24977247 -397.41152191 97.17080688 C-398.87314424 95.70375795 -400.34072361 94.24294843 -401.81005859 92.78363037 C-402.63154388 91.96289913 -403.45302917 91.14216789 -404.29940796 90.29656601 C-406.93382272 87.99539278 -407.53438801 87.89509194 -410.16845703 90.2109375 Z " fill="#000000" transform="translate(471.2890625,268.44140625)"/>
</svg>
