<?xml version="1.0" encoding="UTF-8"?>
<svg version="1.1" xmlns="http://www.w3.org/2000/svg" width="512" height="512">
<path d="M0 0 C0.50588147 1.91512272 1.00448391 3.83216922 1.5 5.75 C1.91765625 7.35101563 1.91765625 7.35101563 2.34375 8.984375 C3 12 3 12 3 16 C-7.30134898 18.64373209 -17.62656068 21.0905918 -28.03149414 23.29248047 C-30.22605822 23.75818232 -32.418662 24.23248275 -34.61132812 24.70703125 C-36.02593173 25.0083291 -37.44064135 25.30912977 -38.85546875 25.609375 C-40.10996826 25.87717773 -41.36446777 26.14498047 -42.65698242 26.42089844 C-45.53531937 26.91950468 -48.09168613 27.12309591 -51 27 C-51 27.66 -51 28.32 -51 29 C-50.39118075 29.04957068 -49.78236151 29.09914137 -49.15509319 29.1502142 C-43.07472965 29.69458326 -37.21581348 30.65002745 -31.25512695 31.94946289 C-29.87991882 32.24228905 -29.87991882 32.24228905 -28.47692871 32.54103088 C-26.50512966 32.96154701 -24.5338464 33.38448783 -22.56304359 33.80964851 C-19.44038174 34.48298477 -16.31627398 35.14919843 -13.19169617 35.81358337 C-5.43816476 37.46354544 2.31315477 39.12378471 10.06384277 40.78704834 C16.63053016 42.19620107 23.19834768 43.59981364 29.76795387 44.99529839 C32.83957648 45.65010647 35.90935323 46.31312777 38.97917175 46.97633362 C40.86712422 47.3779741 42.75516585 47.7791958 44.64331055 48.17993164 C45.49075333 48.36537537 46.33819611 48.55081909 47.21131897 48.74188232 C55.54733578 50.49233702 62.55090274 49.88751068 70.80322266 48.07226562 C71.76181686 47.86744064 72.72041107 47.66261566 73.70805359 47.45158386 C75.77994841 47.00787508 77.85113732 46.56085982 79.92168045 46.11088562 C83.19873902 45.39871409 86.47754838 44.69517732 89.75692749 43.99377441 C95.53318807 42.75684504 101.30777064 41.51227394 107.08184814 40.26519775 C116.33033662 38.26784543 125.58018161 36.27692419 134.83216476 34.29582214 C138.06206551 33.6022316 141.29052853 32.90221467 144.51895142 32.20178223 C146.4977643 31.77682579 148.47663299 31.35212913 150.45556641 30.92773438 C151.35231583 30.73136887 152.24906525 30.53500336 153.17298889 30.33268738 C157.17539567 29.48037402 160.8799376 28.73921398 165 29 C165 28.34 165 27.68 165 27 C163.72568115 26.87689453 162.4513623 26.75378906 161.13842773 26.62695312 C155.94736029 26.04797989 150.89119478 25.05319786 145.78515625 23.96875 C144.84820419 23.77277222 143.91125214 23.57679443 142.94590759 23.37487793 C140.98328626 22.96337823 139.02109601 22.54981748 137.05932617 22.13427734 C134.04781767 21.49689249 131.03478708 20.86712315 128.02148438 20.23828125 C126.10928114 19.83638382 124.19716839 19.43405559 122.28515625 19.03125 C120.93213158 18.74840149 120.93213158 18.74840149 119.55177307 18.45983887 C118.304235 18.19451355 118.304235 18.19451355 117.03149414 17.92382812 C116.29919083 17.76918091 115.56688751 17.61453369 114.81239319 17.4552002 C113 17 113 17 111 16 C111.47986031 10.43109483 112.29915181 5.32932432 114 0 C124.35910108 0.48478981 134.3479341 2.77861422 144.45703125 4.9296875 C146.33259066 5.32495008 148.20821748 5.7198929 150.08390808 6.11453247 C153.99557087 6.93913815 157.90619224 7.76847979 161.81616211 8.60107422 C166.81843798 9.66573125 171.82341197 10.7170452 176.82927418 11.76469231 C180.69530449 12.57556849 184.55966821 13.39417019 188.42358971 14.21503067 C190.26857695 14.6058811 192.11410577 14.99418438 193.9601841 15.37984848 C196.53877668 15.91960622 199.11489995 16.4699187 201.69067383 17.02294922 C202.44663345 17.17890564 203.20259308 17.33486206 203.98146057 17.49554443 C211.01493671 19.0277166 215.93443203 21.55559488 221.0715332 26.71508789 C221.53897446 27.18048477 222.00641571 27.64588165 222.48802185 28.12538147 C224.01628946 29.65066437 225.53359929 31.18635278 227.05078125 32.72265625 C228.11539706 33.79033279 229.18060736 34.85741683 230.24638367 35.92393494 C232.4707068 38.152846 234.69004638 40.38655826 236.90551758 42.62426758 C239.74793739 45.49507176 242.59905842 48.35703204 245.45347309 51.21590519 C247.64923239 53.41581511 249.84214613 55.61854169 252.03401756 57.82232475 C253.08495666 58.8789654 254.13636837 59.9351362 255.18825722 60.99083138 C256.65329686 62.4627276 258.11489437 63.93795212 259.57543945 65.41430664 C260.40783646 66.25353165 261.24023346 67.09275665 262.09785461 67.95741272 C265.12358901 71.20654743 265.18342409 73.53383001 265.42578125 77.9296875 C264.78995496 81.02131991 263.44234055 82.00962369 261 84 C258.28423083 84.94816868 255.73597569 85.70107675 252.953125 86.359375 C251.79632233 86.65053192 251.79632233 86.65053192 250.6161499 86.9475708 C248.16383147 87.56159789 245.70724019 88.15601064 243.25 88.75 C241.58171126 89.16407749 239.91373798 89.57942817 238.24609375 89.99609375 C234.16756928 91.0121799 230.08510274 92.01070845 226 93 C225.99780016 93.94533285 225.99780016 93.94533285 225.99555588 94.90976334 C225.95851108 110.24145266 225.89952764 125.57287662 225.81609726 140.90437698 C225.77628051 148.31857926 225.74390151 155.73267498 225.72900391 163.14697266 C225.71600093 169.60896796 225.68907132 176.0707291 225.64538693 182.53259254 C225.62274115 185.95445796 225.60709115 189.37603425 225.60811615 192.79798126 C225.60576053 196.6173088 225.57879206 200.43571354 225.54589844 204.25488281 C225.5509288 205.39064255 225.55595917 206.52640228 225.56114197 207.69657898 C225.54722916 208.73701859 225.53331635 209.77745819 225.51898193 210.84942627 C225.51529476 211.75278339 225.51160759 212.65614052 225.50780869 213.5868721 C224.83871672 216.76642484 223.47000911 217.95860906 221 220 C218.76551819 221.01545715 218.76551819 221.01545715 216.21899414 221.77270508 C214.70854774 222.23250008 214.70854774 222.23250008 213.16758728 222.70158386 C212.03076004 223.0333815 210.8939328 223.36517914 209.72265625 223.70703125 C207.79262682 224.28821286 205.86259857 224.86939836 203.93259144 225.45065403 C201.68115045 226.1259714 199.4278481 226.79477512 197.1741333 227.46246338 C191.32139757 229.198236 185.47700648 230.96145656 179.63232422 232.72412109 C166.48675696 236.68577502 153.33517285 240.62721209 140.18267822 244.5657959 C133.93593583 246.43673398 127.68966658 248.30925027 121.44335938 250.18164062 C114.39348361 252.29478576 107.3435602 254.40777114 100.2933197 256.5196991 C98.69393602 256.99914585 98.69393602 256.99914585 97.06224155 257.48827839 C94.98482707 258.11006032 92.90688859 258.73009464 90.82839108 259.34824657 C85.98904767 260.78971947 81.16229201 262.25800684 76.35354614 263.79873657 C75.01138708 264.22165969 75.01138708 264.22165969 73.64211369 264.65312672 C71.99652045 265.17301302 70.35424562 265.70360698 68.71664333 266.24814129 C59.27058136 269.20599478 51.24291402 268.22956833 41.92773438 265.30053711 C40.97271027 265.01251724 40.01768616 264.72449738 39.03372192 264.42774963 C35.88293057 263.47399094 32.73852461 262.50073965 29.59375 261.52734375 C27.35165484 260.84459045 25.1091738 260.16310322 22.86633301 259.48280334 C16.9371884 257.68082042 11.01319519 255.86245496 5.09020996 254.04034424 C-0.74176054 252.24887378 -6.57795902 250.47131044 -12.4140625 248.69335938 C-19.34415413 246.58156534 -26.27371838 244.46813371 -33.20043945 242.3453064 C-44.92450904 238.75398669 -56.65705948 235.19497936 -68.41015625 231.69970703 C-69.57038048 231.35415677 -70.73060471 231.00860651 -71.92598724 230.65258503 C-77.45450263 229.00651766 -82.98460141 227.36617436 -88.5177002 225.73558044 C-90.48777666 225.1501925 -92.45779159 224.5645974 -94.42773438 223.97875977 C-95.31411087 223.7199534 -96.20048737 223.46114704 -97.11372375 223.19449806 C-101.65027722 221.83908072 -105.88388042 220.40333814 -110 218 C-111.23824229 215.52351542 -111.1384648 213.86108153 -111.15821838 211.0899353 C-111.1680072 210.05224503 -111.17779602 209.01455475 -111.18788147 207.94541931 C-111.19651466 206.23099388 -111.19651466 206.23099388 -111.20532227 204.48193359 C-111.21522186 203.28195236 -111.22512146 202.08197113 -111.23532104 200.84562683 C-111.26154258 197.55040107 -111.28339064 194.25519998 -111.30332303 190.95993376 C-111.32516773 187.51790967 -111.35256382 184.07592996 -111.37937927 180.63394165 C-111.42932671 174.11395294 -111.47425791 167.59393962 -111.51740164 161.07390273 C-111.56675651 153.65196107 -111.62168111 146.23006393 -111.67708123 138.80816531 C-111.79093275 123.538818 -111.89776487 108.26942977 -112 93 C-113.03930664 92.74831055 -114.07861328 92.49662109 -115.14941406 92.23730469 C-119.01450346 91.29731911 -122.87477576 90.33872139 -126.73388672 89.37451172 C-128.40288304 88.9602586 -130.07313343 88.55102372 -131.74462891 88.14697266 C-134.15095957 87.5643572 -136.55216109 86.96367621 -138.953125 86.359375 C-139.69806213 86.18315613 -140.44299927 86.00693726 -141.21051025 85.82537842 C-145.51594039 84.71964739 -148.32552107 83.62419877 -151 80 C-151.60738768 76.6869763 -151.84331106 75.13270772 -151 72 C-149.74397278 70.18940735 -149.74397278 70.18940735 -148.06567383 68.36450195 C-147.42884674 67.66853912 -146.79201965 66.97257629 -146.13589478 66.25552368 C-139.39968459 59.14202644 -132.54135592 52.15220093 -125.6496582 45.18969727 C-123.67070903 43.18839538 -121.70201371 41.17776568 -119.74145508 39.15844727 C-116.89307033 36.22495238 -114.01620845 33.3209418 -111.13671875 30.41796875 C-110.26971848 29.51797653 -109.4027182 28.61798431 -108.50944519 27.6907196 C-102.90785981 22.10718527 -98.71108053 19.50586254 -91 18 C-89.62830154 17.69363051 -88.25749831 17.38323855 -86.88737488 17.06990051 C-81.81509824 15.92199476 -76.72874824 14.84462271 -71.640625 13.76953125 C-69.76352946 13.37044585 -67.88647529 12.97116582 -66.00946045 12.57170105 C-62.09333151 11.73936428 -58.17653909 10.91024021 -54.25927734 10.08325195 C-49.24550049 9.02437412 -44.23377616 7.95610838 -39.22253799 6.88528919 C-35.35438162 6.06004606 -31.48504692 5.24044075 -27.61534882 4.42246056 C-25.76661872 4.03083631 -23.91828997 3.63731229 -22.07038116 3.24183083 C-19.48984588 2.6902977 -16.9077859 2.14655162 -14.32519531 1.60473633 C-13.56766464 1.44113617 -12.81013397 1.27753601 -12.02964783 1.10897827 C-7.95330363 0.26312592 -4.16227912 -0.1683527 0 0 Z M-93.411026 38.29077148 C-94.01281174 38.89477783 -94.61459747 39.49878418 -95.23461914 40.12109375 C-96.25556419 41.1421521 -96.25556419 41.1421521 -97.2971344 42.18383789 C-98.03568161 42.92754639 -98.77422882 43.67125488 -99.53515625 44.4375 C-100.28840683 45.19216553 -101.04165741 45.94683105 -101.81773376 46.72436523 C-104.23500041 49.14725201 -106.64877645 51.57358399 -109.0625 54 C-110.69573565 55.63824806 -112.32919619 57.27627195 -113.96289062 58.9140625 C-117.9778784 62.94010598 -121.99000183 66.96898712 -126 71 C-122.91447391 72.68566813 -119.94646196 73.64170754 -116.54139709 74.50004578 C-114.87798531 74.92283813 -114.87798531 74.92283813 -113.18096924 75.35417175 C-111.96890808 75.65712662 -110.75684692 75.96008148 -109.50805664 76.2722168 C-108.21500913 76.5988814 -106.92205798 76.92592765 -105.62919617 77.25332642 C-102.12210348 78.13999227 -98.6134991 79.02052445 -95.10444188 79.89937949 C-92.91176102 80.44881663 -90.71940567 80.99953346 -88.52715874 81.55069923 C-80.87813853 83.47369858 -73.22785481 85.3915791 -65.57641602 87.30493164 C-58.44518562 89.08834821 -51.31689468 90.88318081 -44.18986231 92.68329304 C-38.06849185 94.2288429 -31.94511064 95.76623699 -25.82011122 97.29734164 C-22.16288126 98.21171997 -18.50656271 99.12941603 -14.85225105 100.05539513 C-11.4162437 100.9257724 -7.97784808 101.78597814 -4.53735542 102.63844681 C-2.67464272 103.10268189 -0.81455155 103.57739633 1.04544067 104.05241394 C2.15720169 104.32581604 3.26896271 104.59921814 4.41441345 104.88090515 C5.3780226 105.12258265 6.34163176 105.36426016 7.33444118 105.61326122 C10.2192828 106.03181515 12.21585917 105.8296224 15 105 C16.65776653 103.41573891 16.65776653 103.41573891 17.91015625 101.30859375 C18.41957764 100.53596191 18.92899902 99.76333008 19.45385742 98.96728516 C20.2501355 97.7150415 20.2501355 97.7150415 21.0625 96.4375 C22.20240554 94.70223921 23.34570511 92.96920378 24.4921875 91.23828125 C25.3598877 89.924646 25.3598877 89.924646 26.24511719 88.58447266 C29.37886911 83.96929489 32.78513138 79.561793 36.21704102 75.16577148 C36.68553467 74.55677002 37.15402832 73.94776855 37.63671875 73.3203125 C38.04623779 72.79711426 38.45575684 72.27391602 38.87768555 71.73486328 C40.2592872 69.59919625 41.08012541 67.36590073 42 65 C24.67648126 61.34803223 7.35272174 57.69720905 -9.97132778 54.04776001 C-18.01461056 52.35335035 -26.05781315 50.65856179 -34.10083008 48.96289062 C-41.10857124 47.48548274 -48.11645976 46.0087762 -55.12452847 44.53292274 C-58.83753262 43.75096246 -62.55046044 42.96864367 -66.2632122 42.18548584 C-69.75379272 41.44920376 -73.24456865 40.71385563 -76.73550034 39.97924042 C-78.63555188 39.57914353 -80.53539164 39.17804134 -82.43522644 38.7769165 C-83.55568359 38.54132019 -84.67614075 38.30572388 -85.83055115 38.06298828 C-86.81041709 37.85650665 -87.79028303 37.65002502 -88.79984188 37.43728638 C-91.45095392 36.71590936 -91.45095392 36.71590936 -93.411026 38.29077148 Z M195.604599 38.98033142 C194.56022171 39.19765427 193.51584442 39.41497711 192.43981934 39.6388855 C191.30975464 39.88043365 190.17968994 40.12198181 189.01538086 40.37084961 C187.81309341 40.62283615 186.61080597 40.87482269 185.37208557 41.13444519 C182.08613774 41.82436304 178.8014009 42.51959855 175.51708674 43.21722484 C172.07436578 43.94715448 168.6301952 44.6701784 165.18617249 45.39393616 C158.66414477 46.76561398 152.14342074 48.14338751 145.62315327 49.52340561 C138.21847709 51.09032226 130.81243667 52.65074072 123.40624416 54.21047199 C114.37644247 56.1121383 105.34680576 58.01457265 96.31834412 59.92259216 C95.0560498 60.18931732 93.79375549 60.45604248 92.49320984 60.73085022 C90.13697252 61.22885229 87.78078347 61.72708284 85.4246521 62.22558594 C84.38309464 62.44572861 83.34153717 62.66587128 82.26841736 62.89268494 C81.36640059 63.08349608 80.46438383 63.27430723 79.53503323 63.47090054 C77.02600997 63.99457133 74.51404965 64.5010722 72 65 C73.5550802 69.78346308 76.26167363 73.21711786 79.3125 77.125 C82.86640512 81.73530929 86.2985254 86.379653 89.5078125 91.23828125 C90.08104248 92.10372559 90.65427246 92.96916992 91.24487305 93.86083984 C92.35771177 95.55489724 93.45854814 97.25691127 94.54614258 98.96728516 C95.05556396 99.73991699 95.56498535 100.51254883 96.08984375 101.30859375 C96.53191162 101.99751709 96.97397949 102.68644043 97.42944336 103.39624023 C99.55254436 105.5642257 101.00312075 105.64563217 104 106 C106.80592685 105.62828657 106.80592685 105.62828657 109.76435852 104.82948303 C110.91555679 104.54477646 112.06675507 104.26006989 113.25283813 103.96673584 C114.50656219 103.64521545 115.76028625 103.32369507 117.05200195 102.99243164 C118.39239632 102.65669813 119.73302478 102.32189801 121.0738678 101.98796082 C124.7081189 101.08004323 128.33895869 100.15911024 131.96932626 99.2358048 C135.76574973 98.27262762 139.56517782 97.32145427 143.36430359 96.3690033 C150.55573369 94.56415433 157.74439666 92.7485267 164.93212813 90.92901081 C173.11620386 88.85783736 181.30329165 86.79869828 189.49065459 84.74056447 C206.33049037 80.50709124 223.16648135 76.25852093 240 72 C239.06480894 70.90070219 238.12841221 69.80243002 237.19152832 68.70457458 C236.40954449 67.78700457 236.40954449 67.78700457 235.611763 66.85089779 C231.4021227 62.01667965 226.84237699 57.49690473 222.34130859 52.9362793 C221.10748885 51.68070166 219.87998346 50.41888962 218.65869141 49.15112305 C216.88051118 47.30616006 215.08352323 45.48155337 213.28125 43.66015625 C212.740448 43.09152359 212.199646 42.52289093 211.64245605 41.93702698 C209.16563878 39.47340618 207.6994859 38.05127571 204.14568424 37.79076481 C201.20362255 37.98645605 198.48691204 38.37207064 195.604599 38.98033142 Z M48 87 C47.12387232 88.08495758 46.29295135 89.20643972 45.48046875 90.33984375 C44.69700073 91.42857788 44.69700073 91.42857788 43.89770508 92.53930664 C43.05115356 93.72641235 43.05115356 93.72641235 42.1875 94.9375 C41.61088623 95.73986084 41.03427246 96.54222168 40.44018555 97.36889648 C37.44672769 101.54276952 34.47969214 105.73406123 31.5390625 109.9453125 C30.99612549 110.72140869 30.45318848 111.49750488 29.89379883 112.29711914 C28.85299343 113.78818496 27.8162548 115.28209913 26.78393555 116.77905273 C23.22008095 121.88995953 23.22008095 121.88995953 21 123 C14.06764013 123.36985384 8.16800645 122.35180402 1.47900391 120.61328125 C0.46813721 120.35968842 -0.54272949 120.10609558 -1.58422852 119.84481812 C-4.8998709 119.01054915 -8.21154064 118.16150386 -11.5234375 117.3125 C-13.83483348 116.72854465 -16.14649355 116.14563372 -18.45840454 115.5637207 C-24.52579715 114.03406762 -30.59004876 112.49232787 -36.65356445 110.9473877 C-46.37889298 108.47155372 -56.10880636 106.01381305 -65.83888626 103.55673218 C-69.23841709 102.69636313 -72.63655069 101.83064238 -76.03451538 100.96411133 C-78.10810493 100.43819935 -80.18172199 99.91239585 -82.25537109 99.38671875 C-83.20292267 99.14359955 -84.15047424 98.90048035 -85.1267395 98.6499939 C-85.99292908 98.43122589 -86.85911865 98.21245789 -87.7515564 97.98706055 C-88.88027192 97.69946114 -88.88027192 97.69946114 -90.03178978 97.40605164 C-92.15474443 96.89897499 -92.15474443 96.89897499 -95 97 C-95 132.97 -95 168.94 -95 206 C-61.27278775 216.0814956 -61.27278775 216.0814956 -27.54516602 226.16162109 C-20.9540863 228.13223267 -20.9540863 228.13223267 -17.81431389 229.07112503 C-15.60591075 229.73135131 -13.39742551 230.39130301 -11.1888752 231.05103683 C0.11516543 234.42789106 11.4174234 237.80875518 22.69580078 241.27050781 C23.48861104 241.51331545 24.2814213 241.75612309 25.09825611 242.00628853 C28.64909681 243.09404422 32.19822412 244.18671849 35.7440033 245.29086304 C36.93200027 245.65587921 38.11999725 246.02089539 39.34399414 246.39697266 C40.3519252 246.71010406 41.35985626 247.02323547 42.39833069 247.34585571 C45.19943554 248.16256198 45.19943554 248.16256198 49 248 C49 194.87 49 141.74 49 87 C48.67 87 48.34 87 48 87 Z M65 87 C65 140.46 65 193.92 65 249 C101.00961824 238.28185033 101.00961824 238.28185033 137 227.5 C160.98592396 220.28582601 184.99483955 213.15047332 209 206 C209 170.03 209 134.06 209 97 C201.91280212 98.28858143 195.03095999 99.64151251 188.08154297 101.43017578 C187.15805054 101.66455353 186.23455811 101.89893127 185.28308105 102.14041138 C183.29941614 102.64413905 181.31614773 103.14943032 179.33324814 103.65616226 C176.18894835 104.4589045 173.04321906 105.25579762 169.89700317 106.05099487 C160.95919855 108.31050567 152.02294021 110.57598265 143.09033203 112.85595703 C137.60752487 114.25495731 132.12216231 115.64351896 126.6350441 117.02550888 C124.55374381 117.55185329 122.47342826 118.08210834 120.39416122 118.61642838 C117.48505389 119.36365616 114.57287003 120.09753835 111.65966797 120.82861328 C110.38762009 121.16052673 110.38762009 121.16052673 109.08987427 121.49914551 C103.78678337 122.81167013 98.46767555 123.76707855 93 123 C88.13284021 119.47771331 85.05002142 113.9046891 81.75 108.9375 C74.22067453 97.71695691 74.22067453 97.71695691 66 87 C65.67 87 65.34 87 65 87 Z " fill="#000000" transform="translate(199,236)"/>
<path d="M0 0 C1.57648315 0.01244751 1.57648315 0.01244751 3.18481445 0.02514648 C21.84210584 0.42933266 37.99001285 8.2030968 51.1875 21.4375 C57.26772718 28.57063906 61.8804779 36.68361798 65.1875 45.4375 C65.50589844 46.21480469 65.82429687 46.99210937 66.15234375 47.79296875 C71.60317703 63.59284954 69.08897446 82.82577541 62 97.5625 C55.52000107 110.23948325 46.19061668 119.77503336 33.9375 126.875 C33.34694824 127.21740723 32.75639648 127.55981445 32.14794922 127.91259766 C28.82324479 129.75881966 25.91171184 130.7858025 22.1875 131.4375 C22.19749275 132.43228867 22.19749275 132.43228867 22.20768738 133.44717407 C22.27412504 140.35779974 22.31933582 147.26833448 22.35229492 154.17919922 C22.36736905 156.75736171 22.38783167 159.33549862 22.41381836 161.91357422 C22.45026086 165.62213461 22.46724052 169.33035554 22.48046875 173.0390625 C22.49595261 174.18927887 22.51143646 175.33949524 22.52738953 176.52456665 C22.52951873 186.67914785 22.52951873 186.67914785 19.1875 191.4375 C16.16301729 192.94974136 13.01533864 192.6417586 9.6953125 192.67578125 C8.58178909 192.68788887 8.58178909 192.68788887 7.44577026 192.70024109 C5.87386407 192.71407717 4.30192788 192.72480146 2.72998047 192.73266602 C0.3285217 192.74988512 -2.07156218 192.7937728 -4.47265625 192.83789062 C-5.99998988 192.84801729 -7.52733521 192.85653348 -9.0546875 192.86328125 C-9.77147675 192.88078934 -10.48826599 192.89829742 -11.22677612 192.91633606 C-14.6426017 192.90150817 -16.47957675 192.69026264 -19.23486328 190.59838867 C-22.11077033 186.65925941 -21.94348473 183.26529317 -21.95776367 178.52270508 C-21.96112228 177.82310669 -21.9644809 177.1235083 -21.96794128 176.40270996 C-21.97744694 174.08746569 -21.97939456 171.77229383 -21.98046875 169.45703125 C-21.98368288 167.84380565 -21.98704707 166.23058034 -21.99055481 164.61735535 C-21.99654602 161.23212001 -21.99839485 157.84691019 -21.99780273 154.46166992 C-21.99770141 150.13876809 -22.01132328 145.81603158 -22.02857494 141.49316883 C-22.03973659 138.15843465 -22.04172062 134.82373982 -22.04119301 131.48898888 C-22.04236802 129.8963025 -22.04676274 128.30361493 -22.05452538 126.71094704 C-22.06440446 124.47360583 -22.06141583 122.23661533 -22.05541992 119.99926758 C-22.05684494 118.72924393 -22.05826996 117.45922028 -22.05973816 116.15071106 C-21.53759874 108.30882335 -19.53765154 101.98990989 -13.8125 96.4375 C-8.99062886 93.15162814 -4.02370548 92.2397244 1.6875 91.5 C8.76729696 90.52518548 14.35121142 88.84944123 19.03515625 83.21484375 C24.18960042 75.72079372 24.95779314 69.4777459 24.1875 60.4375 C22.18745056 53.60037448 17.67759339 48.80870972 11.625 45.1875 C5.69958203 42.17092358 0.11324866 41.33805136 -6.37890625 43.15625 C-11.57140305 45.07538444 -15.26382597 47.05384385 -18.8125 51.4375 C-19.864375 52.6440625 -19.864375 52.6440625 -20.9375 53.875 C-23.71191601 58.10321001 -24.10604742 63.29933619 -24.90625 68.1953125 C-25.90956715 71.78476609 -26.90346671 73.16888822 -29.8125 75.4375 C-35.19953309 77.2331777 -40.98770795 76.6648489 -46.625 76.6875 C-47.89666016 76.708125 -49.16832031 76.72875 -50.47851562 76.75 C-51.70892578 76.75515625 -52.93933594 76.7603125 -54.20703125 76.765625 C-55.32956299 76.7749707 -56.45209473 76.78431641 -57.60864258 76.79394531 C-61.27021824 76.38657654 -63.67381702 75.3381196 -66.8125 73.4375 C-70.65220275 65.7580945 -67.535904 53.40252443 -65.05859375 45.7734375 C-58.07580149 27.07969269 -46.15694729 14.2144561 -28.1875 5.5625 C-19.03650896 1.45823491 -9.97220163 -0.10229138 0 0 Z M-40.8125 36.4375 C-46.03726944 43.49275711 -48.56741477 51.01182721 -50.8125 59.4375 C-47.8425 59.4375 -44.8725 59.4375 -41.8125 59.4375 C-41.53277344 58.67566406 -41.25304687 57.91382813 -40.96484375 57.12890625 C-36.74724944 46.26622765 -30.64621155 36.33324065 -19.9140625 30.99609375 C-7.64942253 25.68141643 3.37643548 24.85758814 16.11328125 29.18359375 C26.61325595 33.46630262 34.53662583 41.00198288 39.1875 51.375 C42.83599634 61.92471993 43.04453059 74.66908904 38.50390625 84.984375 C32.58587043 96.01264353 25.68989704 102.87064332 13.625 106.8125 C9.743761 107.90309608 6.0790679 108.63707378 2.0625 108.9375 C-1.73439256 109.03877465 -1.73439256 109.03877465 -3.53340149 111.07891846 C-5.18088597 114.1167818 -5.17378263 116.22372812 -5.15307617 119.67480469 C-5.15284958 120.93580994 -5.15262299 122.19681519 -5.15238953 123.49603271 C-5.13707082 124.86715044 -5.12142285 126.23826452 -5.10546875 127.609375 C-5.09987086 129.01612902 -5.09560167 130.42288891 -5.09260559 131.82965088 C-5.08117185 135.52545424 -5.0517178 139.22090179 -5.01849365 142.91656494 C-4.98776077 146.69042142 -4.97409341 150.4643356 -4.95898438 154.23828125 C-4.92684629 161.63818273 -4.87566824 169.03779144 -4.8125 176.4375 C-1.5125 176.4375 1.7875 176.4375 5.1875 176.4375 C5.19558685 175.75511765 5.20367371 175.07273529 5.21200562 174.36967468 C5.2979228 167.2808436 5.39742069 160.19229631 5.50488281 153.10375977 C5.54321579 150.45667275 5.57806094 147.80953287 5.609375 145.16235352 C5.65493145 141.36194944 5.71294197 137.56191068 5.7734375 133.76171875 C5.78498871 132.57414474 5.79653992 131.38657074 5.80844116 130.16300964 C5.82831085 129.06209488 5.84818054 127.96118011 5.86865234 126.8269043 C5.88197601 125.85649704 5.89529968 124.88608978 5.9090271 123.88627625 C6.1875 121.4375 6.1875 121.4375 8.1875 118.4375 C10.62109375 117.48046875 10.62109375 117.48046875 13.625 116.625 C27.18433975 112.28860018 38.54414239 104.83625509 45.34277344 92.01171875 C51.5848445 79.46038533 53.78334426 65.63508589 49.625 52 C43.73689697 37.06281232 33.86885957 27.08524442 19.5859375 20.1796875 C-1.8145619 11.55920464 -26.34579477 18.9502739 -40.8125 36.4375 Z " fill="#000000" transform="translate(255.8125,7.5625)"/>
<path d="M0 0 C3.91324477 2.83710246 5.61390551 6.04568589 7.8125 10.3125 C12.179938 18.63302932 18.4027109 23.72841165 26 29 C27.56935594 32.13871188 27.35201103 34.53855822 27 38 C24.18991186 41.97288323 20.90748088 43.64245495 16.625 45.875 C8.92910706 49.92438259 4.21882504 55.3634209 -0.73828125 62.3984375 C-2 64 -2 64 -4 65 C-7.47563729 65.38618192 -9.45856788 65.29052455 -12.5625 63.625 C-14.87086373 61.13906983 -15.90106101 59.33768424 -17.3125 56.3125 C-21.48664917 47.45547722 -28.08590734 41.52604974 -36 36 C-37.56918492 34.43081508 -37.28258943 32.85914841 -37.375 30.6875 C-37.28596077 26.34512506 -37.28596077 26.34512506 -35.1875 23.8125 C-33.29706748 22.73754818 -31.39362821 21.68420083 -29.46484375 20.6796875 C-20.54330505 15.99189137 -15.04313804 10.80642604 -9.26171875 2.6015625 C-6.71237527 -0.63444625 -3.89093397 -0.45775694 0 0 Z M-5 25 C-8.465 27.97 -8.465 27.97 -12 31 C-10.64978174 35.41889613 -8.73884332 37.34345343 -5 40 C-2.36 38.02 0.28 36.04 3 34 C2.05125 32.700625 1.1025 31.40125 0.125 30.0625 C-0.40867187 29.33160156 -0.94234375 28.60070312 -1.4921875 27.84765625 C-2.88012104 25.88901765 -2.88012104 25.88901765 -5 25 Z " fill="#000000" transform="translate(53,89)"/>
<path d="M0 0 C2.76566752 0.59958807 3.99874067 1.40762751 6 3.43359375 C6.93606404 5.85415198 7.6883734 8.13458105 8.375 10.62109375 C10.63187204 18.0145079 13.66426114 22.91627233 18.9375 28.4765625 C23.85487959 33.76076274 23.85487959 33.76076274 24.6875 37.62109375 C23.75193148 41.44841953 23.03082802 42.81606046 20 45.43359375 C17.11019351 46.51339893 14.18242328 47.38595563 11.23046875 48.28125 C4.09598496 50.82619887 -1.82646251 55.22858422 -7.3125 60.37109375 C-9.83005636 62.64717022 -10.79470753 63.38528964 -14.1875 64.18359375 C-17.97420219 63.1738065 -19.99070097 61.72527817 -22 58.43359375 C-23.08430799 55.48496174 -23.99280217 52.50330868 -24.9140625 49.5 C-27.16868266 43.1335366 -30.96564432 38.30201156 -35.8125 33.68359375 C-37.93611022 31.64455208 -38.94164874 30.57775568 -40.0625 27.80859375 C-39.9680205 24.21837276 -38.99860971 21.64402977 -36.7109375 18.87109375 C-34.63788592 17.12935178 -32.99647001 16.69939753 -30.375 16.05859375 C-21.73284022 13.63979684 -13.8335213 9.16160336 -8.125 2.12109375 C-5.3496112 -0.08289147 -3.45528044 -0.00674859 0 0 Z M-11.125 26.93359375 C-11.84945313 27.39765625 -12.57390625 27.86171875 -13.3203125 28.33984375 C-13.87460937 28.70078125 -14.42890625 29.06171875 -15 29.43359375 C-13.66511872 33.02750489 -12.03977277 36.18850071 -10 39.43359375 C-7.03 37.78359375 -4.06 36.13359375 -1 34.43359375 C-1.93411993 30.69711405 -3.22742965 27.8245979 -5 24.43359375 C-7.67550292 24.43359375 -8.89044641 25.49194627 -11.125 26.93359375 Z " fill="#000000" transform="translate(471,95.56640625)"/>
<path d="M0 0 C26.42147758 0.83877707 51.49893032 18.60143957 69 37 C69.66515625 37.68191406 70.3303125 38.36382812 71.015625 39.06640625 C82.54635532 51.28348956 92.02580375 67.57332217 96 84 C93.73117913 84.83919398 91.46022973 85.67151724 89.1875 86.5 C88.54490234 86.73847656 87.90230469 86.97695312 87.24023438 87.22265625 C84.35066261 88.27068746 82.09923939 89 79 89 C78.6596875 88.07960938 78.319375 87.15921875 77.96875 86.2109375 C67.7074547 59.11938544 49.65646298 37.51429728 23.07495117 25.08691406 C14.93627006 21.44953675 6.67939239 19.00773301 -2 17 C-3.44715727 13.12813552 -2.5441918 10.1767672 -1.5625 6.25 C-1.27503906 5.07953125 -0.98757812 3.9090625 -0.69140625 2.703125 C-0.46324219 1.81109375 -0.23507813 0.9190625 0 0 Z " fill="#000000" transform="translate(84,138)"/>
<path d="M0 0 C0.99 8.415 0.99 8.415 2 17 C-1.7125 17.804375 -1.7125 17.804375 -5.5 18.625 C-25.23745379 23.18816496 -41.83595315 31.43346214 -57 45 C-58.02287109 45.88171875 -58.02287109 45.88171875 -59.06640625 46.78125 C-67.25640801 54.3259789 -73.40917457 64.434302 -79 74 C-83.14298667 73.40165275 -86.18194377 71.99335715 -89.8125 69.9375 C-90.78832031 69.38964844 -91.76414062 68.84179688 -92.76953125 68.27734375 C-93.50558594 67.85582031 -94.24164063 67.43429688 -95 67 C-91.5195319 59.28607791 -87.17814716 52.67757466 -82 46 C-81.26265625 45.04480469 -80.5253125 44.08960938 -79.765625 43.10546875 C-75.2585416 37.4249895 -70.66355638 32.51514027 -65 28 C-63.65228516 26.86304688 -63.65228516 26.86304688 -62.27734375 25.703125 C-45.41747474 11.97650598 -22.20557907 0 0 0 Z " fill="#000000" transform="translate(431,136)"/>
<path d="M0 0 C5.82485779 3.51996782 10.54466582 8.98962934 12.5625 15.5 C13.36764105 23.33608208 13.68710392 31.11922577 8.5625 37.5 C3.75801361 42.54521222 -0.59927055 46.10562995 -7.70703125 46.8359375 C-16.22326573 46.92983204 -22.11345494 46.6177288 -28.40234375 40.62890625 C-34.7841668 33.72505269 -35.91792252 28.29832071 -35.7421875 18.9453125 C-35.04689797 11.08319245 -31.38995981 6.95041296 -25.53515625 1.9453125 C-18.47077988 -2.92213491 -7.84396301 -3.47595223 0 0 Z M-16.8125 17.125 C-18.92456506 20.21186432 -19.04945145 21.8282913 -18.4375 25.5 C-16.9375 28 -16.9375 28 -14.4375 29.5 C-10.7657913 30.11195145 -9.14936432 29.98706506 -6.0625 27.875 C-3.95043494 24.78813568 -3.82554855 23.1717087 -4.4375 19.5 C-5.9375 17 -5.9375 17 -8.4375 15.5 C-12.1092087 14.88804855 -13.72563568 15.01293494 -16.8125 17.125 Z " fill="#000000" transform="translate(267.4375,209.5)"/>
</svg>
